<svg width="300" height="93" viewBox="0 0 300 93" fill="none" xmlns="http://www.w3.org/2000/svg">
<g clip-path="url(#clip0_2_35)">
<rect width="300" height="93" rx="5" fill="white"/>
<rect x="-66" width="700" height="93" rx="10" fill="url(#paint0_linear_2_35)"/>
<path fill-rule="evenodd" clip-rule="evenodd" d="M-66 72.4884L-53 58.4884C-40 44.4884 -14 16.4884 12 -7.51164C38 -32.5116 64 -53.5116 90 -39.5116C115 -25.5116 141 23.4884 167 34.4884C193 44.4884 219 16.4884 245 20.4884C271 23.4884 297 58.4884 323 44.4884C349 30.4884 375 -32.5116 401 -39.5116C427 -46.5116 453 2.48836 478 9.48836C504 16.4884 530 -18.5116 556 -11.5116C582 -4.51164 608 44.4884 621 69.4884L634 93.4884H621C608 93.4884 582 93.4884 556 93.4884C530 93.4884 504 93.4884 478 93.4884C453 93.4884 427 93.4884 401 93.4884C375 93.4884 349 93.4884 323 93.4884C297 93.4884 271 93.4884 245 93.4884C219 93.4884 193 93.4884 167 93.4884C141 93.4884 115 93.4884 90 93.4884C64 93.4884 38 93.4884 12 93.4884C-14 93.4884 -40 93.4884 -53 93.4884H-66V72.4884Z" fill="url(#paint1_linear_2_35)"/>
<circle cx="257" cy="46" r="68" fill="url(#paint2_linear_2_35)"/>
<path d="M16.9658 26.2954H19.3389C19.9736 26.2954 20.5596 26.4004 21.0967 26.6104C21.6338 26.8154 22.1001 27.1133 22.4956 27.5039C22.896 27.8896 23.2061 28.356 23.4258 28.9028C23.6455 29.4448 23.7554 30.0503 23.7554 30.7192C23.7554 31.3735 23.6455 31.9692 23.4258 32.5063C23.2061 33.0386 22.896 33.4951 22.4956 33.876C22.1001 34.2568 21.6338 34.5498 21.0967 34.7549C20.5596 34.96 19.9736 35.0625 19.3389 35.0625H16.9658C16.3262 35.0625 15.7378 34.96 15.2007 34.7549C14.6636 34.5498 14.1948 34.2593 13.7944 33.8833C13.394 33.5024 13.0815 33.0459 12.8569 32.5137C12.6372 31.9814 12.5273 31.3882 12.5273 30.7339C12.5273 30.0649 12.6372 29.4595 12.8569 28.9175C13.0815 28.3706 13.394 27.9019 13.7944 27.5112C14.1948 27.1206 14.6636 26.8203 15.2007 26.6104C15.7378 26.4004 16.3262 26.2954 16.9658 26.2954ZM16.9658 28.0532C16.4971 28.0532 16.0845 28.1558 15.728 28.3608C15.3716 28.5659 15.0957 28.8687 14.9004 29.269C14.7051 29.6646 14.6074 30.1528 14.6074 30.7339C14.6074 31.1538 14.6636 31.5249 14.7759 31.8472C14.8931 32.1646 15.0566 32.4307 15.2666 32.6455C15.4766 32.8604 15.7256 33.0239 16.0137 33.1362C16.3018 33.2485 16.6191 33.3047 16.9658 33.3047H19.3535C19.8174 33.3047 20.2227 33.2046 20.5693 33.0044C20.9209 32.8042 21.1943 32.5112 21.3896 32.1255C21.585 31.7397 21.6826 31.271 21.6826 30.7192C21.6826 30.2847 21.6265 29.9014 21.5142 29.5693C21.4019 29.2373 21.2432 28.959 21.0381 28.7344C20.833 28.5098 20.5864 28.3413 20.2983 28.229C20.0151 28.1118 19.7002 28.0532 19.3535 28.0532H16.9658ZM19.207 24.8965V36.4395H17.0977V24.8965H19.207ZM24.7295 32.1182V31.9644C24.7295 31.3833 24.8125 30.8486 24.9785 30.3604C25.1445 29.8672 25.3862 29.4399 25.7036 29.0786C26.021 28.7173 26.4116 28.4365 26.8755 28.2363C27.3394 28.0312 27.8716 27.9287 28.4722 27.9287C29.0728 27.9287 29.6074 28.0312 30.0762 28.2363C30.5449 28.4365 30.938 28.7173 31.2554 29.0786C31.5776 29.4399 31.8218 29.8672 31.9878 30.3604C32.1538 30.8486 32.2368 31.3833 32.2368 31.9644V32.1182C32.2368 32.6943 32.1538 33.229 31.9878 33.7222C31.8218 34.2104 31.5776 34.6377 31.2554 35.0039C30.938 35.3652 30.5474 35.646 30.0835 35.8462C29.6196 36.0464 29.0874 36.1465 28.4868 36.1465C27.8862 36.1465 27.3516 36.0464 26.8828 35.8462C26.4189 35.646 26.0259 35.3652 25.7036 35.0039C25.3862 34.6377 25.1445 34.2104 24.9785 33.7222C24.8125 33.229 24.7295 32.6943 24.7295 32.1182ZM26.8389 31.9644V32.1182C26.8389 32.4502 26.8682 32.7603 26.9268 33.0483C26.9854 33.3364 27.0781 33.5903 27.2051 33.8101C27.3369 34.0249 27.5078 34.1934 27.7178 34.3154C27.9277 34.4375 28.1841 34.4985 28.4868 34.4985C28.7798 34.4985 29.0312 34.4375 29.2412 34.3154C29.4512 34.1934 29.6196 34.0249 29.7466 33.8101C29.8735 33.5903 29.9663 33.3364 30.0249 33.0483C30.0884 32.7603 30.1201 32.4502 30.1201 32.1182V31.9644C30.1201 31.6421 30.0884 31.3394 30.0249 31.0562C29.9663 30.7681 29.8711 30.5142 29.7393 30.2944C29.6123 30.0698 29.4438 29.894 29.2339 29.7671C29.0239 29.6401 28.77 29.5767 28.4722 29.5767C28.1743 29.5767 27.9204 29.6401 27.7104 29.7671C27.5054 29.894 27.3369 30.0698 27.2051 30.2944C27.0781 30.5142 26.9854 30.7681 26.9268 31.0562C26.8682 31.3394 26.8389 31.6421 26.8389 31.9644ZM35.6426 29.5986V39.0469H33.5332V28.0752H35.4888L35.6426 29.5986ZM40.6597 31.9497V32.1035C40.6597 32.6797 40.5913 33.2144 40.4546 33.7075C40.3228 34.2007 40.1274 34.6304 39.8687 34.9966C39.6099 35.3579 39.2876 35.6411 38.9019 35.8462C38.521 36.0464 38.0815 36.1465 37.5835 36.1465C37.1001 36.1465 36.6802 36.0488 36.3237 35.8535C35.9673 35.6582 35.667 35.3848 35.4229 35.0332C35.1836 34.6768 34.9907 34.2642 34.8442 33.7954C34.6978 33.3267 34.5854 32.8237 34.5073 32.2866V31.8838C34.5854 31.3076 34.6978 30.7803 34.8442 30.3018C34.9907 29.8184 35.1836 29.4009 35.4229 29.0493C35.667 28.6929 35.9648 28.417 36.3164 28.2217C36.6729 28.0264 37.0903 27.9287 37.5688 27.9287C38.0718 27.9287 38.5137 28.0239 38.8945 28.2144C39.2803 28.4048 39.6025 28.6782 39.8613 29.0347C40.125 29.3911 40.3228 29.8159 40.4546 30.3091C40.5913 30.8022 40.6597 31.3491 40.6597 31.9497ZM38.543 32.1035V31.9497C38.543 31.6128 38.5137 31.3027 38.4551 31.0195C38.4014 30.7314 38.3135 30.48 38.1914 30.2651C38.0742 30.0503 37.918 29.8843 37.7227 29.7671C37.5322 29.645 37.3003 29.584 37.0269 29.584C36.7388 29.584 36.4922 29.6304 36.2871 29.7231C36.0869 29.8159 35.9233 29.9502 35.7964 30.126C35.6694 30.3018 35.5742 30.5117 35.5107 30.7559C35.4473 31 35.4082 31.2759 35.3936 31.5835V32.6016C35.418 32.9629 35.4863 33.2876 35.5986 33.5757C35.7109 33.8589 35.8843 34.0835 36.1187 34.2495C36.353 34.4155 36.6606 34.4985 37.0415 34.4985C37.3198 34.4985 37.5542 34.4375 37.7446 34.3154C37.9351 34.1885 38.0889 34.0151 38.2061 33.7954C38.3281 33.5757 38.4136 33.3218 38.4624 33.0337C38.5161 32.7456 38.543 32.4355 38.543 32.1035ZM44.2339 35.1064L46.3359 28.0752H48.5991L45.4131 37.1938C45.3447 37.394 45.252 37.6089 45.1348 37.8384C45.0225 38.0679 44.8687 38.2852 44.6733 38.4902C44.4829 38.7002 44.2412 38.8711 43.9482 39.0029C43.6602 39.1348 43.3062 39.2007 42.8862 39.2007C42.686 39.2007 42.5225 39.1885 42.3955 39.1641C42.2686 39.1396 42.1172 39.1055 41.9414 39.0615V37.5161C41.9951 37.5161 42.0513 37.5161 42.1099 37.5161C42.1685 37.521 42.2246 37.5234 42.2783 37.5234C42.5566 37.5234 42.7837 37.4917 42.9595 37.4282C43.1353 37.3647 43.2769 37.2671 43.3843 37.1353C43.4917 37.0083 43.5771 36.8423 43.6406 36.6372L44.2339 35.1064ZM43.355 28.0752L45.0762 33.8174L45.3765 36.0513L43.9409 36.2051L41.0918 28.0752H43.355ZM54.2607 33.5757L56.3408 28.0752H58.062L54.9712 36H53.5503L50.4741 28.0752H52.1953L54.2607 33.5757ZM51.6899 28.0752V36H49.5806V28.0752H51.6899ZM56.8828 36V28.0752H58.9922V36H56.8828ZM60.9404 34.9819C60.9404 34.6694 61.0479 34.4082 61.2627 34.1982C61.4824 33.9883 61.7729 33.8833 62.1343 33.8833C62.4956 33.8833 62.7837 33.9883 62.9985 34.1982C63.2183 34.4082 63.3281 34.6694 63.3281 34.9819C63.3281 35.2944 63.2183 35.5557 62.9985 35.7656C62.7837 35.9756 62.4956 36.0806 62.1343 36.0806C61.7729 36.0806 61.4824 35.9756 61.2627 35.7656C61.0479 35.5557 60.9404 35.2944 60.9404 34.9819ZM74.0801 30.4189V30.9243C74.0801 31.7349 73.9702 32.4624 73.7505 33.1069C73.5308 33.7515 73.2207 34.3008 72.8203 34.7549C72.4199 35.2041 71.9414 35.5483 71.3848 35.7876C70.833 36.0269 70.2202 36.1465 69.5464 36.1465C68.8774 36.1465 68.2646 36.0269 67.708 35.7876C67.1562 35.5483 66.6777 35.2041 66.2725 34.7549C65.8672 34.3008 65.5522 33.7515 65.3276 33.1069C65.1079 32.4624 64.998 31.7349 64.998 30.9243V30.4189C64.998 29.6035 65.1079 28.876 65.3276 28.2363C65.5474 27.5918 65.8574 27.0425 66.2578 26.5884C66.6631 26.1343 67.1416 25.7876 67.6934 25.5483C68.25 25.3091 68.8628 25.1895 69.5317 25.1895C70.2056 25.1895 70.8184 25.3091 71.3701 25.5483C71.9268 25.7876 72.4053 26.1343 72.8057 26.5884C73.2109 27.0425 73.5234 27.5918 73.7432 28.2363C73.9678 28.876 74.0801 29.6035 74.0801 30.4189ZM71.8608 30.9243V30.4043C71.8608 29.8379 71.8096 29.3398 71.707 28.9102C71.6045 28.4805 71.4531 28.1191 71.2529 27.8262C71.0527 27.5332 70.8086 27.3135 70.5205 27.167C70.2324 27.0156 69.9028 26.9399 69.5317 26.9399C69.1606 26.9399 68.8311 27.0156 68.543 27.167C68.2598 27.3135 68.0181 27.5332 67.8179 27.8262C67.6226 28.1191 67.4736 28.4805 67.3711 28.9102C67.2686 29.3398 67.2173 29.8379 67.2173 30.4043V30.9243C67.2173 31.4858 67.2686 31.9839 67.3711 32.4185C67.4736 32.8481 67.625 33.2119 67.8252 33.5098C68.0254 33.8027 68.2695 34.0249 68.5576 34.1763C68.8457 34.3276 69.1753 34.4033 69.5464 34.4033C69.9175 34.4033 70.2471 34.3276 70.5352 34.1763C70.8232 34.0249 71.0649 33.8027 71.2603 33.5098C71.4556 33.2119 71.6045 32.8481 71.707 32.4185C71.8096 31.9839 71.8608 31.4858 71.8608 30.9243ZM81.8438 32.4624H84.0337C83.9897 33.1802 83.792 33.8174 83.4404 34.374C83.0938 34.9307 82.6079 35.3652 81.9829 35.6777C81.3628 35.9902 80.6157 36.1465 79.7417 36.1465C79.0581 36.1465 78.4453 36.0293 77.9033 35.7949C77.3613 35.5557 76.8975 35.2139 76.5117 34.7695C76.1309 34.3252 75.8403 33.7881 75.6401 33.1582C75.4399 32.5283 75.3398 31.8228 75.3398 31.0415V30.3018C75.3398 29.5205 75.4424 28.8149 75.6475 28.1851C75.8574 27.5503 76.1553 27.0107 76.541 26.5664C76.9316 26.1221 77.3979 25.7803 77.9399 25.541C78.4819 25.3018 79.0874 25.1821 79.7563 25.1821C80.645 25.1821 81.3945 25.3433 82.0049 25.6655C82.6201 25.9878 83.0962 26.4321 83.4331 26.9985C83.7749 27.5649 83.98 28.2095 84.0483 28.9321H81.8511C81.8267 28.5024 81.7412 28.1387 81.5947 27.8408C81.4482 27.5381 81.2261 27.311 80.9282 27.1597C80.6353 27.0034 80.2446 26.9253 79.7563 26.9253C79.3901 26.9253 79.0703 26.9937 78.7969 27.1304C78.5234 27.2671 78.2939 27.4746 78.1084 27.7529C77.9229 28.0312 77.7837 28.3828 77.6909 28.8076C77.603 29.2275 77.5591 29.7207 77.5591 30.2871V31.0415C77.5591 31.5933 77.6006 32.0791 77.6836 32.499C77.7666 32.9141 77.8936 33.2656 78.0645 33.5537C78.2402 33.8369 78.4648 34.0518 78.7383 34.1982C79.0166 34.3398 79.3511 34.4106 79.7417 34.4106C80.2007 34.4106 80.5791 34.3374 80.877 34.1909C81.1748 34.0444 81.4019 33.8271 81.5581 33.5391C81.7192 33.251 81.8145 32.8921 81.8438 32.4624ZM89.6514 31.3198H86.9121L86.8975 29.811H89.1973C89.6025 29.811 89.9346 29.7598 90.1934 29.6572C90.4521 29.5498 90.645 29.396 90.772 29.1958C90.9038 28.9907 90.9697 28.7417 90.9697 28.4487C90.9697 28.1167 90.9062 27.8481 90.7793 27.6431C90.6572 27.438 90.4644 27.2891 90.2007 27.1963C89.9419 27.1035 89.6074 27.0571 89.1973 27.0571H87.6738V36H85.4766V25.3359H89.1973C89.8174 25.3359 90.3716 25.3945 90.8599 25.5117C91.353 25.6289 91.7705 25.8071 92.1123 26.0464C92.4541 26.2856 92.7153 26.5884 92.896 26.9546C93.0767 27.3159 93.167 27.7456 93.167 28.2437C93.167 28.6831 93.0669 29.0884 92.8667 29.4595C92.6714 29.8306 92.3613 30.1333 91.9365 30.3677C91.5166 30.6021 90.9673 30.7314 90.2886 30.7559L89.6514 31.3198ZM89.5562 36H86.3115L87.1685 34.2861H89.5562C89.9419 34.2861 90.2568 34.2251 90.501 34.103C90.7451 33.9761 90.9258 33.8052 91.043 33.5903C91.1602 33.3755 91.2188 33.1289 91.2188 32.8506C91.2188 32.5381 91.165 32.2671 91.0576 32.0376C90.9551 31.8081 90.7891 31.6323 90.5596 31.5103C90.3301 31.3833 90.0273 31.3198 89.6514 31.3198H87.5347L87.5493 29.811H90.186L90.6914 30.4043C91.3408 30.3945 91.8633 30.5093 92.2588 30.7485C92.6592 30.9829 92.9497 31.2881 93.1304 31.6641C93.3159 32.04 93.4087 32.4429 93.4087 32.8726C93.4087 33.5562 93.2598 34.1323 92.9619 34.6011C92.6641 35.0649 92.2271 35.4141 91.6509 35.6484C91.0796 35.8828 90.3813 36 89.5562 36ZM97.3931 25.3359V36H95.2031V25.3359H97.3931ZM104 25.3359V36H101.81V25.3359H104ZM107.281 25.3359V27.0571H98.5796V25.3359H107.281ZM112.078 27.1597L109.178 36H106.841L110.804 25.3359H112.291L112.078 27.1597ZM114.488 36L111.58 27.1597L111.346 25.3359H112.847L116.832 36H114.488ZM114.356 32.0303V33.7515H108.724V32.0303H114.356ZM117.791 34.9819C117.791 34.6694 117.898 34.4082 118.113 34.1982C118.333 33.9883 118.624 33.8833 118.985 33.8833C119.346 33.8833 119.634 33.9883 119.849 34.1982C120.069 34.4082 120.179 34.6694 120.179 34.9819C120.179 35.2944 120.069 35.5557 119.849 35.7656C119.634 35.9756 119.346 36.0806 118.985 36.0806C118.624 36.0806 118.333 35.9756 118.113 35.7656C117.898 35.5557 117.791 35.2944 117.791 34.9819ZM128.06 25.3359H130.25V32.3818C130.25 33.2021 130.074 33.8931 129.722 34.4546C129.375 35.0161 128.895 35.4385 128.279 35.7217C127.669 36.0049 126.966 36.1465 126.17 36.1465C125.374 36.1465 124.666 36.0049 124.046 35.7217C123.431 35.4385 122.947 35.0161 122.596 34.4546C122.249 33.8931 122.076 33.2021 122.076 32.3818V25.3359H124.273V32.3818C124.273 32.8604 124.349 33.251 124.5 33.5537C124.651 33.8564 124.869 34.0786 125.152 34.2202C125.44 34.3618 125.779 34.4326 126.17 34.4326C126.57 34.4326 126.91 34.3618 127.188 34.2202C127.471 34.0786 127.686 33.8564 127.833 33.5537C127.984 33.251 128.06 32.8604 128.06 32.3818V25.3359ZM136.233 27.1597L133.333 36H130.997L134.959 25.3359H136.446L136.233 27.1597ZM138.643 36L135.735 27.1597L135.501 25.3359H137.002L140.987 36H138.643ZM138.511 32.0303V33.7515H132.879V32.0303H138.511Z" fill="white"/>
<path d="M18.567 56L15.608 52.161L16.268 51.765L19.502 56H18.567ZM13.298 56V48.3H14.09V56H13.298ZM13.848 52.469V51.754H16.257V52.469H13.848ZM16.334 52.238L15.586 52.106L18.457 48.3H19.337L16.334 52.238ZM22.7676 56.055C22.2103 56.055 21.708 55.9303 21.2606 55.681C20.8206 55.4243 20.4723 55.076 20.2156 54.636C19.959 54.1887 19.8306 53.679 19.8306 53.107C19.8306 52.5277 19.959 52.018 20.2156 51.578C20.4723 51.138 20.8206 50.7933 21.2606 50.544C21.7006 50.2947 22.203 50.17 22.7676 50.17C23.3396 50.17 23.8456 50.2947 24.2856 50.544C24.733 50.7933 25.0813 51.138 25.3306 51.578C25.5873 52.018 25.7156 52.5277 25.7156 53.107C25.7156 53.679 25.5873 54.1887 25.3306 54.636C25.0813 55.076 24.733 55.4243 24.2856 55.681C23.8383 55.9303 23.3323 56.055 22.7676 56.055ZM22.7676 55.362C23.1856 55.362 23.556 55.2703 23.8786 55.087C24.2013 54.8963 24.4543 54.6323 24.6376 54.295C24.8283 53.9503 24.9236 53.5543 24.9236 53.107C24.9236 52.6523 24.8283 52.2563 24.6376 51.919C24.4543 51.5817 24.2013 51.3213 23.8786 51.138C23.556 50.9473 23.1893 50.852 22.7786 50.852C22.368 50.852 22.0013 50.9473 21.6786 51.138C21.356 51.3213 21.0993 51.5817 20.9086 51.919C20.718 52.2563 20.6226 52.6523 20.6226 53.107C20.6226 53.5543 20.718 53.9503 20.9086 54.295C21.0993 54.6323 21.356 54.8963 21.6786 55.087C22.0013 55.2703 22.3643 55.362 22.7676 55.362ZM27.2748 56V50.225H28.0558V52.777H31.6968V50.225H32.4778V56H31.6968V53.448H28.0558V56H27.2748ZM37.0076 56.055C36.4356 56.055 35.9223 55.9303 35.4676 55.681C35.0203 55.4243 34.6683 55.076 34.4116 54.636C34.155 54.1887 34.0266 53.679 34.0266 53.107C34.0266 52.5277 34.155 52.018 34.4116 51.578C34.6683 51.138 35.0203 50.7933 35.4676 50.544C35.9223 50.2947 36.4356 50.17 37.0076 50.17C37.499 50.17 37.9426 50.2653 38.3386 50.456C38.7346 50.6467 39.0463 50.9327 39.2736 51.314L38.6906 51.71C38.4926 51.4167 38.247 51.2003 37.9536 51.061C37.6603 50.9217 37.3413 50.852 36.9966 50.852C36.586 50.852 36.2156 50.9473 35.8856 51.138C35.5556 51.3213 35.2953 51.5817 35.1046 51.919C34.914 52.2563 34.8186 52.6523 34.8186 53.107C34.8186 53.5617 34.914 53.9577 35.1046 54.295C35.2953 54.6323 35.5556 54.8963 35.8856 55.087C36.2156 55.2703 36.586 55.362 36.9966 55.362C37.3413 55.362 37.6603 55.2923 37.9536 55.153C38.247 55.0137 38.4926 54.801 38.6906 54.515L39.2736 54.911C39.0463 55.285 38.7346 55.571 38.3386 55.769C37.9426 55.9597 37.499 56.055 37.0076 56.055ZM40.6889 58.189C40.4176 58.189 40.1573 58.145 39.9079 58.057C39.6659 57.969 39.4569 57.837 39.2809 57.661L39.6439 57.078C39.7906 57.2173 39.9483 57.3237 40.1169 57.397C40.2929 57.4777 40.4873 57.518 40.6999 57.518C40.9566 57.518 41.1766 57.4447 41.3599 57.298C41.5506 57.1587 41.7303 56.9093 41.8989 56.55L42.2729 55.703L42.3609 55.582L44.7369 50.225H45.5069L42.6139 56.693C42.4526 57.067 42.2729 57.364 42.0749 57.584C41.8843 57.804 41.6753 57.958 41.4479 58.046C41.2206 58.1413 40.9676 58.189 40.6889 58.189ZM42.2289 56.165L39.5669 50.225H40.3809L42.7349 55.527L42.2289 56.165ZM45.3107 55.989L45.3657 55.318C45.417 55.3253 45.4647 55.3363 45.5087 55.351C45.56 55.3583 45.604 55.362 45.6407 55.362C45.8753 55.362 46.0623 55.274 46.2017 55.098C46.3483 54.922 46.4583 54.6873 46.5317 54.394C46.605 54.1007 46.6563 53.7707 46.6857 53.404C46.715 53.03 46.7407 52.656 46.7627 52.282L46.8617 50.225H51.0967V56H50.3157V50.676L50.5137 50.907H47.3677L47.5547 50.665L47.4667 52.337C47.4447 52.8357 47.4043 53.3123 47.3457 53.767C47.2943 54.2217 47.21 54.6213 47.0927 54.966C46.9827 55.3107 46.8287 55.582 46.6307 55.78C46.4327 55.9707 46.1797 56.066 45.8717 56.066C45.7837 56.066 45.692 56.0587 45.5967 56.044C45.5087 56.0293 45.4133 56.011 45.3107 55.989ZM55.6929 52.26C56.4189 52.2673 56.9689 52.4287 57.3429 52.744C57.7242 53.0593 57.9149 53.514 57.9149 54.108C57.9149 54.724 57.7095 55.197 57.2989 55.527C56.8955 55.857 56.3089 56.0183 55.5389 56.011L53.2069 56V50.225H53.9879V52.238L55.6929 52.26ZM55.4949 55.417C56.0302 55.4243 56.4335 55.318 56.7049 55.098C56.9835 54.8707 57.1229 54.5407 57.1229 54.108C57.1229 53.6753 56.9872 53.36 56.7159 53.162C56.4445 52.9567 56.0375 52.8503 55.4949 52.843L53.9879 52.821V55.395L55.4949 55.417ZM59.815 56V50.698L60.013 50.907H57.626V50.225H62.785V50.907H60.398L60.596 50.698V56H59.815ZM63.9032 58.189C63.6319 58.189 63.3716 58.145 63.1222 58.057C62.8802 57.969 62.6712 57.837 62.4952 57.661L62.8582 57.078C63.0049 57.2173 63.1626 57.3237 63.3312 57.397C63.5072 57.4777 63.7016 57.518 63.9142 57.518C64.1709 57.518 64.3909 57.4447 64.5742 57.298C64.7649 57.1587 64.9446 56.9093 65.1132 56.55L65.4872 55.703L65.5752 55.582L67.9512 50.225H68.7212L65.8282 56.693C65.6669 57.067 65.4872 57.364 65.2892 57.584C65.0986 57.804 64.8896 57.958 64.6622 58.046C64.4349 58.1413 64.1819 58.189 63.9032 58.189ZM65.4432 56.165L62.7812 50.225H63.5952L65.9492 55.527L65.4432 56.165ZM69.828 56V50.225H70.609V54.812L74.47 50.225H75.163V56H74.382V51.402L70.532 56H69.828ZM72.446 49.389C71.962 49.389 71.5697 49.268 71.269 49.026C70.9757 48.7767 70.8217 48.421 70.807 47.959H71.368C71.3754 48.2523 71.478 48.4833 71.676 48.652C71.874 48.8207 72.1307 48.905 72.446 48.905C72.7614 48.905 73.018 48.8207 73.216 48.652C73.4214 48.4833 73.5277 48.2523 73.535 47.959H74.096C74.0887 48.421 73.9347 48.7767 73.634 49.026C73.3334 49.268 72.9374 49.389 72.446 49.389ZM79.7113 56.055C79.1393 56.055 78.6259 55.9303 78.1713 55.681C77.7239 55.4243 77.3719 55.076 77.1153 54.636C76.8586 54.1887 76.7303 53.679 76.7303 53.107C76.7303 52.5277 76.8586 52.018 77.1153 51.578C77.3719 51.138 77.7239 50.7933 78.1713 50.544C78.6259 50.2947 79.1393 50.17 79.7113 50.17C80.2026 50.17 80.6463 50.2653 81.0423 50.456C81.4383 50.6467 81.7499 50.9327 81.9773 51.314L81.3943 51.71C81.1963 51.4167 80.9506 51.2003 80.6573 51.061C80.3639 50.9217 80.0449 50.852 79.7003 50.852C79.2896 50.852 78.9193 50.9473 78.5893 51.138C78.2593 51.3213 77.9989 51.5817 77.8083 51.919C77.6176 52.2563 77.5223 52.6523 77.5223 53.107C77.5223 53.5617 77.6176 53.9577 77.8083 54.295C77.9989 54.6323 78.2593 54.8963 78.5893 55.087C78.9193 55.2703 79.2896 55.362 79.7003 55.362C80.0449 55.362 80.3639 55.2923 80.6573 55.153C80.9506 55.0137 81.1963 54.801 81.3943 54.515L81.9773 54.911C81.7499 55.285 81.4383 55.571 81.0423 55.769C80.6463 55.9597 80.2026 56.055 79.7113 56.055ZM86.9152 56V53.921L87.0582 54.086H85.1002C84.3595 54.086 83.7802 53.9247 83.3622 53.602C82.9442 53.2793 82.7352 52.81 82.7352 52.194C82.7352 51.534 82.9588 51.0427 83.4062 50.72C83.8535 50.39 84.4512 50.225 85.1992 50.225H87.6302V56H86.9152ZM82.6912 56L84.2752 53.778H85.0892L83.5382 56H82.6912ZM86.9152 53.69V50.676L87.0582 50.907H85.2212C84.6858 50.907 84.2678 51.0097 83.9672 51.215C83.6738 51.4203 83.5272 51.754 83.5272 52.216C83.5272 53.074 84.0735 53.503 85.1662 53.503H87.0582L86.9152 53.69ZM93.616 56V50.698L93.814 50.907H91.427V50.225H96.586V50.907H94.199L94.397 50.698V56H93.616ZM101.191 56V54.724L101.158 54.515V52.381C101.158 51.8897 101.019 51.512 100.74 51.248C100.469 50.984 100.062 50.852 99.5192 50.852C99.1452 50.852 98.7895 50.9143 98.4522 51.039C98.1148 51.1637 97.8288 51.3287 97.5942 51.534L97.2422 50.951C97.5355 50.7017 97.8875 50.511 98.2982 50.379C98.7088 50.2397 99.1415 50.17 99.5962 50.17C100.344 50.17 100.92 50.357 101.323 50.731C101.734 51.0977 101.939 51.6587 101.939 52.414V56H101.191ZM99.2002 56.055C98.7675 56.055 98.3898 55.9853 98.0672 55.846C97.7518 55.6993 97.5098 55.5013 97.3412 55.252C97.1725 54.9953 97.0882 54.702 97.0882 54.372C97.0882 54.0713 97.1578 53.8 97.2972 53.558C97.4438 53.3087 97.6785 53.1107 98.0012 52.964C98.3312 52.81 98.7712 52.733 99.3212 52.733H101.312V53.316H99.3432C98.7858 53.316 98.3972 53.415 98.1772 53.613C97.9645 53.811 97.8582 54.0567 97.8582 54.35C97.8582 54.68 97.9865 54.944 98.2432 55.142C98.4998 55.34 98.8592 55.439 99.3212 55.439C99.7612 55.439 100.139 55.34 100.454 55.142C100.777 54.9367 101.012 54.6433 101.158 54.262L101.334 54.801C101.188 55.1823 100.931 55.4867 100.564 55.714C100.205 55.9413 99.7502 56.055 99.2002 56.055ZM109.097 56.055C108.525 56.055 108.012 55.9303 107.557 55.681C107.11 55.4243 106.758 55.076 106.501 54.636C106.245 54.1887 106.116 53.679 106.116 53.107C106.116 52.5277 106.245 52.018 106.501 51.578C106.758 51.138 107.11 50.7933 107.557 50.544C108.012 50.2947 108.525 50.17 109.097 50.17C109.589 50.17 110.032 50.2653 110.428 50.456C110.824 50.6467 111.136 50.9327 111.363 51.314L110.78 51.71C110.582 51.4167 110.337 51.2003 110.043 51.061C109.75 50.9217 109.431 50.852 109.086 50.852C108.676 50.852 108.305 50.9473 107.975 51.138C107.645 51.3213 107.385 51.5817 107.194 51.919C107.004 52.2563 106.908 52.6523 106.908 53.107C106.908 53.5617 107.004 53.9577 107.194 54.295C107.385 54.6323 107.645 54.8963 107.975 55.087C108.305 55.2703 108.676 55.362 109.086 55.362C109.431 55.362 109.75 55.2923 110.043 55.153C110.337 55.0137 110.582 54.801 110.78 54.515L111.363 54.911C111.136 55.285 110.824 55.571 110.428 55.769C110.032 55.9597 109.589 56.055 109.097 56.055ZM112.765 56V50.225H117.957V56H117.176V50.698L117.374 50.907H113.348L113.546 50.698V56H112.765ZM120.068 56V50.225H120.849V56H120.068ZM120.464 48.949C120.302 48.949 120.167 48.894 120.057 48.784C119.947 48.674 119.892 48.542 119.892 48.388C119.892 48.234 119.947 48.1057 120.057 48.003C120.167 47.893 120.302 47.838 120.464 47.838C120.625 47.838 120.761 47.8893 120.871 47.992C120.981 48.0947 121.036 48.223 121.036 48.377C121.036 48.5383 120.981 48.674 120.871 48.784C120.768 48.894 120.632 48.949 120.464 48.949ZM121.909 55.989L121.964 55.318C122.016 55.3253 122.063 55.3363 122.107 55.351C122.159 55.3583 122.203 55.362 122.239 55.362C122.474 55.362 122.661 55.274 122.8 55.098C122.947 54.922 123.057 54.6873 123.13 54.394C123.204 54.1007 123.255 53.7707 123.284 53.404C123.314 53.03 123.339 52.656 123.361 52.282L123.46 50.225H127.695V56H126.914V50.676L127.112 50.907H123.966L124.153 50.665L124.065 52.337C124.043 52.8357 124.003 53.3123 123.944 53.767C123.893 54.2217 123.809 54.6213 123.691 54.966C123.581 55.3107 123.427 55.582 123.229 55.78C123.031 55.9707 122.778 56.066 122.47 56.066C122.382 56.066 122.291 56.0587 122.195 56.044C122.107 56.0293 122.012 56.011 121.909 55.989ZM134.041 56L131.665 53.14L132.314 52.755L134.965 56H134.041ZM129.806 56V50.225H130.587V56H129.806ZM130.345 53.426V52.755H132.204V53.426H130.345ZM132.38 53.195L131.654 53.085L133.953 50.225H134.8L132.38 53.195ZM135.853 58.189C135.582 58.189 135.321 58.145 135.072 58.057C134.83 57.969 134.621 57.837 134.445 57.661L134.808 57.078C134.955 57.2173 135.112 57.3237 135.281 57.397C135.457 57.4777 135.651 57.518 135.864 57.518C136.121 57.518 136.341 57.4447 136.524 57.298C136.715 57.1587 136.894 56.9093 137.063 56.55L137.437 55.703L137.525 55.582L139.901 50.225H140.671L137.778 56.693C137.617 57.067 137.437 57.364 137.239 57.584C137.048 57.804 136.839 57.958 136.612 58.046C136.385 58.1413 136.132 58.189 135.853 58.189ZM137.393 56.165L134.731 50.225H135.545L137.899 55.527L137.393 56.165ZM141.778 56V50.225H142.559V54.812L146.42 50.225H147.113V56H146.332V51.402L142.482 56H141.778ZM144.396 49.389C143.912 49.389 143.52 49.268 143.219 49.026C142.926 48.7767 142.772 48.421 142.757 47.959H143.318C143.325 48.2523 143.428 48.4833 143.626 48.652C143.824 48.8207 144.081 48.905 144.396 48.905C144.711 48.905 144.968 48.8207 145.166 48.652C145.371 48.4833 145.478 48.2523 145.485 47.959H146.046C146.039 48.421 145.885 48.7767 145.584 49.026C145.283 49.268 144.887 49.389 144.396 49.389ZM151.661 56.055C151.089 56.055 150.576 55.9303 150.121 55.681C149.674 55.4243 149.322 55.076 149.065 54.636C148.808 54.1887 148.68 53.679 148.68 53.107C148.68 52.5277 148.808 52.018 149.065 51.578C149.322 51.138 149.674 50.7933 150.121 50.544C150.576 50.2947 151.089 50.17 151.661 50.17C152.152 50.17 152.596 50.2653 152.992 50.456C153.388 50.6467 153.7 50.9327 153.927 51.314L153.344 51.71C153.146 51.4167 152.9 51.2003 152.607 51.061C152.314 50.9217 151.995 50.852 151.65 50.852C151.239 50.852 150.869 50.9473 150.539 51.138C150.209 51.3213 149.949 51.5817 149.758 51.919C149.567 52.2563 149.472 52.6523 149.472 53.107C149.472 53.5617 149.567 53.9577 149.758 54.295C149.949 54.6323 150.209 54.8963 150.539 55.087C150.869 55.2703 151.239 55.362 151.65 55.362C151.995 55.362 152.314 55.2923 152.607 55.153C152.9 55.0137 153.146 54.801 153.344 54.515L153.927 54.911C153.7 55.285 153.388 55.571 152.992 55.769C152.596 55.9597 152.152 56.055 151.661 56.055ZM158.865 56V53.921L159.008 54.086H157.05C156.309 54.086 155.73 53.9247 155.312 53.602C154.894 53.2793 154.685 52.81 154.685 52.194C154.685 51.534 154.909 51.0427 155.356 50.72C155.803 50.39 156.401 50.225 157.149 50.225H159.58V56H158.865ZM154.641 56L156.225 53.778H157.039L155.488 56H154.641ZM158.865 53.69V50.676L159.008 50.907H157.171C156.636 50.907 156.218 51.0097 155.917 51.215C155.624 51.4203 155.477 51.754 155.477 52.216C155.477 53.074 156.023 53.503 157.116 53.503H159.008L158.865 53.69ZM14.662 70.066C14.244 70.066 13.8297 70.0073 13.419 69.89C13.0083 69.7727 12.6453 69.593 12.33 69.351L12.583 68.768C12.8617 68.9733 13.1843 69.131 13.551 69.241C13.9177 69.3437 14.2807 69.395 14.64 69.395C14.9993 69.3877 15.311 69.3363 15.575 69.241C15.839 69.1457 16.0443 69.0137 16.191 68.845C16.3377 68.6763 16.411 68.4857 16.411 68.273C16.411 67.965 16.2717 67.7267 15.993 67.558C15.7143 67.382 15.333 67.294 14.849 67.294H13.859V66.722H14.794C15.08 66.722 15.333 66.6853 15.553 66.612C15.773 66.5387 15.9417 66.4323 16.059 66.293C16.1837 66.1537 16.246 65.9887 16.246 65.798C16.246 65.5927 16.1727 65.4167 16.026 65.27C15.8867 65.1233 15.6923 65.0133 15.443 64.94C15.1937 64.8667 14.9113 64.83 14.596 64.83C14.31 64.8373 14.013 64.8813 13.705 64.962C13.397 65.0353 13.0927 65.149 12.792 65.303L12.572 64.698C12.9093 64.522 13.243 64.39 13.573 64.302C13.9103 64.2067 14.2477 64.159 14.585 64.159C15.047 64.1443 15.4613 64.1993 15.828 64.324C16.202 64.4487 16.499 64.6283 16.719 64.863C16.939 65.0903 17.049 65.3653 17.049 65.688C17.049 65.974 16.961 66.2233 16.785 66.436C16.609 66.6487 16.3743 66.8137 16.081 66.931C15.7877 67.0483 15.454 67.107 15.08 67.107L15.113 66.898C15.773 66.898 16.2863 67.0263 16.653 67.283C17.027 67.5397 17.214 67.888 17.214 68.328C17.214 68.6727 17.1003 68.977 16.873 69.241C16.6457 69.4977 16.3377 69.6993 15.949 69.846C15.5677 69.9927 15.1387 70.066 14.662 70.066ZM25.8809 70L23.5049 67.14L24.1539 66.755L26.8049 70H25.8809ZM21.6459 70V64.225H22.4269V70H21.6459ZM22.1849 67.426V66.755H24.0439V67.426H22.1849ZM24.2199 67.195L23.4939 67.085L25.7929 64.225H26.6399L24.2199 67.195ZM30.0994 70.055C29.542 70.055 29.0397 69.9303 28.5924 69.681C28.1524 69.4243 27.804 69.076 27.5474 68.636C27.2907 68.1887 27.1624 67.679 27.1624 67.107C27.1624 66.5277 27.2907 66.018 27.5474 65.578C27.804 65.138 28.1524 64.7933 28.5924 64.544C29.0324 64.2947 29.5347 64.17 30.0994 64.17C30.6714 64.17 31.1774 64.2947 31.6174 64.544C32.0647 64.7933 32.413 65.138 32.6624 65.578C32.919 66.018 33.0474 66.5277 33.0474 67.107C33.0474 67.679 32.919 68.1887 32.6624 68.636C32.413 69.076 32.0647 69.4243 31.6174 69.681C31.17 69.9303 30.664 70.055 30.0994 70.055ZM30.0994 69.362C30.5174 69.362 30.8877 69.2703 31.2104 69.087C31.533 68.8963 31.786 68.6323 31.9694 68.295C32.16 67.9503 32.2554 67.5543 32.2554 67.107C32.2554 66.6523 32.16 66.2563 31.9694 65.919C31.786 65.5817 31.533 65.3213 31.2104 65.138C30.8877 64.9473 30.521 64.852 30.1104 64.852C29.6997 64.852 29.333 64.9473 29.0104 65.138C28.6877 65.3213 28.431 65.5817 28.2404 65.919C28.0497 66.2563 27.9544 66.6523 27.9544 67.107C27.9544 67.5543 28.0497 67.9503 28.2404 68.295C28.431 68.6323 28.6877 68.8963 29.0104 69.087C29.333 69.2703 29.696 69.362 30.0994 69.362ZM33.5183 69.989L33.5733 69.318C33.6247 69.3253 33.6723 69.3363 33.7163 69.351C33.7677 69.3583 33.8117 69.362 33.8483 69.362C34.083 69.362 34.27 69.274 34.4093 69.098C34.556 68.922 34.666 68.6873 34.7393 68.394C34.8127 68.1007 34.864 67.7707 34.8933 67.404C34.9227 67.03 34.9483 66.656 34.9703 66.282L35.0693 64.225H39.3043V70H38.5233V64.676L38.7213 64.907H35.5753L35.7623 64.665L35.6743 66.337C35.6523 66.8357 35.612 67.3123 35.5533 67.767C35.502 68.2217 35.4177 68.6213 35.3003 68.966C35.1903 69.3107 35.0363 69.582 34.8383 69.78C34.6403 69.9707 34.3873 70.066 34.0793 70.066C33.9913 70.066 33.8997 70.0587 33.8043 70.044C33.7163 70.0293 33.621 70.011 33.5183 69.989ZM43.8895 70.055C43.2882 70.055 42.7602 69.9303 42.3055 69.681C41.8508 69.4243 41.4952 69.076 41.2385 68.636C40.9818 68.1887 40.8535 67.679 40.8535 67.107C40.8535 66.535 40.9745 66.029 41.2165 65.589C41.4658 65.149 41.8032 64.8043 42.2285 64.555C42.6612 64.2983 43.1452 64.17 43.6805 64.17C44.2232 64.17 44.7035 64.2947 45.1215 64.544C45.5468 64.786 45.8805 65.1307 46.1225 65.578C46.3645 66.018 46.4855 66.5277 46.4855 67.107C46.4855 67.1437 46.4819 67.184 46.4745 67.228C46.4745 67.2647 46.4745 67.305 46.4745 67.349H41.4475V66.766H46.0565L45.7485 66.997C45.7485 66.579 45.6569 66.2087 45.4735 65.886C45.2975 65.556 45.0555 65.2993 44.7475 65.116C44.4395 64.9327 44.0838 64.841 43.6805 64.841C43.2845 64.841 42.9288 64.9327 42.6135 65.116C42.2982 65.2993 42.0525 65.556 41.8765 65.886C41.7005 66.216 41.6125 66.5937 41.6125 67.019V67.14C41.6125 67.58 41.7078 67.9687 41.8985 68.306C42.0965 68.636 42.3678 68.8963 42.7125 69.087C43.0645 69.2703 43.4642 69.362 43.9115 69.362C44.2635 69.362 44.5898 69.2997 44.8905 69.175C45.1985 69.0503 45.4625 68.8597 45.6825 68.603L46.1225 69.109C45.8659 69.417 45.5432 69.6517 45.1545 69.813C44.7732 69.9743 44.3515 70.055 43.8895 70.055ZM48.1043 70V64.225H52.1963V64.907H48.6873L48.8853 64.709V70H48.1043ZM56.801 70V68.724L56.768 68.515V66.381C56.768 65.8897 56.6287 65.512 56.35 65.248C56.0787 64.984 55.6717 64.852 55.129 64.852C54.755 64.852 54.3994 64.9143 54.062 65.039C53.7247 65.1637 53.4387 65.3287 53.204 65.534L52.852 64.951C53.1454 64.7017 53.4974 64.511 53.908 64.379C54.3187 64.2397 54.7514 64.17 55.206 64.17C55.954 64.17 56.5297 64.357 56.933 64.731C57.3437 65.0977 57.549 65.6587 57.549 66.414V70H56.801ZM54.81 70.055C54.3774 70.055 53.9997 69.9853 53.677 69.846C53.3617 69.6993 53.1197 69.5013 52.951 69.252C52.7824 68.9953 52.698 68.702 52.698 68.372C52.698 68.0713 52.7677 67.8 52.907 67.558C53.0537 67.3087 53.2884 67.1107 53.611 66.964C53.941 66.81 54.381 66.733 54.931 66.733H56.922V67.316H54.953C54.3957 67.316 54.007 67.415 53.787 67.613C53.5744 67.811 53.468 68.0567 53.468 68.35C53.468 68.68 53.5964 68.944 53.853 69.142C54.1097 69.34 54.469 69.439 54.931 69.439C55.371 69.439 55.7487 69.34 56.064 69.142C56.3867 68.9367 56.6214 68.6433 56.768 68.262L56.944 68.801C56.7974 69.1823 56.5407 69.4867 56.174 69.714C55.8147 69.9413 55.36 70.055 54.81 70.055ZM59.5181 70V64.225H60.3101L62.9281 68.658H62.5981L65.2601 64.225H65.9861V70H65.2711V65.116L65.4141 65.182L62.9281 69.296H62.5761L60.0681 65.138L60.2331 65.105V70H59.5181ZM68.0985 70V64.225H68.8795V68.812L72.7405 64.225H73.4335V70H72.6525V65.402L68.8025 70H68.0985ZM79.4307 70V64.698L79.6287 64.907H77.2417V64.225H82.4007V64.907H80.0137L80.2117 64.698V70H79.4307ZM87.0059 70V68.724L86.9729 68.515V66.381C86.9729 65.8897 86.8336 65.512 86.5549 65.248C86.2836 64.984 85.8766 64.852 85.3339 64.852C84.9599 64.852 84.6042 64.9143 84.2669 65.039C83.9296 65.1637 83.6436 65.3287 83.4089 65.534L83.0569 64.951C83.3502 64.7017 83.7022 64.511 84.1129 64.379C84.5236 64.2397 84.9562 64.17 85.4109 64.17C86.1589 64.17 86.7346 64.357 87.1379 64.731C87.5486 65.0977 87.7539 65.6587 87.7539 66.414V70H87.0059ZM85.0149 70.055C84.5822 70.055 84.2046 69.9853 83.8819 69.846C83.5666 69.6993 83.3246 69.5013 83.1559 69.252C82.9872 68.9953 82.9029 68.702 82.9029 68.372C82.9029 68.0713 82.9726 67.8 83.1119 67.558C83.2586 67.3087 83.4932 67.1107 83.8159 66.964C84.1459 66.81 84.5859 66.733 85.1359 66.733H87.1269V67.316H85.1579C84.6006 67.316 84.2119 67.415 83.9919 67.613C83.7792 67.811 83.6729 68.0567 83.6729 68.35C83.6729 68.68 83.8012 68.944 84.0579 69.142C84.3146 69.34 84.6739 69.439 85.1359 69.439C85.5759 69.439 85.9536 69.34 86.2689 69.142C86.5916 68.9367 86.8262 68.6433 86.9729 68.262L87.1489 68.801C87.0022 69.1823 86.7456 69.4867 86.3789 69.714C86.0196 69.9413 85.5649 70.055 85.0149 70.055ZM94.8679 70.055C94.3106 70.055 93.8082 69.9303 93.3609 69.681C92.9209 69.4243 92.5726 69.076 92.3159 68.636C92.0592 68.1887 91.9309 67.679 91.9309 67.107C91.9309 66.5277 92.0592 66.018 92.3159 65.578C92.5726 65.138 92.9209 64.7933 93.3609 64.544C93.8009 64.2947 94.3032 64.17 94.8679 64.17C95.4399 64.17 95.9459 64.2947 96.3859 64.544C96.8332 64.7933 97.1816 65.138 97.4309 65.578C97.6876 66.018 97.8159 66.5277 97.8159 67.107C97.8159 67.679 97.6876 68.1887 97.4309 68.636C97.1816 69.076 96.8332 69.4243 96.3859 69.681C95.9386 69.9303 95.4326 70.055 94.8679 70.055ZM94.8679 69.362C95.2859 69.362 95.6562 69.2703 95.9789 69.087C96.3016 68.8963 96.5546 68.6323 96.7379 68.295C96.9286 67.9503 97.0239 67.5543 97.0239 67.107C97.0239 66.6523 96.9286 66.2563 96.7379 65.919C96.5546 65.5817 96.3016 65.3213 95.9789 65.138C95.6562 64.9473 95.2896 64.852 94.8789 64.852C94.4682 64.852 94.1016 64.9473 93.7789 65.138C93.4562 65.3213 93.1996 65.5817 93.0089 65.919C92.8182 66.2563 92.7229 66.6523 92.7229 67.107C92.7229 67.5543 92.8182 67.9503 93.0089 68.295C93.1996 68.6323 93.4562 68.8963 93.7789 69.087C94.1016 69.2703 94.4646 69.362 94.8679 69.362ZM103.303 69.626V64.907H100.52L100.454 66.194C100.439 66.5827 100.414 66.964 100.377 67.338C100.348 67.712 100.293 68.0567 100.212 68.372C100.139 68.68 100.032 68.933 99.8928 69.131C99.7535 69.3217 99.5738 69.4317 99.3538 69.461L98.5728 69.318C98.8002 69.3253 98.9872 69.2447 99.1338 69.076C99.2805 68.9 99.3942 68.6617 99.4748 68.361C99.5555 68.0603 99.6142 67.7193 99.6508 67.338C99.6875 66.9493 99.7168 66.5533 99.7388 66.15L99.8158 64.225H104.084V69.626H103.303ZM98.3308 71.397V69.318H104.986V71.397H104.249V70H99.0678V71.397H98.3308ZM106.398 70V64.225H107.179V66.777H110.82V64.225H111.601V70H110.82V67.448H107.179V70H106.398ZM116.087 70.055C115.529 70.055 115.027 69.9303 114.58 69.681C114.14 69.4243 113.791 69.076 113.535 68.636C113.278 68.1887 113.15 67.679 113.15 67.107C113.15 66.5277 113.278 66.018 113.535 65.578C113.791 65.138 114.14 64.7933 114.58 64.544C115.02 64.2947 115.522 64.17 116.087 64.17C116.659 64.17 117.165 64.2947 117.605 64.544C118.052 64.7933 118.4 65.138 118.65 65.578C118.906 66.018 119.035 66.5277 119.035 67.107C119.035 67.679 118.906 68.1887 118.65 68.636C118.4 69.076 118.052 69.4243 117.605 69.681C117.157 69.9303 116.651 70.055 116.087 70.055ZM116.087 69.362C116.505 69.362 116.875 69.2703 117.198 69.087C117.52 68.8963 117.773 68.6323 117.957 68.295C118.147 67.9503 118.243 67.5543 118.243 67.107C118.243 66.6523 118.147 66.2563 117.957 65.919C117.773 65.5817 117.52 65.3213 117.198 65.138C116.875 64.9473 116.508 64.852 116.098 64.852C115.687 64.852 115.32 64.9473 114.998 65.138C114.675 65.3213 114.418 65.5817 114.228 65.919C114.037 66.2563 113.942 66.6523 113.942 67.107C113.942 67.5543 114.037 67.9503 114.228 68.295C114.418 68.6323 114.675 68.8963 114.998 69.087C115.32 69.2703 115.683 69.362 116.087 69.362ZM124.522 69.626V64.907H121.739L121.673 66.194C121.658 66.5827 121.632 66.964 121.596 67.338C121.566 67.712 121.511 68.0567 121.431 68.372C121.357 68.68 121.251 68.933 121.112 69.131C120.972 69.3217 120.793 69.4317 120.573 69.461L119.792 69.318C120.019 69.3253 120.206 69.2447 120.353 69.076C120.499 68.9 120.613 68.6617 120.694 68.361C120.774 68.0603 120.833 67.7193 120.87 67.338C120.906 66.9493 120.936 66.5533 120.958 66.15L121.035 64.225H125.303V69.626H124.522ZM119.55 71.397V69.318H126.205V71.397H125.468V70H120.287V71.397H119.55ZM127.716 72.189C127.444 72.189 127.184 72.145 126.935 72.057C126.693 71.969 126.484 71.837 126.308 71.661L126.671 71.078C126.817 71.2173 126.975 71.3237 127.144 71.397C127.32 71.4777 127.514 71.518 127.727 71.518C127.983 71.518 128.203 71.4447 128.387 71.298C128.577 71.1587 128.757 70.9093 128.926 70.55L129.3 69.703L129.388 69.582L131.764 64.225H132.534L129.641 70.693C129.479 71.067 129.3 71.364 129.102 71.584C128.911 71.804 128.702 71.958 128.475 72.046C128.247 72.1413 127.994 72.189 127.716 72.189ZM129.256 70.165L126.594 64.225H127.408L129.762 69.527L129.256 70.165ZM133.64 70V64.225H134.432L137.05 68.658H136.72L139.382 64.225H140.108V70H139.393V65.116L139.536 65.182L137.05 69.296H136.698L134.19 65.138L134.355 65.105V70H133.64ZM142.221 70V64.225H143.002V69.318H146.533V64.225H147.314V70H142.221ZM147.512 71.397V69.934L147.71 70H146.533V69.318H148.249V71.397H147.512ZM153.359 70V67.921L153.502 68.086H151.544C150.804 68.086 150.224 67.9247 149.806 67.602C149.388 67.2793 149.179 66.81 149.179 66.194C149.179 65.534 149.403 65.0427 149.85 64.72C150.298 64.39 150.895 64.225 151.643 64.225H154.074V70H153.359ZM149.135 70L150.719 67.778H151.533L149.982 70H149.135ZM153.359 67.69V64.676L153.502 64.907H151.665C151.13 64.907 150.712 65.0097 150.411 65.215C150.118 65.4203 149.971 65.754 149.971 66.216C149.971 67.074 150.518 67.503 151.61 67.503H153.502L153.359 67.69ZM156.191 70V64.225H156.983L159.601 68.658H159.271L161.933 64.225H162.659V70H161.944V65.116L162.087 65.182L159.601 69.296H159.249L156.741 65.138L156.906 65.105V70H156.191ZM164.772 70V64.225H165.553V68.812L169.414 64.225H170.107V70H169.326V65.402L165.476 70H164.772Z" fill="white"/>
<g filter="url(#filter0_d_2_35)">
<path d="M250 17C232.708 17 220 29.9651 220 46.9115C220 63.8579 232.708 76.8231 250 76.8231C267.292 76.8231 280 63.8579 280 46.9115C280 29.9651 267.284 17 250 17ZM266.601 63.9464C264.423 66.1182 261.83 67.8286 258.976 68.9756C256.122 70.1226 253.067 70.6825 249.992 70.622C246.917 70.6825 243.861 70.1226 241.008 68.9756C238.154 67.8286 235.561 66.1182 233.383 63.9464C229.193 59.6274 226.885 53.5952 226.885 46.9115C226.885 40.2279 229.193 34.1716 233.391 29.8686C235.569 27.6969 238.162 25.9864 241.016 24.8394C243.87 23.6924 246.925 23.1325 250 23.193C253.074 23.1336 256.128 23.694 258.98 24.841C261.832 25.9879 264.424 27.6979 266.601 29.8686C270.799 34.1716 273.083 40.2279 273.083 46.9115C273.083 53.5952 270.799 59.6274 266.601 63.9464Z" fill="#B1B3B3"/>
<path fill-rule="evenodd" clip-rule="evenodd" d="M236.31 51.8972C236.915 52.7386 237.453 53.626 237.919 54.5514C238.943 54.3557 239.945 54.0593 240.911 53.6666C240.262 54.5781 239.484 55.3909 238.603 56.0795C238.991 57.1636 239.193 58.3059 239.198 59.4575C238.661 58.6246 237.974 57.8991 237.171 57.3181C236.248 58.0799 235.235 58.7255 234.155 59.2404C234.725 58.3363 235.225 57.3898 235.651 56.4093C234.741 55.9341 233.794 55.5333 232.82 55.2109C233.68 55.1305 235.168 55.0581 236.125 54.865C236.367 53.9063 236.433 52.9115 236.318 51.9294L236.31 51.8972Z" fill="#B1B3B3"/>
<path fill-rule="evenodd" clip-rule="evenodd" d="M233.256 39.9533C233.863 40.7931 234.401 41.6807 234.865 42.6075C235.883 42.4101 236.88 42.1138 237.841 41.7228C237.193 42.6356 236.415 43.4485 235.532 44.1356C235.925 45.2215 236.129 46.3668 236.135 47.5217C235.597 46.6898 234.91 45.9645 234.109 45.3823C233.185 46.1436 232.172 46.7891 231.093 47.3045C231.662 46.403 232.163 45.4593 232.589 44.4815C231.68 44.0017 230.733 43.5982 229.757 43.275C230.61 43.1946 232.106 43.1303 233.063 42.9292C233.307 41.9708 233.373 40.9756 233.256 39.9935V39.9533Z" fill="#B1B3B3"/>
<path fill-rule="evenodd" clip-rule="evenodd" d="M239.802 29.1937C240.408 30.0338 240.946 30.9214 241.411 31.8478C242.429 31.651 243.426 31.3547 244.386 30.9631C243.738 31.8753 242.961 32.6881 242.078 33.376C242.468 34.4598 242.669 35.6023 242.673 36.754C242.135 35.9221 241.448 35.1968 240.646 34.6146C239.724 35.3767 238.711 36.0223 237.63 36.5368C238.202 35.6362 238.702 34.6923 239.126 33.7138C238.218 33.2337 237.271 32.8302 236.295 32.5073C237.156 32.4269 238.644 32.3545 239.601 32.1615C239.845 31.2031 239.911 30.2079 239.794 29.2258L239.802 29.1937Z" fill="#B1B3B3"/>
<path fill-rule="evenodd" clip-rule="evenodd" d="M252.469 26.2948C253.072 27.1372 253.61 28.0245 254.078 28.949C255.097 28.7563 256.093 28.4627 257.054 28.0723C256.405 28.984 255.628 29.7968 254.745 30.4852C255.135 31.5689 255.337 32.7114 255.341 33.8632C254.804 33.0299 254.117 32.3043 253.314 31.7238C252.391 32.485 251.378 33.1305 250.298 33.646C250.869 32.745 251.369 31.8012 251.794 30.823C250.883 30.3281 249.934 29.9084 248.955 29.5683C249.815 29.4879 251.303 29.4235 252.26 29.2305C252.5 28.2713 252.562 27.2765 252.445 26.2948H252.469Z" fill="#B1B3B3"/>
<path fill-rule="evenodd" clip-rule="evenodd" d="M261.984 33.1654C262.59 34.0054 263.128 34.893 263.592 35.8195C264.614 35.6233 265.613 35.327 266.576 34.9348C265.927 35.8464 265.15 36.6591 264.268 37.3477C264.659 38.4313 264.863 39.5736 264.871 40.7257C264.333 39.8938 263.646 39.1685 262.844 38.5863C261.921 39.3482 260.909 39.9938 259.828 40.5085C260.4 39.6082 260.9 38.6643 261.324 37.6855C260.415 37.2083 259.468 36.8075 258.493 36.4871C259.346 36.4067 260.842 36.3423 261.799 36.1412C262.041 35.1825 262.106 34.1877 261.992 33.2056L261.984 33.1654Z" fill="#B1B3B3"/>
<path fill-rule="evenodd" clip-rule="evenodd" d="M263.431 46.0101C264.038 46.8494 264.576 47.7371 265.039 48.6642C266.061 48.4721 267.06 48.1784 268.023 47.7876C267.369 48.6857 266.589 49.4848 265.707 50.1602C266.099 51.2464 266.303 52.3915 266.31 53.5463C265.77 52.7108 265.08 51.9827 264.275 51.3988C263.353 52.1618 262.34 52.8074 261.259 53.3211C261.829 52.4196 262.329 51.4758 262.755 50.498C261.846 50.0189 260.899 49.6154 259.924 49.2916C260.776 49.2112 262.272 49.1468 263.222 48.9457C263.47 47.9881 263.541 46.9932 263.431 46.0101Z" fill="#B1B3B3"/>
<path fill-rule="evenodd" clip-rule="evenodd" d="M249.267 48.4309C251.415 50.9886 253.892 55.7339 255.919 59.3612C259.635 58.8304 263.962 57.3022 268.192 55.7339C266.286 58.6454 262.643 62.3612 258.669 65.5221C259.45 68.0157 260.105 70.547 260.632 73.1065C259.448 73.5826 258.234 73.9776 256.996 74.2888C255.715 72.9297 254.298 71.706 252.766 70.6374C251.342 71.7473 249.155 73.4122 246.806 74.9805C245.488 74.8338 244.182 74.5946 242.897 74.2647C244.241 71.8778 245.457 69.4213 246.541 66.9055C242.79 64.9405 238.888 63.281 234.87 61.943C238.401 61.6052 244.522 61.3398 248.495 60.5435C249.573 56.9725 249.669 52.1307 249.299 48.4309H249.267Z" fill="#B1B3B3"/>
</g>
</g>
<defs>
<filter id="filter0_d_2_35" x="212" y="11" width="80" height="79.8231" filterUnits="userSpaceOnUse" color-interpolation-filters="sRGB">
<feFlood flood-opacity="0" result="BackgroundImageFix"/>
<feColorMatrix in="SourceAlpha" type="matrix" values="0 0 0 0 0 0 0 0 0 0 0 0 0 0 0 0 0 0 127 0" result="hardAlpha"/>
<feOffset dx="2" dy="4"/>
<feGaussianBlur stdDeviation="5"/>
<feComposite in2="hardAlpha" operator="out"/>
<feColorMatrix type="matrix" values="0 0 0 0 0 0 0 0 0 0 0 0 0 0 0 0 0 0 0.47 0"/>
<feBlend mode="normal" in2="BackgroundImageFix" result="effect1_dropShadow_2_35"/>
<feBlend mode="normal" in="SourceGraphic" in2="effect1_dropShadow_2_35" result="shape"/>
</filter>
<linearGradient id="paint0_linear_2_35" x1="461.059" y1="93" x2="441.241" y2="-102.775" gradientUnits="userSpaceOnUse">
<stop stop-color="#0D0D0D"/>
<stop offset="1" stop-color="#272121"/>
</linearGradient>
<linearGradient id="paint1_linear_2_35" x1="461.059" y1="93.4884" x2="418.26" y2="-192.501" gradientUnits="userSpaceOnUse">
<stop stop-color="#2C2A2A"/>
<stop offset="1" stop-color="#2E2525" stop-opacity="0"/>
</linearGradient>
<linearGradient id="paint2_linear_2_35" x1="192.16" y1="0.892767" x2="302.05" y2="132.275" gradientUnits="userSpaceOnUse">
<stop stop-color="#3A3535"/>
<stop offset="1" stop-color="#636363"/>
</linearGradient>
<clipPath id="clip0_2_35">
<rect width="300" height="93" rx="5" fill="white"/>
</clipPath>
</defs>
</svg>
