<svg width="20" height="20" viewBox="0 0 20 20" fill="none" xmlns="http://www.w3.org/2000/svg">
<path d="M17.9982 9.21997C17.8979 9.14427 17.7819 9.09209 17.6587 9.06728C17.5355 9.04247 17.4083 9.04567 17.2866 9.07664C17.0846 9.13307 16.8762 9.16331 16.6666 9.16664C15.2882 9.16664 14.1666 8.04497 14.1641 6.71831C14.1682 6.68997 14.1774 6.60664 14.1782 6.57831C14.1837 6.44803 14.1584 6.31829 14.1045 6.19958C14.0505 6.08087 13.9694 5.9765 13.8677 5.8949C13.766 5.81331 13.6465 5.75677 13.5189 5.72986C13.3914 5.70295 13.2592 5.70641 13.1332 5.73997C12.927 5.79808 12.7141 5.82945 12.4999 5.83331C11.1216 5.83331 9.9999 4.71164 9.9999 3.33331C9.9999 3.15247 10.0257 2.96331 10.0824 2.73664C10.1145 2.60726 10.1151 2.47207 10.0841 2.34242C10.0531 2.21277 9.99147 2.09244 9.90436 1.99154C9.81725 1.89064 9.70721 1.81211 9.58348 1.76253C9.45974 1.71296 9.32591 1.69379 9.19323 1.70664C7.12945 1.89899 5.21242 2.85686 3.81944 4.39173C2.42647 5.92659 1.65846 7.92727 1.66657 9.99997C1.66657 14.595 5.4049 18.3333 9.9999 18.3333C14.5949 18.3333 18.3332 14.595 18.3332 9.99997C18.3332 9.95914 18.3307 9.91914 18.3274 9.86664C18.3246 9.74105 18.2936 9.61771 18.2366 9.50576C18.1796 9.39382 18.0981 9.29614 17.9982 9.21997ZM7.08323 4.99997C7.41475 4.99997 7.7327 5.13167 7.96712 5.36609C8.20154 5.60051 8.33323 5.91845 8.33323 6.24997C8.33323 6.58149 8.20154 6.89944 7.96712 7.13386C7.7327 7.36828 7.41475 7.49997 7.08323 7.49997C6.75171 7.49997 6.43377 7.36828 6.19935 7.13386C5.96493 6.89944 5.83323 6.58149 5.83323 6.24997C5.83323 5.91845 5.96493 5.60051 6.19935 5.36609C6.43377 5.13167 6.75171 4.99997 7.08323 4.99997ZM5.41657 11.6666C5.25242 11.6666 5.08987 11.6343 4.93821 11.5715C4.78656 11.5087 4.64876 11.4166 4.53268 11.3005C4.41661 11.1845 4.32454 11.0467 4.26172 10.895C4.1989 10.7433 4.16657 10.5808 4.16657 10.4166C4.16657 10.2525 4.1989 10.0899 4.26172 9.93828C4.32454 9.78663 4.41661 9.64883 4.53268 9.53276C4.64876 9.41668 4.78656 9.32461 4.93821 9.26179C5.08987 9.19897 5.25242 9.16664 5.41657 9.16664C5.74809 9.16664 6.06603 9.29834 6.30045 9.53276C6.53487 9.76718 6.66657 10.0851 6.66657 10.4166C6.66657 10.7482 6.53487 11.0661 6.30045 11.3005C6.06603 11.5349 5.74809 11.6666 5.41657 11.6666ZM7.91657 15C7.58505 15 7.2671 14.8683 7.03268 14.6339C6.79826 14.3994 6.66657 14.0815 6.66657 13.75C6.66657 13.4185 6.79826 13.1005 7.03268 12.8661C7.2671 12.6317 7.58505 12.5 7.91657 12.5C8.24809 12.5 8.56603 12.6317 8.80045 12.8661C9.03487 13.1005 9.16657 13.4185 9.16657 13.75C9.16657 14.0815 9.03487 14.3994 8.80045 14.6339C8.56603 14.8683 8.24809 15 7.91657 15ZM9.9999 9.58331C9.9999 9.25179 10.1316 8.93384 10.366 8.69942C10.6004 8.465 10.9184 8.33331 11.2499 8.33331C11.5814 8.33331 11.8994 8.465 12.1338 8.69942C12.3682 8.93384 12.4999 9.25179 12.4999 9.58331C12.4999 9.91483 12.3682 10.2328 12.1338 10.4672C11.8994 10.7016 11.5814 10.8333 11.2499 10.8333C10.9184 10.8333 10.6004 10.7016 10.366 10.4672C10.1316 10.2328 9.9999 9.91483 9.9999 9.58331ZM12.9166 15C12.585 15 12.2671 14.8683 12.0327 14.6339C11.7983 14.3994 11.6666 14.0815 11.6666 13.75C11.6666 13.4185 11.7983 13.1005 12.0327 12.8661C12.2671 12.6317 12.585 12.5 12.9166 12.5C13.2481 12.5 13.566 12.6317 13.8005 12.8661C14.0349 13.1005 14.1666 13.4185 14.1666 13.75C14.1666 14.0815 14.0349 14.3994 13.8005 14.6339C13.566 14.8683 13.2481 15 12.9166 15Z" fill="#5F5F5F"/>
</svg>
