<svg width="88" height="60" viewBox="0 0 88 60" fill="none" xmlns="http://www.w3.org/2000/svg">
<g clip-path="url(#clip0_1997_219)">
<path d="M80.6667 0.281006H7.33333C5.38841 0.281006 3.52315 1.0632 2.14788 2.45551C0.772617 3.84783 0 5.73621 0 7.70524L0 52.2507C0 54.2197 0.772617 56.1081 2.14788 57.5004C3.52315 58.8927 5.38841 59.6749 7.33333 59.6749H80.6667C82.6116 59.6749 84.4769 58.8927 85.8521 57.5004C87.2274 56.1081 88 54.2197 88 52.2507V7.70524C88 5.73621 87.2274 3.84783 85.8521 2.45551C84.4769 1.0632 82.6116 0.281006 80.6667 0.281006Z" fill="black"/>
<path d="M75.312 19.0385C75.0933 19.1768 74.8603 19.2464 74.6139 19.2464H67.8379V23.0713H74.6139C74.8614 23.0716 75.1037 23.1438 75.312 23.2792C75.5584 23.4175 75.6816 23.6814 75.6816 24.0691H76.4208V18.2485H75.6808C75.6808 18.6363 75.5584 18.9002 75.312 19.0385Z" fill="white"/>
<path d="M41.6326 7.5451C41.6302 7.50224 41.6693 7.27736 41.7528 6.9595C41.7955 6.80066 41.8494 6.61638 41.915 6.42089C41.9322 6.37298 41.9495 6.32332 41.967 6.2719C41.9844 6.22224 42.0019 6.17082 42.0194 6.1194C42.0562 6.01675 42.0949 5.91252 42.1389 5.80707C42.3113 5.38666 42.5332 4.95899 42.8142 4.61381C43.0952 4.26863 43.4335 4.00752 43.84 3.92568C44.2447 3.84367 44.6888 3.95035 45.1377 4.17821C45.5848 4.4059 46.0386 4.7532 46.4595 5.14854C46.5657 5.24659 46.6679 5.34954 46.7684 5.45232C46.8689 5.5551 46.969 5.66138 47.0605 5.76678C47.2453 5.97774 47.4175 6.19271 47.5751 6.39729C47.8885 6.80803 48.1343 7.18333 48.2809 7.44356C48.3176 7.50774 48.3405 7.58822 48.3514 7.68343C48.3606 7.77845 48.3563 7.88627 48.3422 8.00549C48.3138 8.24391 48.2423 8.52931 48.1406 8.83817C48.0387 9.14879 47.9083 9.48306 47.7578 9.82588C47.7211 9.9108 47.6809 9.99712 47.6389 10.0833C47.5969 10.1694 47.5549 10.2555 47.5127 10.3434C47.427 10.5155 47.3376 10.689 47.2486 10.859C47.069 11.1988 46.8852 11.5275 46.7113 11.8288C46.667 11.904 46.6245 11.9777 46.5823 12.0496C46.5612 12.0847 46.54 12.1215 46.519 12.1566C46.498 12.1917 46.4752 12.2266 46.4543 12.2599C46.3708 12.395 46.2898 12.5214 46.2151 12.6378C45.9165 13.1019 45.7137 13.3967 45.7137 13.3967L45.2304 12.6327L44.9884 12.2543C44.9059 12.1285 44.8201 12.0024 44.7374 11.8785C44.4021 11.3785 44.0662 10.8837 43.7313 10.3962C43.6891 10.335 43.6485 10.274 43.6044 10.2143L43.476 10.0288L43.215 9.66609L42.6937 8.94968L42.4337 8.5942L42.3044 8.41743C42.262 8.35798 42.2176 8.3001 42.1733 8.24223L41.6326 7.5451Z" fill="#6E1D99"/>
<path d="M43.2002 4.8165C43.3095 4.70188 43.4419 4.59856 43.61 4.53622C43.9369 4.41769 44.3245 4.48298 44.5535 4.60271C44.8683 4.76689 45.1321 4.97012 45.364 5.19489C45.4793 5.3063 45.5869 5.42402 45.6874 5.54278C45.788 5.66154 45.8847 5.78345 45.9708 5.90779C46.1635 6.17637 46.334 6.45685 46.4848 6.74413C46.6137 6.9901 46.7188 7.26551 46.8376 7.52638C46.7857 7.45708 46.6569 7.47559 46.474 7.563C46.2894 7.65024 46.0507 7.80637 45.7705 8.01141C45.2081 8.42131 44.4955 9.02319 43.7986 9.65688C43.6239 9.81614 43.4507 9.97733 43.2811 10.1371C43.1944 10.2186 43.1096 10.2985 43.0265 10.3786C42.9418 10.4585 42.8587 10.5385 42.7756 10.6186C42.4469 10.9375 42.1417 11.2482 41.8826 11.5336C41.6233 11.8207 41.4099 12.0842 41.2631 12.3085C41.1905 12.4216 41.1293 12.5252 41.0902 12.617C41.051 12.7088 41.0304 12.79 41.0319 12.8594C41.0293 12.7668 41.0251 12.6741 41.0192 12.5812C41.015 12.4885 41.0088 12.3973 40.9975 12.3056C40.9801 12.1228 40.9591 11.9413 40.9434 11.7586C40.9103 11.3931 40.8911 11.0273 40.9236 10.649C40.9344 10.5295 40.9455 10.4064 40.9569 10.2798C40.968 10.1567 40.9828 10.0322 40.9992 9.90793C41.0321 9.65933 41.0738 9.40987 41.1261 9.15798C41.1784 8.90608 41.243 8.65369 41.3198 8.40079C41.3895 8.14893 41.4716 7.89482 41.5658 7.64196C41.7224 7.22345 41.9082 6.808 42.1339 6.39316C42.1618 6.34281 42.1915 6.2909 42.2197 6.23704C42.2477 6.18495 42.2775 6.13303 42.3055 6.08093C42.365 5.97709 42.4262 5.87344 42.4908 5.77014C42.6201 5.56354 42.7599 5.35627 42.9138 5.14692C42.9859 5.05505 43.0988 4.92305 43.2002 4.8165Z" fill="#5D0B89"/>
<path d="M53.1811 9.81827C53.1626 9.9459 53.1425 10.0716 53.1192 10.1952C53.0724 10.4441 53.0139 10.6883 52.9474 10.9262C52.6883 11.8772 52.238 12.746 51.7223 13.5246C51.5924 13.7205 51.4581 13.9088 51.319 14.0931C51.2503 14.1853 51.1766 14.2753 51.1046 14.3654C51.031 14.4553 50.9575 14.5435 50.8825 14.6297C50.5837 14.9784 50.2732 15.3063 49.9613 15.6145C49.9594 15.6161 49.9575 15.6177 49.9556 15.6193L49.9324 15.6417C49.8706 15.7009 49.8106 15.7603 49.7488 15.8195L49.7294 15.8388C49.6948 15.8707 49.6602 15.9026 49.6237 15.9361C49.5623 15.9918 49.5024 16.0494 49.4423 16.1088L49.4402 16.1122C49.3279 16.2229 49.2221 16.3379 49.1159 16.4564C49.0097 16.5748 48.9083 16.6974 48.8099 16.8238C48.6135 17.0748 48.4346 17.3402 48.2701 17.6176C48.1058 17.8933 47.9559 18.1812 47.8192 18.4758C47.6773 18.7698 47.545 19.0719 47.4278 19.3792C47.1882 19.9931 47.0091 20.6276 46.8372 21.2593C46.7538 21.5754 46.6812 21.889 46.6155 22.2017C46.5836 22.3581 46.5535 22.5129 46.5254 22.6662C46.4955 22.8192 46.4639 22.9721 46.4361 23.1219C46.3492 23.5885 46.2796 24.0391 46.2248 24.4647C46.2119 24.5716 46.1994 24.675 46.1868 24.7784C46.1726 24.8817 46.1587 24.9814 46.1466 25.0813C46.1207 25.2791 46.0992 25.4686 46.0786 25.6493L46.0005 26.3812C45.9733 26.6251 45.9513 26.8695 45.9155 27.1125C45.8491 27.599 45.7845 28.0856 45.7182 28.5704L45.6681 28.9343C45.6503 29.0549 45.6289 29.1769 45.6094 29.2974L45.4902 30.0233L45.371 30.7492L45.3417 30.9307C45.3318 30.9918 45.3222 31.0511 45.3089 31.1119L45.2398 31.4738C45.1461 31.9557 45.0524 32.4376 44.9604 32.9196L44.9259 33.1006L44.8862 33.281L44.807 33.6402L44.647 34.3583L44.485 35.078L44.4652 35.1682L44.4419 35.258L44.3973 35.4362L44.308 35.7925C44.2404 36.057 44.1728 36.3215 44.1055 36.5843C44.0874 36.6569 44.0694 36.7296 44.0499 36.8003C44.0203 36.9179 43.9908 37.0338 43.9611 37.1514C44.0223 36.4815 44.0536 35.8654 44.0612 35.2929C44.0624 35.2149 44.0634 35.1387 44.0629 35.0605C44.072 35.0224 44.0831 34.9828 44.0906 34.9445L44.2632 34.2224L44.4295 33.528L44.4361 33.4985C44.4925 33.2577 44.5539 33.0192 44.6017 32.7775L44.6018 32.7757L44.9081 31.3221C44.9081 31.3221 44.9328 31.2022 44.9442 31.143C44.9554 31.0856 44.9664 31.03 44.9774 30.9743C44.9867 30.9185 44.996 30.8627 45.0071 30.807C45.0257 30.6954 45.0458 30.5857 45.064 30.4775C45.1022 30.2614 45.14 30.0489 45.1773 29.8415C45.2146 29.6342 45.2513 29.4322 45.2874 29.2354C45.3046 29.1378 45.3234 29.0403 45.3406 28.9427C45.3575 28.8469 45.371 28.7507 45.3861 28.6564C45.4444 28.2809 45.4991 27.9227 45.5465 27.5851C45.5711 27.4155 45.5935 27.251 45.6153 27.0918C45.6255 27.0112 45.6354 26.9324 45.6452 26.8553C45.6513 26.7974 45.6573 26.7394 45.6634 26.6815C45.6654 26.6622 45.6674 26.6429 45.6692 26.6253C45.6685 26.6323 45.6697 26.6378 45.6691 26.6431C45.6709 26.6095 45.6794 26.4276 45.7098 26.0527C45.7243 25.8643 45.7454 25.6287 45.7724 25.3369C45.7858 25.191 45.8025 25.0312 45.8188 24.8589C45.8233 24.8151 45.8279 24.7712 45.8327 24.7255C45.8357 24.6797 45.8388 24.6338 45.8437 24.5864C45.8502 24.4913 45.8585 24.3945 45.8674 24.2925C45.8709 24.2592 45.8727 24.2256 45.8763 24.1905C45.8807 24.1324 45.8871 24.0709 45.8933 24.0112L45.8935 24.0095C45.9112 23.8232 45.9351 23.6269 45.9613 23.4255C45.9789 23.2907 45.9968 23.1523 46.0164 23.0142C46.0272 22.9443 46.0362 22.8743 46.0468 22.8061C46.0576 22.7363 46.0683 22.6664 46.0757 22.5962C46.1461 22.0373 46.2285 21.4815 46.3007 21.0223C46.3243 20.8792 46.3481 20.7343 46.3752 20.5916C46.3988 20.4486 46.4241 20.3057 46.4529 20.1631C46.53 19.7736 46.628 19.3845 46.7511 19.0033C46.8127 18.8127 46.8827 18.6248 46.9542 18.4388C47.0241 18.2526 47.1006 18.0689 47.1855 17.8878C47.2456 17.761 47.3092 17.6345 47.3761 17.5102C47.505 17.2734 47.6474 17.0415 47.7931 16.81C47.8644 16.6932 47.9374 16.5766 48.0102 16.4617C48.0458 16.4033 48.0815 16.3449 48.1137 16.2861C48.1476 16.2275 48.1815 16.169 48.2139 16.1084C48.2309 16.0783 48.248 16.0481 48.2633 16.0178C48.3237 15.9051 48.3826 15.7906 48.4382 15.6739C48.4663 15.6378 48.4982 15.5985 48.5301 15.5593C48.6343 15.4264 48.7546 15.2721 48.871 15.089C48.9958 14.8926 49.1305 14.667 49.2703 14.4101C49.3047 14.3462 49.3411 14.2808 49.3761 14.2117C49.4092 14.1441 49.4444 14.0733 49.4796 14.0024C49.5485 13.8587 49.6183 13.7062 49.6888 13.5468C49.8299 13.226 49.9729 12.8718 50.1144 12.4819C50.1506 12.3845 50.1853 12.2852 50.2203 12.1823C50.2554 12.0795 50.2922 11.9768 50.3224 11.87C50.3881 11.6567 50.4511 11.4361 50.5136 11.203C50.604 10.8699 50.6701 10.536 50.7131 10.2068C50.7355 10.0423 50.751 9.87711 50.7629 9.71329C50.7711 9.55086 50.7741 9.38965 50.7716 9.22966C50.7693 9.05193 50.7615 8.87718 50.7464 8.70522C50.7118 8.25434 50.6408 7.81919 50.5391 7.41101C50.6814 6.29704 50.8637 5.54931 51.044 5.05341C51.2175 4.55679 51.3977 4.31114 51.5474 4.19187C51.6951 4.07593 51.9038 4.12433 52.0021 4.29787C52.0886 4.45067 52.1701 4.60293 52.248 4.75483C52.2869 4.83166 52.3243 4.90655 52.36 4.98126C52.3954 5.05773 52.4293 5.13227 52.4614 5.20838C52.5916 5.50949 52.7063 5.80899 52.8042 6.10318C52.902 6.39737 52.9846 6.68819 53.0504 6.97371C53.0673 7.0447 53.0824 7.11726 53.0976 7.18806C53.1111 7.25869 53.1226 7.33089 53.1344 7.40134C53.1579 7.54224 53.1763 7.68259 53.1929 7.82277C53.2565 8.37961 53.2646 8.91824 53.2264 9.43429C53.2213 9.49943 53.2147 9.56264 53.208 9.62761C53.1977 9.69221 53.1894 9.75524 53.1811 9.81827Z" fill="#9235B4"/>
<path d="M51.5161 4.32472C51.5125 4.32611 51.509 4.32575 51.5054 4.32715C51.4173 4.35524 51.3556 4.46416 51.3059 4.54062C51.2541 4.62041 51.2156 4.70691 51.1786 4.79534C51.1325 4.90412 51.0913 5.0152 51.0536 5.12663C51.014 5.23964 50.9779 5.35301 50.945 5.4685C50.8794 5.69771 50.8289 5.93205 50.7902 6.1694C50.7515 6.40674 50.7266 6.64553 50.7103 6.88521C50.703 7.00514 50.6991 7.12543 50.697 7.24589C50.6959 7.30613 50.6949 7.36636 50.6955 7.42678C50.6944 7.48701 50.6951 7.54742 50.694 7.60766C50.7187 7.43806 50.7414 7.27005 50.7745 7.10311C50.8058 6.93599 50.8423 6.76941 50.8855 6.6053C50.8538 7.42554 50.8458 8.25179 50.9114 9.07153C50.9236 8.67168 50.9514 8.27169 50.9947 7.87331C51.0051 7.77323 51.0173 7.67333 51.031 7.57537C51.0379 7.52639 51.0449 7.47565 51.0517 7.42667C51.0586 7.37769 51.0637 7.32852 51.0707 7.27779C51.0966 7.07992 51.1242 6.88224 51.1569 6.68509C51.2214 6.29958 51.3024 5.9069 51.3845 5.51967C51.4051 5.42243 51.4258 5.32342 51.4466 5.22442L51.4776 5.0768C51.4862 5.02799 51.4965 4.97937 51.5052 4.92881C51.5369 4.75818 51.6186 4.5413 51.5654 4.3689C51.5601 4.35238 51.5534 4.33393 51.5384 4.32705C51.5319 4.32282 51.5232 4.32368 51.5161 4.32472Z" fill="#B55FD2"/>
<path d="M52.902 7.03964C52.9083 7.09532 52.913 7.15083 52.9193 7.20651C52.924 7.26202 52.9269 7.31734 52.9315 7.37285C52.9373 7.4835 52.9432 7.59415 52.9473 7.70462C52.9538 7.92538 52.9536 8.14367 52.9446 8.36282C52.9359 8.58021 52.9185 8.79671 52.8908 9.01213C52.8779 9.11905 52.8614 9.22737 52.8433 9.33376C52.8253 9.44014 52.8055 9.54635 52.7772 9.65165C52.6029 10.3558 52.3608 11.0281 52.0813 11.6752C52.0467 11.7568 52.0106 11.8364 51.9743 11.9178C51.9363 11.999 51.8984 12.0785 51.8589 12.1578C51.7815 12.3166 51.7007 12.475 51.6201 12.6316C51.4571 12.9448 51.291 13.254 51.1221 13.5576C51.2441 13.2704 51.3363 12.9694 51.4001 12.6584C51.4318 12.5037 51.4552 12.3464 51.4717 12.1884C51.4799 12.1094 51.4864 12.0302 51.4895 11.9507C51.4943 11.8713 51.4923 11.7912 51.4917 11.7131C51.4597 11.8038 51.4297 11.8912 51.3963 11.9782C51.3631 12.0635 51.3283 12.1468 51.2937 12.2284C51.2248 12.3898 51.1531 12.5439 51.0804 12.6907C50.9334 12.9842 50.7803 13.2522 50.6139 13.5153C50.5307 13.6468 50.4442 13.7762 50.3558 13.9072C50.3108 13.9717 50.2657 14.038 50.2188 14.1041C50.1963 14.1373 50.172 14.1702 50.1477 14.2032C50.1234 14.2362 50.0989 14.2709 50.0729 14.3037C49.8727 14.5739 49.6588 14.8586 49.4244 15.1731C49.2485 15.4104 49.0339 15.7181 48.8261 16.0283C48.7745 16.1064 48.7229 16.1844 48.6715 16.2607C48.6201 16.337 48.5722 16.4136 48.5211 16.4864C48.4206 16.6339 48.3279 16.7733 48.249 16.8964C48.0252 17.2422 47.8188 17.5721 47.6332 17.9184C47.5405 18.0915 47.4527 18.2669 47.3708 18.4518C47.3597 18.4755 47.3504 18.4976 47.341 18.5215C47.3298 18.5452 47.3204 18.569 47.3094 18.591C47.2888 18.6385 47.2682 18.6861 47.2476 18.7336C47.2064 18.8287 47.1665 18.9275 47.1282 19.0282C46.9748 19.4329 46.8395 19.8802 46.7259 20.4026C46.7121 20.4686 46.6983 20.5346 46.6842 20.6024C46.6702 20.6701 46.6543 20.7394 46.6401 20.809C46.6098 20.9496 46.5826 21.094 46.5548 21.2438C46.5007 21.5452 46.4514 21.8684 46.4063 22.2169C46.3844 21.794 46.409 21.3581 46.4724 20.9175C46.4874 20.8072 46.5075 20.6975 46.5259 20.5876C46.5426 20.4775 46.5629 20.3661 46.5848 20.2565C46.6287 20.0357 46.6812 19.8158 46.7403 19.5983C46.7995 19.3808 46.8671 19.166 46.9397 18.9535C46.9768 18.8474 47.0138 18.7429 47.0542 18.6389C47.0925 18.5382 47.1327 18.4359 47.1731 18.3318C47.3317 17.9277 47.5125 17.5437 47.7049 17.1981C47.8011 17.0254 47.9008 16.853 48.0039 16.6809C48.0545 16.5957 48.1068 16.5106 48.1591 16.4255C48.2097 16.3403 48.2603 16.2551 48.3109 16.1698C48.515 15.829 48.7241 15.4905 48.9318 15.1484C49.0349 14.9763 49.1397 14.8044 49.2412 14.6304C49.292 14.5434 49.343 14.4547 49.3936 14.3695C49.4444 14.2825 49.4936 14.1935 49.5392 14.106C49.7274 13.7511 49.9041 13.3897 50.0648 13.016C50.2771 12.5128 50.4671 11.9913 50.606 11.4591C50.7442 10.95 50.8609 10.4315 50.9624 9.90782C50.9746 9.84164 50.9884 9.77564 51.0003 9.71121C51.0124 9.64503 51.0227 9.58043 51.0331 9.51407C51.0537 9.3831 51.0743 9.25214 51.0934 9.11924C51.1331 8.85537 51.1693 8.59115 51.2056 8.32692C51.2405 8.05901 51.2752 7.79285 51.3097 7.52845C51.3288 7.39555 51.341 7.26193 51.3549 7.12849C51.3688 6.99506 51.3828 6.86162 51.3984 6.72836C51.4565 6.18776 51.519 5.67247 51.6016 5.13087C51.6057 5.10823 51.6101 5.08207 51.6151 5.05064C51.62 5.02098 51.6252 4.98779 51.6323 4.95304C51.6448 4.88335 51.6612 4.80874 51.681 4.73626C51.72 4.5948 51.7712 4.47057 51.834 4.45227C51.9001 4.43432 51.9694 4.46995 52.0236 4.51643C52.1702 4.64354 52.2671 4.83113 52.3543 5.01062C52.4686 5.24795 52.5476 5.50645 52.618 5.76406C52.7413 6.23128 52.8764 6.81866 52.902 7.03964Z" fill="#AB55C7"/>
<path d="M47.6849 15.9165C47.6397 16.0662 47.593 16.2139 47.5397 16.3592C47.6114 16.2212 47.6566 16.0715 47.6849 15.9165Z" fill="#C67ADE"/>
<path d="M44.4671 17.7373C44.0629 17.2975 43.658 16.8648 43.2524 16.4391L43.1755 16.3601L43.0969 16.2809L42.9413 16.1227L42.6303 15.8063C42.4228 15.5965 42.2133 15.39 42.0054 15.1838C41.1842 14.3615 40.3167 13.5664 39.4672 12.798C39.4732 12.5075 39.4652 12.2174 39.4607 11.9276L39.4456 11.0563L39.4389 10.6208C39.4396 10.5481 39.435 10.4749 39.4321 10.4036L39.4235 10.1861L39.3858 9.31428C39.3852 9.12075 39.3717 8.86731 39.3779 8.59108C39.3771 8.31589 39.3977 8.01809 39.4702 7.7399C39.6166 7.18544 39.9799 6.70153 40.8294 6.61977C41.2962 6.57617 41.7387 6.71464 42.146 6.99141C42.5515 7.268 42.922 7.68115 43.247 8.18007C43.5579 8.68107 43.8182 9.26732 44.0211 9.88662C44.1262 10.1958 44.199 10.514 44.2632 10.8313C44.3255 11.1501 44.3723 11.4674 44.4006 11.7792C44.4492 12.2457 44.4678 12.75 44.4915 13.2565C44.5015 13.5096 44.5114 13.7644 44.5198 14.0173C44.522 14.0797 44.524 14.1438 44.5262 14.2061C44.5284 14.2685 44.5305 14.3308 44.5293 14.3928C44.5302 14.5171 44.5294 14.6413 44.5307 14.7621C44.5319 15.2503 44.529 15.7115 44.5262 16.1212C44.5242 16.2239 44.5261 16.3217 44.5214 16.4171C44.5184 16.5126 44.5142 16.6027 44.5102 16.691C44.5026 16.8642 44.4966 17.0215 44.4911 17.1576C44.681 17.3851 44.8418 17.6432 44.9795 17.9221C45.0484 18.0606 45.1115 18.2056 45.1675 18.3517C45.181 18.3886 45.1963 18.4257 45.2081 18.4624C45.2199 18.4991 45.2332 18.5378 45.245 18.5745C45.2685 18.6497 45.2919 18.7249 45.3117 18.8016C45.2597 18.6843 45.1825 18.5574 45.0944 18.4363C45.003 18.3132 44.904 18.1964 44.8105 18.0926C44.6273 17.8835 44.4671 17.7373 44.4671 17.7373Z" fill="#822BAC"/>
<path d="M40.0807 7.01639C40.0276 7.04279 39.9831 7.08607 39.9437 7.12989C39.8212 7.27152 39.7474 7.44663 39.7044 7.62496C39.6398 7.89509 39.6137 8.17813 39.6136 8.4621C39.6147 8.53498 39.6144 8.60417 39.6157 8.6753C39.617 8.74643 39.6184 8.8158 39.6231 8.88729C39.631 9.02832 39.6427 9.16621 39.6563 9.30251C39.6879 9.58269 39.7372 9.85939 39.806 10.1328C39.8403 10.2695 39.8801 10.405 39.9215 10.5407C39.9613 10.6761 40.0046 10.8102 40.0516 10.9429C40.1432 11.1974 40.2493 11.4463 40.3697 11.6914C40.4284 11.8111 40.4893 11.9275 40.5553 12.0444C40.6137 12.1499 40.7177 12.269 40.7545 12.3829C40.5994 11.8875 40.4997 11.3606 40.4584 10.8079C40.7032 11.3588 40.9849 11.8904 41.3013 12.4045C41.6022 12.9186 41.9398 13.4135 42.3107 13.8888C42.1768 13.6228 42.0539 13.3527 41.9402 13.0763C41.8833 12.9391 41.8283 12.8002 41.7751 12.6598C41.722 12.5193 41.6743 12.3777 41.6196 12.2353C41.4132 11.6654 41.2417 11.0777 41.1105 10.4695C40.9674 9.87592 40.852 9.24978 40.7498 8.63034C40.7262 8.47346 40.6941 8.31569 40.6651 8.16003C40.6345 8.00419 40.6057 7.84678 40.575 7.69094C40.5457 7.5388 40.5202 7.3835 40.453 7.24514C40.389 7.1089 40.2842 6.93113 40.0988 7.0094C40.0916 7.0122 40.0862 7.01341 40.0807 7.01639Z" fill="#9235B4"/>
<path d="M43.2314 8.46615C43.1296 8.22657 42.986 8.00393 42.8162 7.79984C42.6461 7.59752 42.448 7.41533 42.2229 7.25696C42.0401 7.12784 41.8382 7.01448 41.6222 6.91919C41.4396 6.83801 41.235 6.78295 41.0392 6.74477C40.9301 6.72451 40.8057 6.70089 40.6953 6.72664C40.5138 6.76804 40.5876 6.92661 40.6547 7.033C40.774 7.22117 40.9557 7.56138 41.0546 7.76337C41.1563 7.97099 41.2499 8.15647 41.336 8.33052C41.3575 8.37359 41.3791 8.41666 41.399 8.45955C41.4188 8.50245 41.4388 8.54359 41.4587 8.58648C41.4986 8.67051 41.5369 8.7526 41.5736 8.83452C41.7249 9.16623 41.8684 9.50601 42.0298 9.95769C42.1521 10.2846 42.271 10.8437 42.3174 11.2319C42.3294 10.9829 42.3175 10.6639 42.2995 10.3373C42.271 10.0112 42.243 9.67998 42.2179 9.40403C42.2684 9.46964 42.3513 9.65756 42.4234 9.86564C42.4596 9.96881 42.4934 10.0771 42.5214 10.1758C42.5353 10.2252 42.546 10.2725 42.5554 10.316C42.563 10.3594 42.5693 10.3991 42.5729 10.4314C42.5917 10.318 42.5984 10.2034 42.5983 10.088C42.5982 9.97262 42.591 9.85828 42.5802 9.74533C42.5553 9.51733 42.5089 9.29595 42.4488 9.08912C42.3887 8.88229 42.3167 8.69019 42.2436 8.5246C42.2054 8.44075 42.17 8.36428 42.1321 8.29466C42.0924 8.22485 42.0555 8.16243 42.0192 8.11072C42.0907 8.17497 42.1743 8.25646 42.2557 8.35902C42.3371 8.46158 42.4216 8.58399 42.4988 8.72694C42.655 9.01124 42.7903 9.38033 42.8417 9.83652C42.8417 9.83652 42.8572 9.67129 42.8394 9.39255C42.8216 9.11381 42.7723 8.71998 42.6443 8.26468C42.7382 8.34725 42.8436 8.47005 42.9076 8.57258C43.0858 8.86273 43.2248 9.16298 43.2921 9.50013C43.3275 9.67775 43.3423 9.85147 43.3467 10.0259C43.3498 10.1132 43.3511 10.2003 43.349 10.287C43.3452 10.3736 43.3412 10.4619 43.3387 10.5522C43.3515 10.463 43.3679 10.3724 43.3843 10.2818C43.4007 10.1912 43.4152 10.1022 43.4299 10.0115C43.4576 9.82977 43.4781 9.6491 43.4695 9.46539C43.4443 9.10778 43.3659 8.77658 43.2314 8.46615Z" fill="#9336B6"/>
<path d="M50.515 11.2951C50.4527 11.5264 50.3878 11.7486 50.324 11.9603C50.2549 12.1731 50.1832 12.3769 50.1125 12.5718C49.9711 12.9617 49.8281 13.316 49.6869 13.6367C49.6164 13.7962 49.5466 13.9486 49.4778 14.0923C49.4441 14.1651 49.4091 14.2343 49.3726 14.3014C49.3377 14.3688 49.3012 14.436 49.2667 14.4998C49.127 14.7568 48.9924 14.9806 48.8677 15.177C48.6972 15.445 48.5426 15.6614 48.4139 15.829C48.1586 16.1609 47.9992 16.3058 47.9992 16.3058L47.9431 16.078L47.8193 15.5824L47.5749 14.6268L47.5145 14.3898C47.4949 14.3114 47.4755 14.2313 47.4524 14.1526L47.3193 13.679L47.0546 12.7356L46.9229 12.2657L46.89 12.1486C46.8783 12.1102 46.8669 12.0699 46.8536 12.0313L46.7806 11.7982C46.5921 11.1893 46.4051 10.5841 46.2142 9.98201L45.6036 8.18959C45.6036 8.18959 45.6477 8.05042 45.7234 7.80806C45.8087 7.54008 45.9374 7.15593 46.1046 6.73499C46.1873 6.52531 46.2797 6.30599 46.3788 6.08915C46.4283 5.98072 46.4813 5.87266 46.5341 5.76635C46.5604 5.71407 46.5867 5.66179 46.6149 5.60794C46.6412 5.55566 46.6693 5.50357 46.6971 5.45323C47.0347 4.83175 47.4422 4.32405 47.8985 4.24741C48.3212 4.17615 48.846 4.47583 49.342 5.05116C49.404 5.1233 49.4656 5.19895 49.5249 5.27968C49.586 5.3606 49.6415 5.44449 49.6982 5.53382C49.8118 5.71074 49.9203 5.9031 50.022 6.11072C50.2256 6.52421 50.406 6.99384 50.5405 7.50307C50.678 8.06762 50.7615 8.68333 50.7711 9.32329C50.7715 9.4032 50.7718 9.48311 50.7703 9.56459C50.7687 9.64607 50.7674 9.7258 50.7605 9.8085C50.7486 9.97232 50.7316 10.1356 50.7109 10.3003C50.6698 10.6279 50.6054 10.962 50.515 11.2951Z" fill="#822BAC"/>
<path d="M49.9969 6.43152C49.8327 6.08959 49.6393 5.76235 49.4212 5.45385C49.3701 5.37752 49.0966 5.05082 48.8172 4.79803C48.5378 4.54524 48.2487 4.36777 48.1574 4.57655C48.1232 4.65463 48.1419 4.74178 48.1614 4.8219C48.2493 5.1612 48.3878 5.4827 48.5227 5.8056C48.661 6.12886 48.8119 6.4481 48.9357 6.77695C49.0011 6.94884 49.0632 7.12037 49.1231 7.29524C49.1523 7.38171 49.1814 7.46993 49.2087 7.55797C49.236 7.64601 49.2596 7.73545 49.2835 7.82314C49.3784 8.17914 49.459 8.53898 49.5168 8.90175C49.5421 9.0588 49.5677 9.23008 49.5906 9.40996C49.6118 9.58966 49.6325 9.77463 49.6339 9.96114C49.6403 10.3328 49.6083 10.7057 49.4928 11.0131C49.5723 10.8013 49.6435 10.5851 49.7063 10.3663C49.7386 10.256 49.7675 10.1455 49.7949 10.033C49.8094 9.97767 49.8223 9.92045 49.835 9.86498C49.8478 9.80952 49.8607 9.7523 49.87 9.69647C49.9534 9.24725 50.0044 8.79111 50.0215 8.34385C50.0944 8.54491 50.1666 8.81868 50.1948 9.03106C50.2225 9.23273 50.2371 9.42594 50.2453 9.61316C50.2474 9.65953 50.2494 9.70765 50.2498 9.75384C50.2502 9.80003 50.2486 9.84779 50.2473 9.8938C50.2445 9.98757 50.2401 10.0794 50.234 10.1711C50.211 10.5414 50.1604 10.9106 50.1028 11.3128C50.072 11.5244 50.0156 11.7315 49.9459 11.9336C49.8744 12.1356 49.7877 12.3342 49.7044 12.5332C49.947 11.9728 50.2636 11.4698 50.4284 10.8729C50.5862 10.293 50.6653 9.70135 50.6423 9.10614C50.628 8.64318 50.5683 8.18259 50.4642 7.73156C50.451 7.67516 50.4378 7.61876 50.4226 7.56393C50.4151 7.53652 50.4075 7.50911 50.4001 7.47994C50.3925 7.45253 50.3833 7.42494 50.3757 7.39752C50.342 7.28751 50.3049 7.17715 50.2658 7.06836C50.1876 6.85253 50.0969 6.63896 49.9969 6.43152Z" fill="#9235B4"/>
<path d="M48.0169 5.06528C48.0958 5.22439 48.1695 5.38471 48.2341 5.54764C48.2969 5.71215 48.3543 5.87788 48.4081 6.04501C48.5138 6.38084 48.5995 6.72523 48.6704 7.07873C48.6922 7.18572 48.7124 7.29254 48.7306 7.40093C48.7389 7.45504 48.7488 7.50933 48.7571 7.56344L48.7695 7.6446L48.7801 7.72558C48.8061 7.94305 48.825 8.16156 48.8386 8.38128C48.8659 8.81897 48.8722 9.25803 48.8619 9.69002C48.8601 9.85667 48.8429 10.0217 48.8257 10.1868C48.8087 10.35 48.7865 10.5128 48.7626 10.6754C48.7167 10.9989 48.6623 11.3198 48.621 11.6492C48.6817 11.1674 48.6877 10.4936 48.6437 9.83232C48.5859 9.17136 48.4784 8.51941 48.3384 8.07884C48.3398 8.31505 48.3194 8.74421 48.284 9.16649C48.2672 9.37772 48.2454 9.58665 48.2227 9.77065C48.2163 9.81612 48.2117 9.86001 48.2054 9.90373C48.1993 9.94569 48.1916 9.98571 48.1841 10.024C48.1692 10.1005 48.1554 10.1665 48.1411 10.22C48.1379 10.1505 48.1351 10.0774 48.1325 10.0026C48.1299 9.9278 48.1242 9.84911 48.117 9.76849C48.1042 9.60742 48.0873 9.43704 48.0693 9.25945C48.0332 8.90604 47.9871 8.53205 47.9333 8.16437C47.9203 8.07249 47.9054 7.9822 47.8922 7.89208C47.8848 7.84693 47.8773 7.80178 47.8697 7.75838C47.8622 7.71323 47.8529 7.66966 47.8435 7.62609C47.8078 7.45198 47.7716 7.28313 47.7344 7.12306C47.6582 6.80451 47.5777 6.52634 47.4936 6.317C47.3255 6.64556 47.1967 6.99774 47.1188 7.36057C47.0867 7.13536 47.0705 6.90826 47.0681 6.68083C46.963 6.9219 46.8645 7.18318 46.7858 7.42167C46.707 7.66016 46.6496 7.8778 46.6195 8.03263C46.6145 7.98064 46.6111 7.93058 46.6076 7.88052C46.6041 7.83046 46.5988 7.78198 46.597 7.7321C46.5914 7.63568 46.5874 7.54119 46.5864 7.45057C46.5845 7.26933 46.5918 7.0997 46.6063 6.94325C46.6338 6.63019 46.6872 6.36776 46.7422 6.15697C46.5219 6.40376 46.295 6.91255 46.0843 7.38398C46.145 7.16845 46.1999 6.94167 46.2668 6.73389C46.3442 6.49171 46.4317 6.25236 46.5292 6.01759C46.5734 5.91039 46.6195 5.80161 46.6688 5.69494C46.7165 5.58809 46.7656 5.48318 46.82 5.3788C46.9284 5.17181 47.053 4.97715 47.203 4.80467C47.3117 4.67934 47.4997 4.57648 47.662 4.63601C47.7457 4.66605 47.8131 4.73697 47.8686 4.82086C47.922 4.8921 47.9795 4.99039 48.0169 5.06528Z" fill="#9336B6"/>
<path d="M44.6444 8.15528C44.6225 8.04829 44.5917 7.9439 44.5609 7.83952C44.5301 7.73514 44.4939 7.63198 44.4559 7.53039C44.3836 7.34004 44.2938 7.15141 44.1544 7.00552C44.098 6.94639 44.034 6.89357 43.987 6.82832C43.8143 6.58489 44.0888 6.3189 44.2847 6.12281C44.3292 6.07953 44.3915 6.04875 44.4515 6.05679C44.4977 6.06338 44.5362 6.09402 44.5728 6.12624C44.6924 6.22923 44.8118 6.33398 44.9291 6.44207C44.9655 6.47604 45.0019 6.51001 45.0233 6.55484C45.0617 6.63693 45.0375 6.73558 45.0161 6.82387C44.9602 7.05942 44.9319 7.29785 44.9209 7.53631C44.908 7.77635 44.9196 8.01539 44.9254 8.25915C44.9409 8.74354 44.9891 9.23132 44.9908 9.71427C44.9913 9.74272 44.9899 9.77275 44.9769 9.79801C44.9638 9.82327 44.9309 9.83936 44.906 9.82789C44.8813 9.81466 44.8743 9.78198 44.8719 9.75511C44.8042 9.22092 44.7566 8.67816 44.6444 8.15528Z" fill="#FF9200"/>
<path d="M44.928 10.0604C44.9482 10.0501 44.8365 9.6054 44.8256 9.55989C44.7876 9.39086 44.7426 9.22288 44.6884 9.05926C44.6197 8.85154 44.5198 8.66008 44.4327 8.46285C44.3848 8.35491 44.337 8.24698 44.289 8.14081C44.2412 8.03288 44.1898 7.92634 44.14 7.81999C44.1073 7.7509 44.0745 7.68181 44.038 7.61588C44.0233 7.5895 44.0085 7.56488 43.9842 7.54815C43.9599 7.53141 43.9255 7.52783 43.9029 7.54499C43.8896 7.55602 43.8826 7.57304 43.879 7.59042C43.8609 7.68082 43.9157 7.77173 43.9417 7.85609C43.9872 8.00282 44.0523 8.14451 44.1087 8.28706C44.357 8.88802 44.5865 9.503 44.7958 10.1283L44.928 10.0604Z" fill="#FBAA21"/>
<path d="M44.2484 7.51532C44.2579 7.37432 44.3584 7.49308 44.3888 7.55127C44.4252 7.61896 44.4542 7.6912 44.4761 7.76448C44.5109 7.87994 44.5351 7.99783 44.5612 8.11414C44.614 8.35748 44.6613 8.6038 44.7353 8.84403C44.7858 9.00904 44.8488 9.17179 44.8885 9.341C44.9282 9.5102 44.9479 9.68797 44.9093 9.85788C44.899 9.9065 44.8653 9.96333 44.8179 9.95129C44.7976 9.94562 44.7838 9.92821 44.7715 9.91273C44.7014 9.81844 44.6538 9.70876 44.6168 9.59663C44.5243 9.31721 44.4856 9.02209 44.4359 8.73292C44.4025 8.53598 44.3622 8.34008 44.3237 8.1426C44.2808 7.93757 44.2327 7.73199 44.2461 7.52041L44.2484 7.51532Z" fill="#FF9200"/>
<path d="M44.3383 7.60402C44.3358 7.49548 44.3904 7.58815 44.4082 7.63437C44.4288 7.68623 44.4472 7.74317 44.4621 7.79975C44.4858 7.88919 44.5042 7.97984 44.5242 8.07068C44.5619 8.2592 44.5975 8.45105 44.6441 8.63695C44.676 8.76451 44.7149 8.89104 44.743 9.02176C44.7711 9.15248 44.7879 9.2909 44.7795 9.42137C44.7774 9.45842 44.764 9.50317 44.7407 9.49363C44.7307 9.48905 44.7234 9.47586 44.7161 9.46267C44.6786 9.38954 44.6492 9.30483 44.627 9.21732C44.568 8.99996 44.5361 8.77299 44.4969 8.54882C44.4713 8.39528 44.442 8.24313 44.4126 8.09099C44.3789 7.93128 44.3452 7.77157 44.3395 7.60946L44.3383 7.60402Z" fill="#FBAA21"/>
<path d="M44.9653 7.7795C44.9721 7.68082 44.9808 7.58056 44.9894 7.48206C44.998 7.39954 45.0033 7.3149 45.0154 7.23274C45.0293 7.149 45.0688 7.13715 45.1005 7.21677C45.124 7.27424 45.1249 7.34888 45.1324 7.41001C45.1479 7.54474 45.1617 7.6793 45.1737 7.81367C45.1788 7.88164 45.1858 7.94804 45.1891 8.01583C45.1925 8.08363 45.1958 8.15142 45.1992 8.21922C45.2109 8.49022 45.2174 8.76068 45.2241 9.02939C45.2249 9.08805 45.219 9.16197 45.166 9.18662C45.1113 9.21108 44.9757 8.81179 44.9662 8.76997C44.9057 8.51696 44.9328 8.2571 44.9512 7.99811C44.9554 7.92401 44.9595 7.85166 44.9653 7.7795Z" fill="#FBAA21"/>
<path d="M44.0313 6.4684C43.9714 6.57575 43.9287 6.70263 44.0114 6.80888C44.0667 6.87854 44.1558 6.90736 44.2227 6.96581C44.2865 7.02039 44.3156 7.09087 44.3512 7.16558C44.3724 7.21217 44.3954 7.25893 44.4183 7.30569C44.4298 7.3282 44.4414 7.3507 44.4545 7.37514C44.4558 7.37883 44.4908 7.42685 44.4927 7.42527C44.5009 7.37998 44.4909 7.3257 44.4905 7.27951L44.487 7.13005C44.4851 7.08193 44.4932 7.02066 44.5367 7.00389C44.5693 6.99132 44.6054 7.01106 44.6286 7.03834C44.6501 7.06543 44.6621 7.1004 44.6781 7.13046C44.681 7.13609 44.6841 7.13996 44.689 7.14225C44.6974 7.14491 44.707 7.13702 44.7111 7.13036C44.7675 7.05637 44.7697 6.95189 44.8198 6.87191C44.8366 6.8435 44.8707 6.81688 44.9003 6.8324C44.9185 6.84139 44.935 6.86619 44.9518 6.85552C44.9573 6.85254 44.9596 6.84745 44.9619 6.84237C44.9863 6.79167 45.004 6.73849 45.0131 6.68442C45.0204 6.64791 45.0227 6.6091 45.0122 6.57607C44.9938 6.51913 44.9385 6.48318 44.8899 6.44971C44.7666 6.36585 44.6516 6.26866 44.5501 6.15868C44.5158 6.12138 44.4767 6.08002 44.4261 6.08185C44.3931 6.08195 44.3632 6.10191 44.3367 6.12222C44.2237 6.20627 44.1276 6.31161 44.0559 6.43193C44.0462 6.44156 44.0379 6.45489 44.0313 6.4684Z" fill="#FBAA21"/>
<path d="M45.3869 28.9347C45.3717 29.0307 45.3565 29.1267 45.3411 29.2245C45.3102 29.4201 45.2771 29.6207 45.2452 29.8268C45.2116 30.0328 45.1774 30.244 45.1409 30.4602C45.1227 30.5684 45.1043 30.6783 45.0858 30.7882C45.0765 30.844 45.0672 30.8998 45.0579 30.9556C45.0486 31.0115 45.0359 31.0669 45.0247 31.1243C45.0133 31.1835 45.0019 31.2427 44.989 31.2999L44.9888 31.3016L44.6728 32.7649L44.633 32.9471L44.613 33.0391L44.5914 33.1291L44.5788 33.1828L44.5031 33.4926L44.4121 33.8647L44.3265 34.2196L44.1481 34.9465C44.1204 35.0625 44.0892 35.1782 44.058 35.2938C44.0592 35.2159 44.0602 35.1396 44.0596 35.0615C44.0606 34.8522 44.0592 34.6497 44.0556 34.4505C44.0511 34.2442 44.0426 34.0427 44.0371 33.8451C44.0367 33.8327 44.0362 33.8202 44.0356 33.8095C44.0697 33.6657 44.1019 33.5235 44.1361 33.3798C44.1606 33.2776 44.1833 33.177 44.2076 33.0766C44.2181 33.0263 44.232 32.9762 44.2427 32.9241L44.2743 32.7712C44.3163 32.5679 44.3565 32.3663 44.3984 32.1647C44.4088 32.1144 44.4193 32.064 44.4298 32.0136C44.4898 31.7217 44.5477 31.4331 44.6054 31.1463C44.6168 31.0871 44.6301 31.0264 44.6414 30.9672C44.6517 30.9186 44.6605 30.868 44.669 30.8192L44.6949 30.6711C44.7121 30.5735 44.7294 30.4741 44.7465 30.3765C44.7808 30.1813 44.8131 29.9876 44.847 29.7959C44.8792 29.6041 44.9129 29.4141 44.9448 29.2258C44.9766 29.0374 45.0097 28.8527 45.0343 28.6671C45.0867 28.2981 45.1365 27.9377 45.185 27.5895C45.2061 27.4373 45.2251 27.2884 45.2439 27.1413C45.2533 27.0678 45.2627 26.9942 45.2702 26.9222C45.2795 26.8504 45.2887 26.7786 45.2945 26.7064C45.3192 26.4197 45.3413 26.1416 45.3572 25.8717C45.375 25.602 45.3883 25.3407 45.3973 25.0878C45.4019 24.9605 45.4061 24.8367 45.4085 24.7145C45.4091 24.5921 45.4078 24.4713 45.4063 24.3522C45.3891 23.4008 45.3338 22.5822 45.2064 21.8714C45.1487 21.5246 45.0832 21.2036 45.0113 20.9103C44.9763 20.7629 44.9388 20.6223 44.9008 20.487C44.8593 20.3514 44.8172 20.2227 44.7744 20.0993C44.6018 19.6057 44.4175 19.2066 44.2378 18.8808C44.147 18.7187 44.0578 18.5745 43.9719 18.4484C43.8843 18.3221 43.795 18.2116 43.7148 18.1145C43.5524 17.9219 43.4083 17.7879 43.3015 17.6951C43.1136 17.5318 42.9132 17.3866 42.7023 17.2599C42.2906 17.0093 41.7823 16.7184 41.2517 16.3578C40.7108 15.9961 40.1457 15.5662 39.6259 15.0363C39.4955 14.9038 39.3693 14.7646 39.2453 14.6203C39.1833 14.5482 39.1234 14.4727 39.0635 14.3972C39.0019 14.3216 38.9424 14.2426 38.8829 14.1636C38.6451 13.8442 38.4294 13.4969 38.2399 13.115C38.1451 12.9241 38.0599 12.7253 37.9792 12.5163C37.8948 12.3087 37.8185 12.0913 37.7503 11.8624C37.6819 11.6351 37.6251 11.3967 37.5761 11.1502C37.5524 11.0271 37.5311 10.8988 37.5116 10.769C37.5027 10.7042 37.4921 10.6392 37.4817 10.5724C37.4713 10.5057 37.4626 10.4391 37.4539 10.3725C37.3881 9.85446 37.358 9.39341 37.357 8.98685C37.3591 8.78297 37.3562 8.59453 37.3659 8.41805C37.3739 8.2414 37.389 8.07969 37.4082 7.92906C37.4898 7.33056 37.6673 6.94441 37.8826 6.76276C37.9893 6.67273 38.1081 6.63365 38.2319 6.64656C38.3556 6.65947 38.4863 6.7228 38.6097 6.83862C38.8603 7.06887 39.1014 7.50579 39.2834 8.14244C39.3075 8.22837 39.3314 8.31605 39.3529 8.40883C39.3611 8.44695 39.371 8.48526 39.3792 8.52338C39.3925 8.57979 39.4038 8.63776 39.4132 8.69732C39.4463 8.89601 39.4744 9.11015 39.4958 9.33779C39.535 9.74478 39.6189 10.1404 39.7383 10.5274C39.8475 10.9133 39.9924 11.2905 40.1627 11.6561C40.2479 11.839 40.3386 12.0188 40.4366 12.1959C40.4847 12.2843 40.5347 12.3712 40.5847 12.458C40.633 12.5447 40.6832 12.6298 40.7334 12.7149C40.9359 13.0555 41.1556 13.3819 41.3805 13.6912C41.493 13.8449 41.6074 13.997 41.7226 14.1422C41.7793 14.2155 41.8378 14.2873 41.8948 14.3572C41.9501 14.4268 42.0054 14.4965 42.0608 14.5644C42.281 14.8358 42.4997 15.0876 42.7039 15.313C43.1136 15.7658 43.4729 16.1192 43.7024 16.3348C43.7641 16.3927 43.8147 16.4406 43.8542 16.4784L43.8557 16.4804C43.8684 16.4923 43.881 16.5043 43.8921 16.5143C43.9366 16.5545 43.9604 16.5765 43.9604 16.5765C44.0268 16.6225 44.091 16.6735 44.1533 16.7262C44.2528 16.8377 44.3503 16.9526 44.4438 17.0724C44.4607 17.0937 44.4759 17.1148 44.4928 17.1361C44.5492 17.2112 44.6021 17.2877 44.6547 17.366C44.8137 17.608 44.9503 17.8636 45.0718 18.1319C45.114 18.2268 45.1543 18.3233 45.1929 18.4196C45.2132 18.475 45.2333 18.5321 45.2519 18.5873C45.2666 18.6296 45.2797 18.67 45.2925 18.714C45.3553 18.9122 45.4107 19.1132 45.459 19.317C45.5121 19.5409 45.5581 19.7658 45.5971 19.9917C45.6296 20.1797 45.6602 20.3692 45.6872 20.5602C45.7108 20.7508 45.7326 20.9412 45.751 21.1313C45.7894 21.5133 45.8203 21.8999 45.8443 22.2858C45.8498 22.3662 45.8538 22.4447 45.8578 22.5232C45.8606 22.5626 45.8615 22.6035 45.8644 22.6429C45.8655 22.682 45.8665 22.7229 45.8676 22.7621C45.8719 22.9205 45.8728 23.0786 45.8752 23.2386C45.8772 23.5529 45.8757 23.8669 45.8708 24.1806C45.8704 24.1841 45.8699 24.1893 45.8712 24.193C45.8675 24.2281 45.8658 24.2617 45.8623 24.295C45.8551 24.3972 45.8466 24.4957 45.8386 24.589C45.8354 24.6366 45.8323 24.6824 45.8276 24.728C45.8245 24.7739 45.8182 24.8176 45.8136 24.8615C45.7972 25.0355 45.7825 25.1937 45.7672 25.3394C45.7405 25.6295 45.7192 25.8668 45.7047 26.0553C45.6741 26.4319 45.6658 26.612 45.664 26.6456C45.6644 26.6421 45.6634 26.6349 45.6641 26.6278C45.6621 26.6472 45.6601 26.6665 45.6582 26.684C45.6522 26.742 45.6481 26.7983 45.6418 26.858C45.632 26.9351 45.6238 27.0141 45.6138 27.0929C45.5937 27.2524 45.575 27.4155 45.554 27.5837C45.5119 27.9201 45.468 28.274 45.4204 28.6471C45.4121 28.7438 45.4005 28.8385 45.3869 28.9347Z" fill="#9336B6"/>
<path d="M45.7148 23.4291C45.7058 23.1992 45.6968 22.9693 45.6862 22.7375C45.6827 22.6218 45.6703 22.5069 45.6616 22.3906C45.6529 22.2743 45.6422 22.1596 45.6316 22.0449C45.5876 21.5842 45.5312 21.1257 45.4511 20.6772C45.4413 20.6212 45.4315 20.5651 45.4183 20.5087C45.4049 20.4541 45.3934 20.3978 45.3802 20.3414C45.3535 20.2304 45.325 20.1209 45.2964 20.0115C45.2359 19.7922 45.1697 19.5776 45.0926 19.3672C45.0155 19.1568 44.9311 18.9492 44.8356 18.7494C44.787 18.6485 44.7383 18.5493 44.6842 18.4514C44.6301 18.3534 44.5707 18.2567 44.5094 18.1616C44.1729 17.6402 43.7568 17.1814 43.3095 16.7549C43.1972 16.6491 43.0831 16.5432 42.9687 16.4407C42.9402 16.4147 42.9114 16.3904 42.8829 16.3643C42.8526 16.3381 42.8238 16.3138 42.7936 16.2876C42.7345 16.237 42.6738 16.1863 42.6148 16.1358C42.3751 15.9351 42.135 15.7379 41.8967 15.5408C41.66 15.344 41.4251 15.1473 41.2011 14.9465C41.0882 14.8459 40.9789 14.744 40.8733 14.6407C40.8196 14.589 40.7677 14.5374 40.7159 14.4841C40.6641 14.4307 40.6123 14.3774 40.5621 14.326C40.1515 13.898 39.8015 13.4391 39.5561 12.9094C39.6866 13.3242 39.8619 13.7258 40.0806 14.1107C40.1349 14.2069 40.1928 14.3017 40.2524 14.3967C40.3103 14.4914 40.3685 14.5827 40.4302 14.6743C40.5535 14.8576 40.688 15.0349 40.8317 15.2061C40.5529 14.98 40.2917 14.7362 40.051 14.4786C39.9917 14.4138 39.9307 14.3489 39.8716 14.2824C39.8125 14.2159 39.7553 14.1478 39.6981 14.0797C39.5855 13.9437 39.4785 13.803 39.3769 13.661C39.1739 13.3754 38.9929 13.0779 38.839 12.7707C38.8001 12.6939 38.763 12.6173 38.7277 12.539C38.6907 12.4606 38.6537 12.3822 38.6201 12.3042C38.5515 12.1462 38.4882 11.9869 38.4338 11.8251C38.4892 12.0438 38.5571 12.2586 38.6356 12.4726C38.6545 12.5243 38.6733 12.5777 38.6937 12.6313C38.7125 12.6848 38.7331 12.7366 38.7536 12.7902C38.7947 12.8957 38.8395 12.9997 38.8861 13.1022C39.0724 13.5157 39.3017 13.9159 39.5676 14.2986C39.601 14.3447 39.6342 14.3925 39.6675 14.4404C39.7007 14.4882 39.7341 14.5343 39.7675 14.5804C39.8361 14.6727 39.9064 14.7652 39.9785 14.8562C40.1246 15.0383 40.2783 15.214 40.4413 15.3837C40.7673 15.723 41.1253 16.039 41.5109 16.3241C40.7752 15.9811 40.1251 15.4998 39.5811 14.9354C39.4447 14.7934 39.3156 14.6486 39.1941 14.4975C39.1342 14.422 39.0709 14.3462 39.0111 14.2689C38.9514 14.1917 38.8936 14.1129 38.8375 14.0343C38.6136 13.7163 38.4172 13.3834 38.253 13.0415C38.17 12.8713 38.0978 12.697 38.0274 12.5228C37.9552 12.3484 37.8903 12.1712 37.8307 11.9929C37.7133 11.6363 37.6244 11.272 37.5621 10.9035C37.5548 10.8566 37.5474 10.8114 37.5401 10.7645C37.5373 10.7411 37.5328 10.7176 37.5299 10.696C37.5254 10.6725 37.5226 10.6491 37.5179 10.6273C37.5032 10.5353 37.4887 10.4414 37.4757 10.3496C37.4498 10.1641 37.4311 9.97751 37.4194 9.78993C37.4059 9.60217 37.3994 9.41512 37.3963 9.22844C37.3957 9.13431 37.3951 9.04018 37.3979 8.9464C37.3992 8.90039 37.4007 8.85263 37.4005 8.80469C37.4001 8.7585 37.4016 8.71073 37.4013 8.66455C37.4041 8.45364 37.4145 8.25416 37.4368 8.0577C37.4373 8.05243 37.4379 8.04716 37.4384 8.04189C37.4672 7.78222 37.5198 7.52857 37.6121 7.25955C37.6749 7.07441 37.8059 6.83428 38.0241 6.79137C38.0277 6.78997 38.0329 6.79051 38.0365 6.78911C38.0772 6.7827 38.1188 6.7835 38.1648 6.79185C38.2823 6.81476 38.3707 6.9003 38.4337 6.99562C38.6501 7.31992 38.8065 7.66991 38.9318 8.03441C38.9944 8.21666 39.0481 8.40152 39.0963 8.58936C39.141 8.77684 39.1785 8.96711 39.2141 9.15896C39.2855 9.5409 39.3494 9.9274 39.4294 10.3102C39.4489 10.4063 39.472 10.501 39.4917 10.5954C39.5114 10.6897 39.5326 10.786 39.556 10.879C39.6024 11.0666 39.6559 11.2533 39.7201 11.4374C39.839 11.78 39.9941 12.1085 40.1763 12.4275C40.3516 12.7457 40.549 13.0521 40.7697 13.352C40.9886 13.6517 41.2278 13.9411 41.4778 14.2263C41.6054 14.3692 41.728 14.5098 41.8542 14.649C41.9804 14.7882 42.1084 14.9275 42.2367 15.0634C42.4102 15.2483 42.5874 15.4319 42.7645 15.6172C42.995 15.856 43.2381 16.1068 43.4811 16.3593C43.7188 16.613 43.9538 16.8754 44.1755 17.1488C44.3972 17.4222 44.6036 17.7082 44.7827 18.0073C44.8713 18.1567 44.956 18.3111 45.0283 18.4677C45.0989 18.6242 45.1603 18.785 45.2108 18.95C45.3057 19.2563 45.3897 19.5668 45.461 19.8831C45.4966 20.0412 45.5305 20.1992 45.5608 20.3585C45.5751 20.4381 45.5928 20.518 45.6037 20.5973C45.6163 20.6767 45.6269 20.7577 45.6378 20.8369C45.6535 20.9521 45.6659 21.067 45.6782 21.1819C45.7173 21.5569 45.7197 21.9334 45.7189 22.3078C45.7178 22.4018 45.7184 22.4959 45.7173 22.5899C45.7179 22.684 45.7133 22.7776 45.7122 22.8716C45.7088 23.054 45.7083 23.2421 45.7148 23.4291Z" fill="#AB55C7"/>
<path d="M38.3623 11.7904C38.2506 11.4788 38.1661 11.1558 38.0977 10.8292C38.066 10.6662 38.0311 10.501 38.0012 10.3381C37.9714 10.1735 37.9451 10.0093 37.9223 9.84537C37.8764 9.51933 37.8478 9.19332 37.8387 8.86402C37.8378 8.8231 37.8368 8.78218 37.8359 8.74126C37.835 8.70034 37.834 8.65942 37.8314 8.61832C37.8295 8.53648 37.8276 8.45464 37.8293 8.3714C37.8292 8.20632 37.8359 8.04196 37.846 7.87796C37.8568 7.70869 37.8711 7.53802 37.8906 7.36789C37.9014 7.28028 37.9424 6.92071 38.036 6.80623C37.8447 6.8413 37.7527 6.97369 37.6816 7.12246C37.4599 7.58209 37.4465 8.17705 37.4461 8.66333C37.4455 8.70231 37.4465 8.74323 37.4459 8.78222C37.4451 8.82296 37.4445 8.86194 37.4439 8.90093C37.4426 8.98066 37.4429 9.06056 37.4452 9.13889C37.4478 9.29713 37.4519 9.4573 37.4616 9.61449C37.4805 9.9324 37.5136 10.2482 37.5644 10.5606C37.5707 10.6003 37.5772 10.6382 37.5835 10.6779C37.5897 10.7176 37.5962 10.7556 37.6008 10.7951C37.6135 10.8728 37.6263 10.9504 37.6407 11.0282C37.6697 11.1839 37.704 11.3383 37.7417 11.4931C37.819 11.8012 37.9141 12.1057 38.0321 12.4073C38.0913 12.5555 38.1435 12.7047 38.203 12.8511C38.2624 12.9975 38.3255 13.1425 38.4009 13.2853C38.5399 13.5518 38.696 13.8716 38.9195 14.0937C38.7712 13.867 38.6341 13.5989 38.5129 13.3112C38.4516 13.1664 38.3959 13.0168 38.3424 12.8639C38.2888 12.711 38.2427 12.5535 38.1931 12.3957C38.0957 12.0803 38.0162 11.7596 37.9563 11.4516C37.9271 11.2977 37.9013 11.1459 37.8817 11.0001C37.8721 10.9264 37.8639 10.8545 37.8573 10.7846C37.8509 10.7129 37.8441 10.6448 37.8388 10.5786C37.8535 10.6546 37.8903 10.7685 37.9326 10.8794C37.9748 10.9903 38.0227 11.0983 38.0506 11.1633C38.0981 11.2747 38.2903 11.664 38.3623 11.7904Z" fill="#B55FD2"/>
<path d="M48.8859 14.0473C48.8778 14.2417 48.8487 14.4374 48.8089 14.6356C48.7693 14.832 48.7156 15.0305 48.6498 15.2278C48.5871 15.4129 48.513 15.5898 48.4324 15.7624C48.363 15.9114 48.2871 16.0561 48.208 16.1987C48.1758 16.2575 48.1417 16.3178 48.1077 16.3764C48.0738 16.435 48.0365 16.4932 48.0008 16.5516C47.9298 16.6666 47.8568 16.7833 47.7838 16.8999C47.6397 17.1316 47.4974 17.3634 47.3667 17.6C47.2999 17.7244 47.2346 17.8507 47.1761 17.9777C47.0912 18.1588 47.0147 18.3425 46.9432 18.5285C46.8682 18.7141 46.7999 18.9022 46.7383 19.0928C46.6152 19.474 46.5174 19.8614 46.4401 20.2526C46.4257 20.3239 46.413 20.3954 46.4004 20.4668C46.3877 20.5383 46.375 20.6097 46.3607 20.681C46.3336 20.8237 46.3081 20.9683 46.2862 21.1116C46.2141 21.5691 46.1335 22.1251 46.0614 22.6838C45.9752 23.2427 45.901 23.8047 45.8601 24.2797C45.8656 23.9608 45.8674 23.6433 45.8641 23.3252C45.8632 23.1672 45.8608 23.0072 45.8565 22.8487C45.8544 22.7687 45.8539 22.6905 45.8501 22.6102C45.8461 22.5317 45.8406 22.4513 45.8366 22.3728C45.8126 21.9869 45.7817 21.6003 45.7434 21.2183C45.7234 21.0263 45.7033 20.836 45.6797 20.6454C45.6688 20.5502 45.6528 20.4545 45.6382 20.3607C45.622 20.2667 45.6074 20.1729 45.5913 20.0771C45.5524 19.8512 45.5082 19.6247 45.4532 19.4025C45.405 19.1986 45.3495 18.9976 45.2868 18.7994C45.2554 18.7003 45.2221 18.6027 45.1854 18.5048C45.1505 18.4071 45.1082 18.3122 45.066 18.2173C44.8969 17.8393 44.6911 17.4806 44.4398 17.158C44.348 17.0384 44.2503 16.9253 44.1492 16.8118C44.0683 16.7217 43.9858 16.6297 43.9031 16.5394C43.8222 16.4493 43.7412 16.3592 43.6606 16.2656C43.4992 16.0802 43.3506 15.8889 43.2302 15.6776C43.1011 15.4494 43.0096 15.2109 42.9485 14.9631C42.918 14.8392 42.8965 14.7127 42.8803 14.585C42.864 14.4573 42.8566 14.3288 42.8476 14.1983C42.8201 13.6789 42.8848 13.1425 42.9785 12.627C42.9983 12.5208 43.0181 12.4145 43.0398 12.3068C43.0595 12.2006 43.0793 12.0944 43.101 11.9866C43.1441 11.7728 43.194 11.5614 43.2509 11.3491C43.3061 11.1365 43.3697 10.9266 43.4382 10.719C43.4735 10.6144 43.5085 10.5116 43.5472 10.4074C43.5855 10.3066 43.6238 10.2059 43.6644 10.1001C43.8215 9.69407 44.0085 9.30004 44.2319 8.924C44.3436 8.73686 44.4651 8.55431 44.5947 8.37792C44.7243 8.20153 44.8673 8.03008 45.0128 7.86778C45.0953 7.77699 45.1886 7.68201 45.3101 7.66629C45.409 7.65175 45.5056 7.692 45.5945 7.73855C45.6655 7.77436 45.7325 7.81507 45.7993 7.85754C45.8661 7.9 45.9291 7.94562 45.9899 7.99633C46.1117 8.09424 46.2256 8.20196 46.3351 8.3181C46.5524 8.55021 46.7494 8.81037 46.9396 9.06982C47.0703 9.24853 47.2008 9.43075 47.3289 9.61805C47.3939 9.7118 47.4571 9.80536 47.5201 9.90068C47.5831 9.996 47.6408 10.0925 47.7003 10.1893C47.936 10.5777 48.1545 10.9821 48.3403 11.3991C48.4333 11.6075 48.5188 11.8206 48.5936 12.036C48.6633 12.251 48.7221 12.4701 48.7685 12.6915C48.8664 13.1347 48.9095 13.5883 48.8859 14.0473Z" fill="#AB55C7"/>
<path d="M46.864 17.7429C47.063 17.501 47.2464 17.2415 47.4136 16.9714C47.5793 16.6994 47.7323 16.4154 47.8516 16.1208C48.0974 15.5305 48.2674 14.9004 48.3537 14.2563C48.409 13.7598 48.4085 13.2645 48.3638 12.7771C48.3406 12.5333 48.3067 12.2919 48.2602 12.0546C48.2086 11.8167 48.1463 11.5812 48.0731 11.3499C47.9267 10.8874 47.7405 10.4402 47.521 10.0127C47.2928 9.58595 47.0256 9.18181 46.7351 8.80185C46.5928 8.61662 46.4409 8.44103 46.2773 8.27665C46.1954 8.19534 46.1115 8.11736 46.0237 8.04253C45.9806 8.00609 45.9358 7.96946 45.8908 7.93459C45.844 7.89954 45.7971 7.86625 45.7502 7.83296C45.6141 7.73888 45.4527 7.65283 45.2956 7.69324C45.1955 7.72007 45.1166 7.79348 45.0431 7.86567C44.9828 7.92683 44.9241 7.98993 44.8669 8.05496C44.8097 8.11999 44.7541 8.18695 44.7 8.25585C44.592 8.3919 44.4937 8.53428 44.4003 8.68072C44.215 8.97378 44.0541 9.28356 43.9119 9.59708C43.8352 9.76656 43.7634 9.93833 43.6951 10.1105C43.6783 10.1549 43.6616 10.1975 43.645 10.2401C43.6282 10.2845 43.6116 10.3272 43.5948 10.3716C43.5614 10.4586 43.5297 10.5458 43.4979 10.6348C43.3744 10.9857 43.2694 11.3422 43.1868 11.701C43.1454 11.8812 43.1076 12.0601 43.0766 12.2415C43.0619 12.3322 43.0438 12.4226 43.0274 12.5132C43.011 12.6038 42.998 12.6947 42.985 12.7857C42.9332 13.1494 42.9002 13.5152 42.8898 13.8815C42.8876 13.986 42.8854 14.0905 42.8885 14.1937C42.8901 14.2454 42.8915 14.2987 42.8947 14.3506C42.8963 14.4022 42.8979 14.4538 42.9012 14.5056C42.9143 14.7129 42.9467 14.9186 43.0077 15.1167C43.1231 15.4926 43.3386 15.8256 43.6106 16.1167C43.6794 16.1895 43.7504 16.2591 43.8249 16.3272C43.8997 16.3936 43.9746 16.4582 44.0531 16.5214C44.2106 16.6443 44.3777 16.7576 44.5481 16.857C44.2791 16.371 44.0909 15.826 44.0341 15.2717C44.1844 15.6299 44.3726 15.9743 44.5941 16.2992C44.6498 16.3813 44.704 16.4615 44.7601 16.5401C44.8179 16.6189 44.8759 16.696 44.9373 16.7734C45.0587 16.9263 45.1893 17.073 45.3259 17.2133C45.2714 16.9857 45.2214 16.7657 45.178 16.5482C45.1681 16.4939 45.1564 16.4395 45.1464 16.3852C45.1347 16.3307 45.1247 16.2764 45.1146 16.2239C45.0944 16.1171 45.0762 16.0087 45.0597 15.9005C44.9969 15.4697 44.9725 15.0377 45.0105 14.5731C45.0189 14.4763 45.0341 14.3803 45.0562 14.285C45.0749 14.1893 45.102 14.0963 45.1325 14.0036C45.1933 13.8201 45.2743 13.6439 45.3642 13.4812C45.421 13.6699 45.461 13.8693 45.4974 14.0701C45.506 14.1207 45.5146 14.1713 45.5234 14.2201L45.5364 14.296L45.5476 14.3717C45.5614 14.4726 45.5771 14.5718 45.593 14.6693L45.805 15.9179L46.0667 14.5927C46.0887 14.4814 46.1107 14.3702 46.1309 14.2604L46.1882 13.9274L46.3013 13.2594L46.3678 13.8379L46.4002 14.127L46.4163 14.2725L46.429 14.4176C46.4789 14.2719 46.517 14.1232 46.5502 13.9723C46.5831 13.8231 46.6111 13.6716 46.6324 13.5176C46.6764 13.2116 46.6965 12.9031 46.6922 12.5938C46.691 12.4393 46.6829 12.284 46.6692 12.1317C46.6521 11.9791 46.6282 11.8257 46.6006 11.6738C46.5435 11.3714 46.4616 11.0736 46.358 10.7841C46.5176 11.0368 46.6638 11.3005 46.7988 11.572C46.9321 11.8432 47.0577 12.1226 47.1528 12.4094C47.3503 12.982 47.4875 13.582 47.5507 14.192C47.6017 14.8026 47.5716 15.4242 47.4652 16.0272C47.4522 16.1022 47.4374 16.1769 47.421 16.2515C47.4045 16.3261 47.388 16.4007 47.3664 16.4748C47.3249 16.6231 47.2802 16.7676 47.2288 16.9113C47.1292 17.1991 47.0064 17.4773 46.864 17.7429Z" fill="#B55FD2"/>
<path d="M29.9197 20.7422C29.9197 20.2433 29.618 19.9939 29.0162 19.9939V19.2455H35.3405V19.9939C35.1436 19.9959 34.9541 20.0697 34.8066 20.2017C34.67 20.312 34.6013 20.4928 34.6013 20.7422V39.6176C34.6013 39.8671 34.67 40.0614 34.8066 40.1997C34.9709 40.31 35.1486 40.366 35.3405 40.366V41.1143H29.0162V40.366C29.6188 40.366 29.9197 40.1165 29.9197 39.6176V31.8022H16.6962V39.6185C16.6962 39.8679 16.765 40.0622 16.9016 40.2005C17.0658 40.3108 17.2435 40.3668 17.4354 40.3668V41.1152H11.2344V40.3668C11.754 40.3668 12.0146 40.1174 12.0146 39.6185V20.7422C12.0146 20.2433 11.7548 19.9939 11.2344 19.9939V19.2455H17.4354V19.9939C17.2386 19.9959 17.049 20.0697 16.9016 20.2017C16.765 20.312 16.6962 20.4928 16.6962 20.7422V27.8101H29.9197V20.7422ZM42.7049 40.366C43.4172 40.366 43.7726 40.1165 43.7726 39.6176V20.7422C43.7726 20.2433 43.4164 19.9939 42.7049 19.9939V19.2455H49.5219V19.9939C48.8095 19.9939 48.4542 20.2433 48.4542 20.7422V39.6176C48.4542 40.1165 48.8095 40.366 49.5219 40.366V41.1143H42.7049V40.366ZM67.8377 39.6176C67.8377 40.1165 68.1394 40.366 68.7411 40.366V41.1143H62.4169V40.366C62.5953 40.3705 62.7696 40.3116 62.9097 40.1997C63.0739 40.0614 63.1561 39.8671 63.1561 39.6176V23.0713H56.3801C56.1337 23.0713 55.8873 23.1409 55.6409 23.2792C55.4221 23.4175 55.3123 23.6814 55.3123 24.0691H54.5731V18.2485H55.3123C55.3123 18.6363 55.4213 18.9002 55.6409 19.0385C55.8873 19.1768 56.1337 19.2464 56.3801 19.2464H74.6137C74.8601 19.2464 75.093 19.1768 75.3118 19.0385C75.5582 18.9002 75.6805 18.6363 75.6805 18.2485H76.4206V24.0691H75.6814C75.6814 23.6814 75.5582 23.4175 75.3118 23.2792C75.1035 23.1438 74.8612 23.0716 74.6137 23.0713H67.8377V39.6185V39.6176Z" fill="white"/>
</g>
<defs>
<clipPath id="clip0_1997_219">
<rect width="88" height="59.3939" fill="white" transform="translate(0 0.281006)"/>
</clipPath>
</defs>
</svg>
