<svg xmlns="http://www.w3.org/2000/svg" viewBox="0 0 395.64 395.64"><defs><style>.cls-1,.cls-5{fill:#fff;}.cls-2{fill:#193651;}.cls-3{fill:#4fbf9f;}.cls-4{fill:#d3d7da;}.cls-5{stroke:#193651;stroke-miterlimit:10;stroke-width:2px;}</style></defs><title>Asset 9history-projshov-ocinku</title><g id="Layer_2" data-name="Layer 2"><g id="Layer_1-2" data-name="Layer 1"><polygon class="cls-1" points="136.02 6.21 6.21 6.21 6.21 276.94 208.36 276.94 208.36 78.48 136.02 6.21"/><path class="cls-2" d="M214.5,283.15H0V0H138.47l76,76ZM12.35,270.74h189.8V81L133.56,12.35H12.35Z"/><rect class="cls-2" x="35.23" y="89.66" width="12.35" height="12.35"/><rect class="cls-2" x="64.91" y="89.66" width="12.35" height="12.35"/><rect class="cls-2" x="95.22" y="89.66" width="12.35" height="12.35"/><polygon class="cls-3" points="135.76 6.01 135.76 78.67 208.42 78.67 135.76 6.01"/><rect class="cls-2" x="35.23" y="43.89" width="72.34" height="12.35"/><rect class="cls-2" x="35.23" y="135.37" width="134.14" height="12.35"/><rect class="cls-2" x="35.23" y="181.14" width="134.14" height="12.35"/><rect class="cls-2" x="35.23" y="226.84" width="134.14" height="12.35"/><polygon class="cls-1" points="317.16 118.69 187.28 118.69 187.28 389.43 389.43 389.43 389.43 191.03 317.16 118.69"/><path class="cls-2" d="M395.64,395.64H181.14V112.48H319.61l76,75.44ZM193.49,383.29h189.8V193.49L314.63,124.9H193.49Z"/><polygon class="cls-4" points="212.04 364.74 212.04 143.45 307.26 143.45 364.74 200.92 364.74 364.74 212.04 364.74"/><polygon class="cls-3" points="307.26 200.92 364.74 200.92 307.26 143.45 307.26 200.92"/><path class="cls-2" d="M319.61,112.48H214.5V76l-76-76H0V283.15H181.14V395.64h214.5V187.93ZM12.35,270.74V12.35H133.49l68.59,68.59v31.55H181.66V270.74ZM383.29,383.29H193.49V124.9H314.63l68.59,68.59v189.8Z"/><path class="cls-5" d="M241.71,266.41"/><polygon class="cls-2" points="279.4 322.07 246.63 288.71 255.29 280.05 279.4 304.16 321.49 262.14 330.73 270.74 279.4 322.07"/></g></g></svg>