<svg xmlns="http://www.w3.org/2000/svg" viewBox="0 0 395.56 395.64"><defs><style>.cls-1{fill:#fff;}.cls-2{fill:#e1e6e9;}.cls-3{fill:#2ea2db;}.cls-4{fill:#193651;}</style></defs><title>Asset 8history-na-rozglyadi</title><g id="Layer_2" data-name="Layer 2"><g id="Layer_1-2" data-name="Layer 1"><rect class="cls-1" x="101.94" y="6.21" width="287.48" height="383.29"/><rect class="cls-2" x="126.63" y="30.9" width="238.03" height="333.83"/><circle class="cls-1" cx="108.73" cy="136.02" r="102.59"/><path class="cls-3" d="M108.73,213.92a76.15,76.15,0,0,1-26-4.33c-40.21-14.22-61.8-58.7-47.58-99.56a78.12,78.12,0,0,1,73.57-51.91,76.15,76.15,0,0,1,26,4.33c40.21,14.22,61.8,58.7,47.58,99.56A78.69,78.69,0,0,1,108.73,213.92Z"/><path class="cls-1" d="M22.81,378.31h0C11.69,374,5.49,361.63,9.23,350.51l26.57-76c4.33-11.12,16.68-17.33,27.8-13.58h0c11.12,4.33,17.33,16.68,13.58,27.8L50.61,365.32A21.25,21.25,0,0,1,22.81,378.31Z"/><path class="cls-4" d="M72.27,258.39l6.21-17.91a75,75,0,0,0,17.33,3.68V395.64H395.56V0H95.73V27.8c-40.79,5-76,32.78-89.6,71.76C-13,154,14.15,213.92,66.71,236.15L60.5,254.06c-13-1.87-26,6.79-29.67,18.55l-27.22,76c-5,10.54.65,30.32,17.33,35.88,16.1,4.91,29.67-3.1,35.88-17.33l26.57-76C88.3,277.59,82.16,265.18,72.27,258.39Zm-.65,29.09L45,362.86a16.71,16.71,0,0,1-20.43,9.89c-3.68-1.23-13-8-9.24-20.43l26.57-76c5.56-13.58,18.55-9.89,20.43-9.89C68.52,268.28,75.37,278.82,71.62,287.48Zm5-60.64c-50.1-17.91-76.67-72.92-58.76-123a96.67,96.67,0,0,1,90.89-64.26,95.43,95.43,0,0,1,32.13,5.56c45.77,16.68,76.67,68.59,58.7,123C178.61,226.84,113.64,241.71,76.6,226.84ZM145.19,33.36c-11.77-4.33-36.46-6.21-37.11-6.21V12.35H383.15V383.29H108.08V244.82h.65a109.27,109.27,0,0,0,102.59-72.34C231.1,114.36,200.2,53.79,145.19,33.36Z"/><rect class="cls-4" x="255.86" y="272.61" width="12.35" height="12.35"/><rect class="cls-4" x="309" y="272.61" width="12.35" height="12.35"/><rect class="cls-4" x="255.86" y="110.67" width="12.35" height="12.35"/><rect class="cls-4" x="309" y="110.67" width="12.35" height="12.35"/><rect class="cls-4" x="255.86" y="191.61" width="12.35" height="12.35"/><rect class="cls-4" x="309" y="191.61" width="12.35" height="12.35"/><rect class="cls-4" x="240.99" y="70.46" width="94.58" height="12.35"/><rect class="cls-4" x="240.99" y="151.47" width="94.58" height="12.35"/><rect class="cls-4" x="240.99" y="231.82" width="94.58" height="12.35"/><rect class="cls-4" x="240.99" y="312.82" width="94.58" height="12.35"/><polygon class="cls-4" points="173.63 336.94 151.39 314.63 160.06 305.97 173.63 319.61 208.28 284.96 216.88 293.62 173.63 336.94"/></g></g></svg>