<?xml version="1.0" encoding="utf-8"?>
<!-- Generator: Adobe Illustrator 17.0.0, SVG Export Plug-In . SVG Version: 6.00 Build 0)  -->
<!DOCTYPE svg PUBLIC "-//W3C//DTD SVG 1.1//EN" "http://www.w3.org/Graphics/SVG/1.1/DTD/svg11.dtd">
<svg version="1.1" id="Layer_1" xmlns="http://www.w3.org/2000/svg" xmlns:xlink="http://www.w3.org/1999/xlink" x="0px" y="0px"
	 width="671.496px" height="140.177px" viewBox="0 0 671.496 140.177" enable-background="new 0 0 671.496 140.177"
	 xml:space="preserve">
<path fill="#FFFFFF" d="M670.618,66.492c-1.78-10.74-6.51-19.57-15.12-26.26c-6.78-5.27-14.89-7.29-22.98-9.33
	c-1.61-0.69-3.42,0.05-5.03-0.6c-0.09-0.03-0.18-0.07-0.27-0.12c-13.25-0.04-26.49-0.07-39.74-0.11c-0.89,3.44-0.38,6.94-0.39,10.41
	c-0.05,26.12-0.04,52.24,0,78.36c0,2.11-0.98,4.85,3.02,4.76c12.13-0.29,24.28,0.32,36.4-0.33c4.42-0.36,8.77-1,13.06-2.2
	c13.48-3.78,23.35-11.64,28.41-24.96C671.628,86.502,672.308,76.672,670.618,66.492 M650.158,82.632
	c-2.43,14-11.6,21.62-26.91,22.31c-1.82,0.09-3.66,0.01-5.49,0.02c-9.86,0-9.86,0-9.86-9.91c0-14.14,0.09-28.29-0.06-42.43
	c-0.04-3.25,0.91-4.35,4.22-4.27c5.82,0.14,11.68-0.14,17.4,1C644.858,52.422,653.068,65.762,650.158,82.632 M566.028,29.992
	c3.83-0.35,4.63,0.99,4.61,4.66c-0.17,29.45-0.1,58.91-0.11,88.36c-6.99,0.91-13.98,0.91-20.97,0c0-29.45,0.06-58.91-0.1-88.36
	c-0.02-3.67,0.77-5.01,4.61-4.66C558.028,30.362,562.068,30.362,566.028,29.992 M509.528,83.172c8.74,13.01,17.5,26,26.26,38.99
	c-0.19,0.42-0.13,1.12-0.77,1.13c-7.81,0.13-15.64,1.08-23.42-0.49c-4.65-6.94-9.32-13.87-13.95-20.84
	c-4.08-6.15-5.34-6.05-9.2,0.84c-0.95,5.58-0.34,11.19-0.34,16.79c-0.01,2.89-0.58,4.3-3.83,4.01c-5.56-0.48-11.18,0.64-16.72-0.58
	c-0.01-32.68-0.01-65.35-0.01-98.03c2.32-0.07,4.64-0.19,6.97-0.19c13.14-0.02,13.14-0.01,13.14,13.17
	c0,10.81-0.04,21.62,0.07,32.43c0.01,0.87-1.41,3.38,1.65,2.6c5.75-7.49,12.81-13.77,19.22-20.66c8.43-1.58,16.9-0.59,25.36-0.47
	c0.79,0.01,0.29,0.75,0.35,1.16c-8.18,8.44-16.32,16.92-24.57,25.29C508.048,80.042,508.428,81.552,509.528,83.172 M451.798,75.162
	c0.53,15.12,0.1,30.24,0.22,45.36c0.01,1.29,0.22,3.01-1.72,2.95c-6.23-0.2-12.52,0.94-18.71-0.63c0.03-13.15,0.18-26.31,0.01-39.46
	c-0.05-3.88-0.24-7.97-2.61-11.35c-3.21-4.59-8.8-6.39-14.08-4.77c-5.45,1.66-8.98,6.44-9.4,12.7c-1.1,9.23-0.22,18.49-0.46,27.73
	c-0.11,4.3,0,8.61-0.03,12.92c-0.01,1.31,0.13,2.95-1.79,2.87c-6.21-0.23-12.48,0.94-18.64-0.64c-0.01-23.53-0.01-47.07-0.02-70.6
	l0.15-0.03c5.68-0.93,11.4-0.14,17.09-0.43c2.48-0.12,3.08,1.16,3.06,3.33c0,1.1-0.7,3.29,1.96,2.13
	c12.61-12.05,37.84-7.93,43.5,11.71C450.918,70.992,451.318,73.092,451.798,75.162 M368.728,72.132
	c-2.17-12.6-10.29-18.97-22.27-21.31c-1.54-0.59-3.28,0.19-4.81-0.55c-0.09-0.04-0.17-0.09-0.26-0.14h-4.68
	c-0.09,0.05-0.19,0.1-0.28,0.14c-1.86,0.82-3.94-0.14-5.82,0.61c-5.84,1.09-11.56,2.55-16.93,5.2c-7.69,3.8-7.7,3.76-3.09,10.64
	c1.01,1.5,1.84,3.12,2.92,4.57c1.25,1.68,2.41,2.47,4.8,0.95c5.51-3.5,11.67-5.4,18.31-5.42c4.26-0.02,7.73,1.64,10.16,5.05
	c1.09,1.54,2.24,3.62,1.46,5.44c-0.77,1.77-2.97,0.85-4.52,0.86c-9.4,0.04-18.88-0.47-27.87,3.07c-6.34,2.48-10.8,6.69-11.52,13.91
	c-0.45,3.28-0.39,6.56-0.04,9.84c1,10.48,10.01,17.96,21.32,19.28c3.29,0.45,6.59,0.47,9.88-0.01c4.17-0.76,7.55-3.09,10.87-5.55
	c0.76-0.56,1.3-1.77,2.42-1.36c1.46,0.53,0.76,1.97,0.88,3.02c0.09,0.81-0.04,1.65-0.07,2.47h0.01c4.49,0.11,8.98,0,13.45,0.41
	c4.42,0.4,6.01-0.88,5.9-5.66C368.588,102.442,368.758,87.292,368.728,72.132 M347.838,100.142c-2.94,7.38-14.65,10.48-20.84,5.51
	c-4.31-3.46-3.1-9.8,2.27-11.93c3.38-1.33,6.92-0.49,9.64-0.78h4.22C349.058,92.952,350.078,94.522,347.838,100.142 M280.638,76.642
	c-1.24-0.6-2.86-0.66-3.72-2.29c8.88-3.83,12.76-11.15,12.24-20.19c-0.62-10.6-5.93-18.36-16.68-21.57
	c-6.08-1.82-12.28-2.51-18.59-2.51c-11.14-0.01-22.28-0.01-33.43-0.01c-0.84,3.11-0.36,6.28-0.37,9.42
	c-0.05,26.45-0.04,52.9,0,79.34c0,2.11-1,4.84,3.02,4.77c14.79-0.28,29.58,0.32,44.37-0.33c3.68-0.04,7.13-1.04,10.56-2.27
	c9.01-3.25,15.75-12.16,16.37-21.82C295.058,89.142,290.248,81.342,280.638,76.642 M240.838,57.602c-0.01-9.53-0.01-9.53,9.78-9.53
	c3.5,0.01,6.96,0,10.4,0.94c4.86,1.32,6.57,4.58,6.55,9.28c-0.02,4.67-2.21,7.45-6.72,8.59c-5.58,1.4-11.24,1-16.89,1.11
	c-2.48,0.04-3.18-1.22-3.13-3.4C240.878,62.262,240.838,59.932,240.838,57.602 M266.308,104.212c-7.49,2.27-15.18,1.43-22.81,1.55
	c-1.89,0.03-2.67-1.03-2.66-2.84c0.02-2.66,0.01-5.33,0-7.99c-0.01-10.57-0.01-10.55,10.45-10.58c5.01-0.02,9.97,0.23,14.84,1.52
	c4.53,1.2,6.49,4.29,6.54,8.83C272.718,99.332,271.078,102.772,266.308,104.212 M169.788,60.122c0.38,6.31,0.42,12.61-0.02,18.92
	c-2.21,14.72-6.52,28.41-17.11,39.65c-8.93,9.46-19.85,15-32.15,18.27c-3.94,1.04-7.87,2.23-12,2.33c-1.53,0.67-3.28-0.16-4.81,0.57
	c-0.1,0.05-0.19,0.1-0.29,0.16h-47.87c6.86-5.06,12.62-9.7,18.75-13.76c15.97-10.61,31.39-21.99,47.05-33.04
	c2.24-1.58,3.32-3.15,3.29-6.04c-0.17-14.66-0.17-29.33-0.01-43.99c0.03-3.16-0.67-4.27-4.06-4.2c-10.49,0.23-20.99,0.18-31.49,0.02
	c-2.87-0.04-3.6,0.86-3.58,3.64c0.13,14.67-0.07,29.33,0.16,43.99c0.05,3.39-0.95,5.18-4.06,6.27c-9.1,3.21-18.16,6.56-27.45,9.94
	c-1.03-1.22-0.57-2.75-0.57-4.13c-0.03-31.32,0.07-62.65-0.13-93.97c-0.03-4.18,1.38-4.8,5.04-4.75c15.32,0.19,30.65,0.1,45.97,0.12
	c0.14,0.09,0.28,0.17,0.43,0.22c0.1,0.05,0.2,0.09,0.3,0.12c0,0.01,0.01,0,0.01,0c1.39,0.42,2.95-0.21,4.32,0.4
	c11.79,2.27,23.34,5.13,33.49,12.06c14.71,10.05,22.92,23.99,25.57,41.43C168.858,56.292,169.378,58.202,169.788,60.122
	 M45.798,18.162c0.31,3.63,0.51,7.25-0.09,10.86c-3.12,9.42-9.4,15.29-19.22,17.23c-1.94,0.51-3.9,0.4-5.86,0.08
	c-11.08-0.51-19.31-9.59-20.24-18.31c-0.57-2.95-0.44-5.91-0.07-8.87c1.6-11.48,9.83-18.14,20.75-18.85
	c9.67-0.62,19.87,3.82,23.79,15.57C45.118,16.652,45.488,17.402,45.798,18.162 M42.318,57.132c0.68,27.64,0.33,55.29,0.17,82.94
	c-11.46,0-22.93-0.17-34.39,0.1c-3.85,0.09-4.66-1.14-4.63-4.78c0.15-24.59,0.14-49.18,0.01-73.77c-0.02-3.46,0.92-4.55,4.44-4.49
	c11.46,0.18,22.93,0.02,34.39-0.01h0.01V57.132z"/>
</svg>
