<svg width="560" height="93" viewBox="0 0 560 93" fill="none" xmlns="http://www.w3.org/2000/svg">
<g clip-path="url(#clip0_2_19)">
<rect width="560" height="93" rx="5" fill="white"/>
<rect width="700" height="93" fill="url(#paint0_linear_2_19)"/>
<path fill-rule="evenodd" clip-rule="evenodd" d="M0 72.4884L13 58.4884C26 44.4884 52 16.4884 78 -7.51164C104 -32.5116 130 -53.5116 156 -39.5116C181 -25.5116 207 23.4884 233 34.4884C259 44.4884 285 16.4884 311 20.4884C337 23.4884 363 58.4884 389 44.4884C415 30.4884 441 -32.5116 467 -39.5116C493 -46.5116 519 2.48836 544 9.48836C570 16.4884 596 -18.5116 622 -11.5116C648 -4.51164 674 44.4884 687 69.4884L700 93.4884H687C674 93.4884 648 93.4884 622 93.4884C596 93.4884 570 93.4884 544 93.4884C519 93.4884 493 93.4884 467 93.4884C441 93.4884 415 93.4884 389 93.4884C363 93.4884 337 93.4884 311 93.4884C285 93.4884 259 93.4884 233 93.4884C207 93.4884 181 93.4884 156 93.4884C130 93.4884 104 93.4884 78 93.4884C52 93.4884 26 93.4884 13 93.4884H0V72.4884Z" fill="url(#paint1_linear_2_19)"/>
<circle cx="498" cy="46" r="90" fill="url(#paint2_linear_2_19)"/>
<path d="M45.959 30.3545H48.8066C49.5684 30.3545 50.2715 30.4805 50.916 30.7324C51.5605 30.9785 52.1201 31.3359 52.5947 31.8047C53.0752 32.2676 53.4473 32.8271 53.7109 33.4834C53.9746 34.1338 54.1064 34.8604 54.1064 35.6631C54.1064 36.4482 53.9746 37.1631 53.7109 37.8076C53.4473 38.4463 53.0752 38.9941 52.5947 39.4512C52.1201 39.9082 51.5605 40.2598 50.916 40.5059C50.2715 40.752 49.5684 40.875 48.8066 40.875H45.959C45.1914 40.875 44.4854 40.752 43.8408 40.5059C43.1963 40.2598 42.6338 39.9111 42.1533 39.46C41.6729 39.0029 41.2979 38.4551 41.0283 37.8164C40.7646 37.1777 40.6328 36.4658 40.6328 35.6807C40.6328 34.8779 40.7646 34.1514 41.0283 33.501C41.2979 32.8447 41.6729 32.2822 42.1533 31.8135C42.6338 31.3447 43.1963 30.9844 43.8408 30.7324C44.4854 30.4805 45.1914 30.3545 45.959 30.3545ZM45.959 32.4639C45.3965 32.4639 44.9014 32.5869 44.4736 32.833C44.0459 33.0791 43.7148 33.4424 43.4805 33.9229C43.2461 34.3975 43.1289 34.9834 43.1289 35.6807C43.1289 36.1846 43.1963 36.6299 43.3311 37.0166C43.4717 37.3975 43.668 37.7168 43.9199 37.9746C44.1719 38.2324 44.4707 38.4287 44.8164 38.5635C45.1621 38.6982 45.543 38.7656 45.959 38.7656H48.8242C49.3809 38.7656 49.8672 38.6455 50.2832 38.4053C50.7051 38.165 51.0332 37.8135 51.2676 37.3506C51.502 36.8877 51.6191 36.3252 51.6191 35.6631C51.6191 35.1416 51.5518 34.6816 51.417 34.2832C51.2822 33.8848 51.0918 33.5508 50.8457 33.2812C50.5996 33.0117 50.3037 32.8096 49.958 32.6748C49.6182 32.5342 49.2402 32.4639 48.8242 32.4639H45.959ZM48.6484 28.6758V42.5273H46.1172V28.6758H48.6484ZM55.2754 37.3418V37.1572C55.2754 36.46 55.375 35.8184 55.5742 35.2324C55.7734 34.6406 56.0635 34.1279 56.4443 33.6943C56.8252 33.2607 57.2939 32.9238 57.8506 32.6836C58.4072 32.4375 59.0459 32.3145 59.7666 32.3145C60.4873 32.3145 61.1289 32.4375 61.6914 32.6836C62.2539 32.9238 62.7256 33.2607 63.1064 33.6943C63.4932 34.1279 63.7861 34.6406 63.9854 35.2324C64.1846 35.8184 64.2842 36.46 64.2842 37.1572V37.3418C64.2842 38.0332 64.1846 38.6748 63.9854 39.2666C63.7861 39.8525 63.4932 40.3652 63.1064 40.8047C62.7256 41.2383 62.2568 41.5752 61.7002 41.8154C61.1436 42.0557 60.5049 42.1758 59.7842 42.1758C59.0635 42.1758 58.4219 42.0557 57.8594 41.8154C57.3027 41.5752 56.8311 41.2383 56.4443 40.8047C56.0635 40.3652 55.7734 39.8525 55.5742 39.2666C55.375 38.6748 55.2754 38.0332 55.2754 37.3418ZM57.8066 37.1572V37.3418C57.8066 37.7402 57.8418 38.1123 57.9121 38.458C57.9824 38.8037 58.0938 39.1084 58.2461 39.3721C58.4043 39.6299 58.6094 39.832 58.8613 39.9785C59.1133 40.125 59.4209 40.1982 59.7842 40.1982C60.1357 40.1982 60.4375 40.125 60.6895 39.9785C60.9414 39.832 61.1436 39.6299 61.2959 39.3721C61.4482 39.1084 61.5596 38.8037 61.6299 38.458C61.7061 38.1123 61.7441 37.7402 61.7441 37.3418V37.1572C61.7441 36.7705 61.7061 36.4072 61.6299 36.0674C61.5596 35.7217 61.4453 35.417 61.2871 35.1533C61.1348 34.8838 60.9326 34.6729 60.6807 34.5205C60.4287 34.3682 60.124 34.292 59.7666 34.292C59.4092 34.292 59.1045 34.3682 58.8525 34.5205C58.6064 34.6729 58.4043 34.8838 58.2461 35.1533C58.0938 35.417 57.9824 35.7217 57.9121 36.0674C57.8418 36.4072 57.8066 36.7705 57.8066 37.1572ZM68.3711 34.3184V45.6562H65.8398V32.4902H68.1865L68.3711 34.3184ZM74.3916 37.1396V37.3242C74.3916 38.0156 74.3096 38.6572 74.1455 39.249C73.9873 39.8408 73.7529 40.3564 73.4424 40.7959C73.1318 41.2295 72.7451 41.5693 72.2822 41.8154C71.8252 42.0557 71.2979 42.1758 70.7002 42.1758C70.1201 42.1758 69.6162 42.0586 69.1885 41.8242C68.7607 41.5898 68.4004 41.2617 68.1074 40.8398C67.8203 40.4121 67.5889 39.917 67.4131 39.3545C67.2373 38.792 67.1025 38.1885 67.0088 37.5439V37.0605C67.1025 36.3691 67.2373 35.7363 67.4131 35.1621C67.5889 34.582 67.8203 34.0811 68.1074 33.6592C68.4004 33.2314 68.7578 32.9004 69.1797 32.666C69.6074 32.4316 70.1084 32.3145 70.6826 32.3145C71.2861 32.3145 71.8164 32.4287 72.2734 32.6572C72.7363 32.8857 73.123 33.2139 73.4336 33.6416C73.75 34.0693 73.9873 34.5791 74.1455 35.1709C74.3096 35.7627 74.3916 36.4189 74.3916 37.1396ZM71.8516 37.3242V37.1396C71.8516 36.7354 71.8164 36.3633 71.7461 36.0234C71.6816 35.6777 71.5762 35.376 71.4297 35.1182C71.2891 34.8604 71.1016 34.6611 70.8672 34.5205C70.6387 34.374 70.3604 34.3008 70.0322 34.3008C69.6865 34.3008 69.3906 34.3564 69.1445 34.4678C68.9043 34.5791 68.708 34.7402 68.5557 34.9512C68.4033 35.1621 68.2891 35.4141 68.2129 35.707C68.1367 36 68.0898 36.3311 68.0723 36.7002V37.9219C68.1016 38.3555 68.1836 38.7451 68.3184 39.0908C68.4531 39.4307 68.6611 39.7002 68.9424 39.8994C69.2236 40.0986 69.5928 40.1982 70.0498 40.1982C70.3838 40.1982 70.665 40.125 70.8936 39.9785C71.1221 39.8262 71.3066 39.6182 71.4473 39.3545C71.5938 39.0908 71.6963 38.7861 71.7549 38.4404C71.8193 38.0947 71.8516 37.7227 71.8516 37.3242ZM78.6807 40.9277L81.2031 32.4902H83.9189L80.0957 43.4326C80.0137 43.6729 79.9023 43.9307 79.7617 44.2061C79.627 44.4814 79.4424 44.7422 79.208 44.9883C78.9795 45.2402 78.6895 45.4453 78.3379 45.6035C77.9922 45.7617 77.5674 45.8408 77.0635 45.8408C76.8232 45.8408 76.627 45.8262 76.4746 45.7969C76.3223 45.7676 76.1406 45.7266 75.9297 45.6738V43.8193C75.9941 43.8193 76.0615 43.8193 76.1318 43.8193C76.2021 43.8252 76.2695 43.8281 76.334 43.8281C76.668 43.8281 76.9404 43.79 77.1514 43.7139C77.3623 43.6377 77.5322 43.5205 77.6611 43.3623C77.79 43.21 77.8926 43.0107 77.9688 42.7646L78.6807 40.9277ZM77.626 32.4902L79.6914 39.3809L80.0518 42.0615L78.3291 42.2461L74.9102 32.4902H77.626ZM90.7129 39.0908L93.209 32.4902H95.2744L91.5654 42H89.8604L86.1689 32.4902H88.2344L90.7129 39.0908ZM87.6279 32.4902V42H85.0967V32.4902H87.6279ZM93.8594 42V32.4902H96.3906V42H93.8594ZM98.7285 40.7783C98.7285 40.4033 98.8574 40.0898 99.1152 39.8379C99.3789 39.5859 99.7275 39.46 100.161 39.46C100.595 39.46 100.94 39.5859 101.198 39.8379C101.462 40.0898 101.594 40.4033 101.594 40.7783C101.594 41.1533 101.462 41.4668 101.198 41.7188C100.94 41.9707 100.595 42.0967 100.161 42.0967C99.7275 42.0967 99.3789 41.9707 99.1152 41.7188C98.8574 41.4668 98.7285 41.1533 98.7285 40.7783ZM114.496 35.3027V35.9092C114.496 36.8818 114.364 37.7549 114.101 38.5283C113.837 39.3018 113.465 39.9609 112.984 40.5059C112.504 41.0449 111.93 41.458 111.262 41.7451C110.6 42.0322 109.864 42.1758 109.056 42.1758C108.253 42.1758 107.518 42.0322 106.85 41.7451C106.188 41.458 105.613 41.0449 105.127 40.5059C104.641 39.9609 104.263 39.3018 103.993 38.5283C103.729 37.7549 103.598 36.8818 103.598 35.9092V35.3027C103.598 34.3242 103.729 33.4512 103.993 32.6836C104.257 31.9102 104.629 31.251 105.109 30.7061C105.596 30.1611 106.17 29.7451 106.832 29.458C107.5 29.1709 108.235 29.0273 109.038 29.0273C109.847 29.0273 110.582 29.1709 111.244 29.458C111.912 29.7451 112.486 30.1611 112.967 30.7061C113.453 31.251 113.828 31.9102 114.092 32.6836C114.361 33.4512 114.496 34.3242 114.496 35.3027ZM111.833 35.9092V35.2852C111.833 34.6055 111.771 34.0078 111.648 33.4922C111.525 32.9766 111.344 32.543 111.104 32.1914C110.863 31.8398 110.57 31.5762 110.225 31.4004C109.879 31.2188 109.483 31.1279 109.038 31.1279C108.593 31.1279 108.197 31.2188 107.852 31.4004C107.512 31.5762 107.222 31.8398 106.981 32.1914C106.747 32.543 106.568 32.9766 106.445 33.4922C106.322 34.0078 106.261 34.6055 106.261 35.2852V35.9092C106.261 36.583 106.322 37.1807 106.445 37.7021C106.568 38.2178 106.75 38.6543 106.99 39.0117C107.23 39.3633 107.523 39.6299 107.869 39.8115C108.215 39.9932 108.61 40.084 109.056 40.084C109.501 40.084 109.896 39.9932 110.242 39.8115C110.588 39.6299 110.878 39.3633 111.112 39.0117C111.347 38.6543 111.525 38.2178 111.648 37.7021C111.771 37.1807 111.833 36.583 111.833 35.9092ZM123.812 37.7549H126.44C126.388 38.6162 126.15 39.3809 125.729 40.0488C125.312 40.7168 124.729 41.2383 123.979 41.6133C123.235 41.9883 122.339 42.1758 121.29 42.1758C120.47 42.1758 119.734 42.0352 119.084 41.7539C118.434 41.4668 117.877 41.0566 117.414 40.5234C116.957 39.9902 116.608 39.3457 116.368 38.5898C116.128 37.834 116.008 36.9873 116.008 36.0498V35.1621C116.008 34.2246 116.131 33.3779 116.377 32.6221C116.629 31.8604 116.986 31.2129 117.449 30.6797C117.918 30.1465 118.478 29.7363 119.128 29.4492C119.778 29.1621 120.505 29.0186 121.308 29.0186C122.374 29.0186 123.273 29.2119 124.006 29.5986C124.744 29.9854 125.315 30.5186 125.72 31.1982C126.13 31.8779 126.376 32.6514 126.458 33.5186H123.821C123.792 33.0029 123.689 32.5664 123.514 32.209C123.338 31.8457 123.071 31.5732 122.714 31.3916C122.362 31.2041 121.894 31.1104 121.308 31.1104C120.868 31.1104 120.484 31.1924 120.156 31.3564C119.828 31.5205 119.553 31.7695 119.33 32.1035C119.107 32.4375 118.94 32.8594 118.829 33.3691C118.724 33.873 118.671 34.4648 118.671 35.1445V36.0498C118.671 36.7119 118.721 37.2949 118.82 37.7988C118.92 38.2969 119.072 38.7188 119.277 39.0645C119.488 39.4043 119.758 39.6621 120.086 39.8379C120.42 40.0078 120.821 40.0928 121.29 40.0928C121.841 40.0928 122.295 40.0049 122.652 39.8291C123.01 39.6533 123.282 39.3926 123.47 39.0469C123.663 38.7012 123.777 38.2705 123.812 37.7549ZM133.182 36.3838H129.895L129.877 34.5732H132.637C133.123 34.5732 133.521 34.5117 133.832 34.3887C134.143 34.2598 134.374 34.0752 134.526 33.835C134.685 33.5889 134.764 33.29 134.764 32.9385C134.764 32.54 134.688 32.2178 134.535 31.9717C134.389 31.7256 134.157 31.5469 133.841 31.4355C133.53 31.3242 133.129 31.2686 132.637 31.2686H130.809V42H128.172V29.2031H132.637C133.381 29.2031 134.046 29.2734 134.632 29.4141C135.224 29.5547 135.725 29.7686 136.135 30.0557C136.545 30.3428 136.858 30.7061 137.075 31.1455C137.292 31.5791 137.4 32.0947 137.4 32.6924C137.4 33.2197 137.28 33.7061 137.04 34.1514C136.806 34.5967 136.434 34.96 135.924 35.2412C135.42 35.5225 134.761 35.6777 133.946 35.707L133.182 36.3838ZM133.067 42H129.174L130.202 39.9434H133.067C133.53 39.9434 133.908 39.8701 134.201 39.7236C134.494 39.5713 134.711 39.3662 134.852 39.1084C134.992 38.8506 135.062 38.5547 135.062 38.2207C135.062 37.8457 134.998 37.5205 134.869 37.2451C134.746 36.9697 134.547 36.7588 134.271 36.6123C133.996 36.46 133.633 36.3838 133.182 36.3838H130.642L130.659 34.5732H133.823L134.43 35.2852C135.209 35.2734 135.836 35.4111 136.311 35.6982C136.791 35.9795 137.14 36.3457 137.356 36.7969C137.579 37.248 137.69 37.7314 137.69 38.2471C137.69 39.0674 137.512 39.7588 137.154 40.3213C136.797 40.8779 136.272 41.2969 135.581 41.5781C134.896 41.8594 134.058 42 133.067 42ZM142.472 29.2031V42H139.844V29.2031H142.472ZM150.399 29.2031V42H147.771V29.2031H150.399ZM154.337 29.2031V31.2686H143.896V29.2031H154.337ZM160.094 31.3916L156.613 42H153.81L158.564 29.2031H160.349L160.094 31.3916ZM162.985 42L159.496 31.3916L159.215 29.2031H161.017L165.798 42H162.985ZM162.827 37.2363V39.3018H156.068V37.2363H162.827ZM166.949 40.7783C166.949 40.4033 167.078 40.0898 167.336 39.8379C167.6 39.5859 167.948 39.46 168.382 39.46C168.815 39.46 169.161 39.5859 169.419 39.8379C169.683 40.0898 169.814 40.4033 169.814 40.7783C169.814 41.1533 169.683 41.4668 169.419 41.7188C169.161 41.9707 168.815 42.0967 168.382 42.0967C167.948 42.0967 167.6 41.9707 167.336 41.7188C167.078 41.4668 166.949 41.1533 166.949 40.7783ZM179.271 29.2031H181.899V37.6582C181.899 38.6426 181.688 39.4717 181.267 40.1455C180.851 40.8193 180.273 41.3262 179.535 41.666C178.803 42.0059 177.959 42.1758 177.004 42.1758C176.049 42.1758 175.199 42.0059 174.455 41.666C173.717 41.3262 173.137 40.8193 172.715 40.1455C172.299 39.4717 172.091 38.6426 172.091 37.6582V29.2031H174.728V37.6582C174.728 38.2324 174.818 38.7012 175 39.0645C175.182 39.4277 175.442 39.6943 175.782 39.8643C176.128 40.0342 176.535 40.1191 177.004 40.1191C177.484 40.1191 177.892 40.0342 178.226 39.8643C178.565 39.6943 178.823 39.4277 178.999 39.0645C179.181 38.7012 179.271 38.2324 179.271 37.6582V29.2031ZM189.08 31.3916L185.6 42H182.796L187.551 29.2031H189.335L189.08 31.3916ZM191.972 42L188.482 31.3916L188.201 29.2031H190.003L194.784 42H191.972ZM191.813 37.2363V39.3018H185.055V37.2363H191.813Z" fill="white"/>
<path d="M48.358 64L44.592 59.114L45.432 58.61L49.548 64H48.358ZM41.652 64V54.2H42.66V64H41.652ZM42.352 59.506V58.596H45.418V59.506H42.352ZM45.516 59.212L44.564 59.044L48.218 54.2H49.338L45.516 59.212ZM53.7042 64.07C52.9949 64.07 52.3556 63.9113 51.7862 63.594C51.2262 63.2673 50.7829 62.824 50.4562 62.264C50.1296 61.6947 49.9662 61.046 49.9662 60.318C49.9662 59.5807 50.1296 58.932 50.4562 58.372C50.7829 57.812 51.2262 57.3733 51.7862 57.056C52.3462 56.7387 52.9856 56.58 53.7042 56.58C54.4322 56.58 55.0762 56.7387 55.6362 57.056C56.2056 57.3733 56.6489 57.812 56.9662 58.372C57.2929 58.932 57.4563 59.5807 57.4563 60.318C57.4563 61.046 57.2929 61.6947 56.9662 62.264C56.6489 62.824 56.2056 63.2673 55.6362 63.594C55.0669 63.9113 54.4229 64.07 53.7042 64.07ZM53.7042 63.188C54.2362 63.188 54.7076 63.0713 55.1182 62.838C55.5289 62.5953 55.8509 62.2593 56.0842 61.83C56.3269 61.3913 56.4482 60.8873 56.4482 60.318C56.4482 59.7393 56.3269 59.2353 56.0842 58.806C55.8509 58.3767 55.5289 58.0453 55.1182 57.812C54.7076 57.5693 54.2409 57.448 53.7182 57.448C53.1956 57.448 52.7289 57.5693 52.3182 57.812C51.9076 58.0453 51.5809 58.3767 51.3382 58.806C51.0956 59.2353 50.9742 59.7393 50.9742 60.318C50.9742 60.8873 51.0956 61.3913 51.3382 61.83C51.5809 62.2593 51.9076 62.5953 52.3182 62.838C52.7289 63.0713 53.1909 63.188 53.7042 63.188ZM59.4406 64V56.65H60.4346V59.898H65.0686V56.65H66.0626V64H65.0686V60.752H60.4346V64H59.4406ZM71.8279 64.07C71.0999 64.07 70.4466 63.9113 69.8679 63.594C69.2986 63.2673 68.8506 62.824 68.5239 62.264C68.1972 61.6947 68.0339 61.046 68.0339 60.318C68.0339 59.5807 68.1972 58.932 68.5239 58.372C68.8506 57.812 69.2986 57.3733 69.8679 57.056C70.4466 56.7387 71.0999 56.58 71.8279 56.58C72.4532 56.58 73.0179 56.7013 73.5219 56.944C74.0259 57.1867 74.4226 57.5507 74.7119 58.036L73.9699 58.54C73.7179 58.1667 73.4052 57.8913 73.0319 57.714C72.6586 57.5367 72.2526 57.448 71.8139 57.448C71.2912 57.448 70.8199 57.5693 70.3999 57.812C69.9799 58.0453 69.6486 58.3767 69.4059 58.806C69.1632 59.2353 69.0419 59.7393 69.0419 60.318C69.0419 60.8967 69.1632 61.4007 69.4059 61.83C69.6486 62.2593 69.9799 62.5953 70.3999 62.838C70.8199 63.0713 71.2912 63.188 71.8139 63.188C72.2526 63.188 72.6586 63.0993 73.0319 62.922C73.4052 62.7447 73.7179 62.474 73.9699 62.11L74.7119 62.614C74.4226 63.09 74.0259 63.454 73.5219 63.706C73.0179 63.9487 72.4532 64.07 71.8279 64.07ZM76.5132 66.786C76.1679 66.786 75.8365 66.73 75.5192 66.618C75.2112 66.506 74.9452 66.338 74.7212 66.114L75.1832 65.372C75.3699 65.5493 75.5705 65.6847 75.7852 65.778C76.0092 65.8807 76.2565 65.932 76.5272 65.932C76.8539 65.932 77.1339 65.8387 77.3672 65.652C77.6099 65.4747 77.8385 65.1573 78.0532 64.7L78.5292 63.622L78.6412 63.468L81.6652 56.65H82.6452L78.9632 64.882C78.7579 65.358 78.5292 65.736 78.2772 66.016C78.0345 66.296 77.7685 66.492 77.4792 66.604C77.1899 66.7253 76.8679 66.786 76.5132 66.786ZM78.4732 64.21L75.0852 56.65H76.1212L79.1172 63.398L78.4732 64.21ZM82.3954 63.986L82.4654 63.132C82.5307 63.1413 82.5914 63.1553 82.6474 63.174C82.7127 63.1833 82.7687 63.188 82.8154 63.188C83.1141 63.188 83.3521 63.076 83.5294 62.852C83.7161 62.628 83.8561 62.3293 83.9494 61.956C84.0427 61.5827 84.1081 61.1627 84.1454 60.696C84.1827 60.22 84.2154 59.744 84.2434 59.268L84.3694 56.65H89.7594V64H88.7654V57.224L89.0174 57.518H85.0134L85.2514 57.21L85.1394 59.338C85.1114 59.9727 85.0601 60.5793 84.9854 61.158C84.9201 61.7367 84.8127 62.2453 84.6634 62.684C84.5234 63.1227 84.3274 63.468 84.0754 63.72C83.8234 63.9627 83.5014 64.084 83.1094 64.084C82.9974 64.084 82.8807 64.0747 82.7594 64.056C82.6474 64.0373 82.5261 64.014 82.3954 63.986ZM95.6091 59.24C96.5331 59.2493 97.2331 59.4547 97.7091 59.856C98.1944 60.2573 98.4371 60.836 98.4371 61.592C98.4371 62.376 98.1758 62.978 97.6531 63.398C97.1398 63.818 96.3931 64.0233 95.4131 64.014L92.4451 64V56.65H93.4391V59.212L95.6091 59.24ZM95.3571 63.258C96.0384 63.2673 96.5518 63.132 96.8971 62.852C97.2518 62.5627 97.4291 62.1427 97.4291 61.592C97.4291 61.0413 97.2564 60.64 96.9111 60.388C96.5658 60.1267 96.0478 59.9913 95.3571 59.982L93.4391 59.954V63.23L95.3571 63.258ZM100.855 64V57.252L101.107 57.518H98.0695V56.65H104.635V57.518H101.597L101.849 57.252V64H100.855ZM106.059 66.786C105.713 66.786 105.382 66.73 105.065 66.618C104.757 66.506 104.491 66.338 104.267 66.114L104.729 65.372C104.915 65.5493 105.116 65.6847 105.331 65.778C105.555 65.8807 105.802 65.932 106.073 65.932C106.399 65.932 106.679 65.8387 106.913 65.652C107.155 65.4747 107.384 65.1573 107.599 64.7L108.075 63.622L108.187 63.468L111.211 56.65H112.191L108.509 64.882C108.303 65.358 108.075 65.736 107.823 66.016C107.58 66.296 107.314 66.492 107.025 66.604C106.735 66.7253 106.413 66.786 106.059 66.786ZM108.019 64.21L104.631 56.65H105.667L108.663 63.398L108.019 64.21ZM113.599 64V56.65H114.593V62.488L119.507 56.65H120.389V64H119.395V58.148L114.495 64H113.599ZM116.931 55.586C116.315 55.586 115.816 55.432 115.433 55.124C115.06 54.8067 114.864 54.354 114.845 53.766H115.559C115.569 54.1393 115.699 54.4333 115.951 54.648C116.203 54.8627 116.53 54.97 116.931 54.97C117.333 54.97 117.659 54.8627 117.911 54.648C118.173 54.4333 118.308 54.1393 118.317 53.766H119.031C119.022 54.354 118.826 54.8067 118.443 55.124C118.061 55.432 117.557 55.586 116.931 55.586ZM126.178 64.07C125.45 64.07 124.797 63.9113 124.218 63.594C123.649 63.2673 123.201 62.824 122.874 62.264C122.547 61.6947 122.384 61.046 122.384 60.318C122.384 59.5807 122.547 58.932 122.874 58.372C123.201 57.812 123.649 57.3733 124.218 57.056C124.797 56.7387 125.45 56.58 126.178 56.58C126.803 56.58 127.368 56.7013 127.872 56.944C128.376 57.1867 128.773 57.5507 129.062 58.036L128.32 58.54C128.068 58.1667 127.755 57.8913 127.382 57.714C127.009 57.5367 126.603 57.448 126.164 57.448C125.641 57.448 125.17 57.5693 124.75 57.812C124.33 58.0453 123.999 58.3767 123.756 58.806C123.513 59.2353 123.392 59.7393 123.392 60.318C123.392 60.8967 123.513 61.4007 123.756 61.83C123.999 62.2593 124.33 62.5953 124.75 62.838C125.17 63.0713 125.641 63.188 126.164 63.188C126.603 63.188 127.009 63.0993 127.382 62.922C127.755 62.7447 128.068 62.474 128.32 62.11L129.062 62.614C128.773 63.09 128.376 63.454 127.872 63.706C127.368 63.9487 126.803 64.07 126.178 64.07ZM135.347 64V61.354L135.529 61.564H133.037C132.094 61.564 131.357 61.3587 130.825 60.948C130.293 60.5373 130.027 59.94 130.027 59.156C130.027 58.316 130.311 57.6907 130.881 57.28C131.45 56.86 132.211 56.65 133.163 56.65H136.257V64H135.347ZM129.971 64L131.987 61.172H133.023L131.049 64H129.971ZM135.347 61.06V57.224L135.529 57.518H133.191C132.509 57.518 131.977 57.6487 131.595 57.91C131.221 58.1713 131.035 58.596 131.035 59.184C131.035 60.276 131.73 60.822 133.121 60.822H135.529L135.347 61.06ZM143.875 64V57.252L144.127 57.518H141.089V56.65H147.655V57.518H144.617L144.869 57.252V64H143.875ZM153.516 64V62.376L153.474 62.11V59.394C153.474 58.7687 153.297 58.288 152.942 57.952C152.597 57.616 152.079 57.448 151.388 57.448C150.912 57.448 150.459 57.5273 150.03 57.686C149.601 57.8447 149.237 58.0547 148.938 58.316L148.49 57.574C148.863 57.2567 149.311 57.014 149.834 56.846C150.357 56.6687 150.907 56.58 151.486 56.58C152.438 56.58 153.171 56.818 153.684 57.294C154.207 57.7607 154.468 58.4747 154.468 59.436V64H153.516ZM150.982 64.07C150.431 64.07 149.951 63.9813 149.54 63.804C149.139 63.6173 148.831 63.3653 148.616 63.048C148.401 62.7213 148.294 62.348 148.294 61.928C148.294 61.5453 148.383 61.2 148.56 60.892C148.747 60.5747 149.045 60.3227 149.456 60.136C149.876 59.94 150.436 59.842 151.136 59.842H153.67V60.584H151.164C150.455 60.584 149.96 60.71 149.68 60.962C149.409 61.214 149.274 61.5267 149.274 61.9C149.274 62.32 149.437 62.656 149.764 62.908C150.091 63.16 150.548 63.286 151.136 63.286C151.696 63.286 152.177 63.16 152.578 62.908C152.989 62.6467 153.287 62.2733 153.474 61.788L153.698 62.474C153.511 62.9593 153.185 63.3467 152.718 63.636C152.261 63.9253 151.682 64.07 150.982 64.07ZM163.578 64.07C162.85 64.07 162.197 63.9113 161.618 63.594C161.049 63.2673 160.601 62.824 160.274 62.264C159.948 61.6947 159.784 61.046 159.784 60.318C159.784 59.5807 159.948 58.932 160.274 58.372C160.601 57.812 161.049 57.3733 161.618 57.056C162.197 56.7387 162.85 56.58 163.578 56.58C164.204 56.58 164.768 56.7013 165.272 56.944C165.776 57.1867 166.173 57.5507 166.462 58.036L165.72 58.54C165.468 58.1667 165.156 57.8913 164.782 57.714C164.409 57.5367 164.003 57.448 163.564 57.448C163.042 57.448 162.57 57.5693 162.15 57.812C161.73 58.0453 161.399 58.3767 161.156 58.806C160.914 59.2353 160.792 59.7393 160.792 60.318C160.792 60.8967 160.914 61.4007 161.156 61.83C161.399 62.2593 161.73 62.5953 162.15 62.838C162.57 63.0713 163.042 63.188 163.564 63.188C164.003 63.188 164.409 63.0993 164.782 62.922C165.156 62.7447 165.468 62.474 165.72 62.11L166.462 62.614C166.173 63.09 165.776 63.454 165.272 63.706C164.768 63.9487 164.204 64.07 163.578 64.07ZM168.247 64V56.65H174.855V64H173.861V57.252L174.113 57.518H168.989L169.241 57.252V64H168.247ZM177.54 64V56.65H178.534V64H177.54ZM178.044 55.026C177.839 55.026 177.666 54.956 177.526 54.816C177.386 54.676 177.316 54.508 177.316 54.312C177.316 54.116 177.386 53.9527 177.526 53.822C177.666 53.682 177.839 53.612 178.044 53.612C178.25 53.612 178.422 53.6773 178.562 53.808C178.702 53.9387 178.772 54.102 178.772 54.298C178.772 54.5033 178.702 54.676 178.562 54.816C178.432 54.956 178.259 55.026 178.044 55.026ZM179.885 63.986L179.955 63.132C180.02 63.1413 180.081 63.1553 180.137 63.174C180.202 63.1833 180.258 63.188 180.305 63.188C180.603 63.188 180.841 63.076 181.019 62.852C181.205 62.628 181.345 62.3293 181.439 61.956C181.532 61.5827 181.597 61.1627 181.635 60.696C181.672 60.22 181.705 59.744 181.733 59.268L181.859 56.65H187.249V64H186.255V57.224L186.507 57.518H182.503L182.741 57.21L182.629 59.338C182.601 59.9727 182.549 60.5793 182.475 61.158C182.409 61.7367 182.302 62.2453 182.153 62.684C182.013 63.1227 181.817 63.468 181.565 63.72C181.313 63.9627 180.991 64.084 180.599 64.084C180.487 64.084 180.37 64.0747 180.249 64.056C180.137 64.0373 180.015 64.014 179.885 63.986ZM195.324 64L192.3 60.36L193.126 59.87L196.5 64H195.324ZM189.934 64V56.65H190.928V64H189.934ZM190.62 60.724V59.87H192.986V60.724H190.62ZM193.21 60.43L192.286 60.29L195.212 56.65H196.29L193.21 60.43ZM197.631 66.786C197.286 66.786 196.955 66.73 196.637 66.618C196.329 66.506 196.063 66.338 195.839 66.114L196.301 65.372C196.488 65.5493 196.689 65.6847 196.903 65.778C197.127 65.8807 197.375 65.932 197.645 65.932C197.972 65.932 198.252 65.8387 198.485 65.652C198.728 65.4747 198.957 65.1573 199.171 64.7L199.647 63.622L199.759 63.468L202.783 56.65H203.763L200.081 64.882C199.876 65.358 199.647 65.736 199.395 66.016C199.153 66.296 198.887 66.492 198.597 66.604C198.308 66.7253 197.986 66.786 197.631 66.786ZM199.591 64.21L196.203 56.65H197.239L200.235 63.398L199.591 64.21ZM205.172 64V56.65H206.166V62.488L211.08 56.65H211.962V64H210.968V58.148L206.068 64H205.172ZM208.504 55.586C207.888 55.586 207.389 55.432 207.006 55.124C206.633 54.8067 206.437 54.354 206.418 53.766H207.132C207.141 54.1393 207.272 54.4333 207.524 54.648C207.776 54.8627 208.103 54.97 208.504 54.97C208.905 54.97 209.232 54.8627 209.484 54.648C209.745 54.4333 209.881 54.1393 209.89 53.766H210.604C210.595 54.354 210.399 54.8067 210.016 55.124C209.633 55.432 209.129 55.586 208.504 55.586ZM217.751 64.07C217.023 64.07 216.369 63.9113 215.791 63.594C215.221 63.2673 214.773 62.824 214.447 62.264C214.12 61.6947 213.957 61.046 213.957 60.318C213.957 59.5807 214.12 58.932 214.447 58.372C214.773 57.812 215.221 57.3733 215.791 57.056C216.369 56.7387 217.023 56.58 217.751 56.58C218.376 56.58 218.941 56.7013 219.445 56.944C219.949 57.1867 220.345 57.5507 220.635 58.036L219.893 58.54C219.641 58.1667 219.328 57.8913 218.955 57.714C218.581 57.5367 218.175 57.448 217.737 57.448C217.214 57.448 216.743 57.5693 216.323 57.812C215.903 58.0453 215.571 58.3767 215.329 58.806C215.086 59.2353 214.965 59.7393 214.965 60.318C214.965 60.8967 215.086 61.4007 215.329 61.83C215.571 62.2593 215.903 62.5953 216.323 62.838C216.743 63.0713 217.214 63.188 217.737 63.188C218.175 63.188 218.581 63.0993 218.955 62.922C219.328 62.7447 219.641 62.474 219.893 62.11L220.635 62.614C220.345 63.09 219.949 63.454 219.445 63.706C218.941 63.9487 218.376 64.07 217.751 64.07ZM226.919 64V61.354L227.101 61.564H224.609C223.666 61.564 222.929 61.3587 222.397 60.948C221.865 60.5373 221.599 59.94 221.599 59.156C221.599 58.316 221.884 57.6907 222.453 57.28C223.022 56.86 223.783 56.65 224.735 56.65H227.829V64H226.919ZM221.543 64L223.559 61.172H224.595L222.621 64H221.543ZM226.919 61.06V57.224L227.101 57.518H224.763C224.082 57.518 223.55 57.6487 223.167 57.91C222.794 58.1713 222.607 58.596 222.607 59.184C222.607 60.276 223.302 60.822 224.693 60.822H227.101L226.919 61.06ZM236.021 64.084C235.489 64.084 234.962 64.0093 234.439 63.86C233.917 63.7107 233.455 63.482 233.053 63.174L233.375 62.432C233.73 62.6933 234.141 62.894 234.607 63.034C235.074 63.1647 235.536 63.23 235.993 63.23C236.451 63.2207 236.847 63.1553 237.183 63.034C237.519 62.9127 237.781 62.7447 237.967 62.53C238.154 62.3153 238.247 62.0727 238.247 61.802C238.247 61.41 238.07 61.1067 237.715 60.892C237.361 60.668 236.875 60.556 236.259 60.556H234.999V59.828H236.189C236.553 59.828 236.875 59.7813 237.155 59.688C237.435 59.5947 237.65 59.4593 237.799 59.282C237.958 59.1047 238.037 58.8947 238.037 58.652C238.037 58.3907 237.944 58.1667 237.757 57.98C237.58 57.7933 237.333 57.6533 237.015 57.56C236.698 57.4667 236.339 57.42 235.937 57.42C235.573 57.4293 235.195 57.4853 234.803 57.588C234.411 57.6813 234.024 57.826 233.641 58.022L233.361 57.252C233.791 57.028 234.215 56.86 234.635 56.748C235.065 56.6267 235.494 56.566 235.923 56.566C236.511 56.5473 237.039 56.6173 237.505 56.776C237.981 56.9347 238.359 57.1633 238.639 57.462C238.919 57.7513 239.059 58.1013 239.059 58.512C239.059 58.876 238.947 59.1933 238.723 59.464C238.499 59.7347 238.201 59.9447 237.827 60.094C237.454 60.2433 237.029 60.318 236.553 60.318L236.595 60.052C237.435 60.052 238.089 60.2153 238.555 60.542C239.031 60.8687 239.269 61.312 239.269 61.872C239.269 62.3107 239.125 62.698 238.835 63.034C238.546 63.3607 238.154 63.6173 237.659 63.804C237.174 63.9907 236.628 64.084 236.021 64.084ZM250.3 64L247.276 60.36L248.102 59.87L251.476 64H250.3ZM244.91 64V56.65H245.904V64H244.91ZM245.596 60.724V59.87H247.962V60.724H245.596ZM248.186 60.43L247.262 60.29L250.188 56.65H251.266L248.186 60.43ZM255.669 64.07C254.96 64.07 254.32 63.9113 253.751 63.594C253.191 63.2673 252.748 62.824 252.421 62.264C252.094 61.6947 251.931 61.046 251.931 60.318C251.931 59.5807 252.094 58.932 252.421 58.372C252.748 57.812 253.191 57.3733 253.751 57.056C254.311 56.7387 254.95 56.58 255.669 56.58C256.397 56.58 257.041 56.7387 257.601 57.056C258.17 57.3733 258.614 57.812 258.931 58.372C259.258 58.932 259.421 59.5807 259.421 60.318C259.421 61.046 259.258 61.6947 258.931 62.264C258.614 62.824 258.17 63.2673 257.601 63.594C257.032 63.9113 256.388 64.07 255.669 64.07ZM255.669 63.188C256.201 63.188 256.672 63.0713 257.083 62.838C257.494 62.5953 257.816 62.2593 258.049 61.83C258.292 61.3913 258.413 60.8873 258.413 60.318C258.413 59.7393 258.292 59.2353 258.049 58.806C257.816 58.3767 257.494 58.0453 257.083 57.812C256.672 57.5693 256.206 57.448 255.683 57.448C255.16 57.448 254.694 57.5693 254.283 57.812C253.872 58.0453 253.546 58.3767 253.303 58.806C253.06 59.2353 252.939 59.7393 252.939 60.318C252.939 60.8873 253.06 61.3913 253.303 61.83C253.546 62.2593 253.872 62.5953 254.283 62.838C254.694 63.0713 255.156 63.188 255.669 63.188ZM260.02 63.986L260.09 63.132C260.156 63.1413 260.216 63.1553 260.272 63.174C260.338 63.1833 260.394 63.188 260.44 63.188C260.739 63.188 260.977 63.076 261.154 62.852C261.341 62.628 261.481 62.3293 261.574 61.956C261.668 61.5827 261.733 61.1627 261.77 60.696C261.808 60.22 261.84 59.744 261.868 59.268L261.994 56.65H267.384V64H266.39V57.224L266.642 57.518H262.638L262.876 57.21L262.764 59.338C262.736 59.9727 262.685 60.5793 262.61 61.158C262.545 61.7367 262.438 62.2453 262.288 62.684C262.148 63.1227 261.952 63.468 261.7 63.72C261.448 63.9627 261.126 64.084 260.734 64.084C260.622 64.084 260.506 64.0747 260.384 64.056C260.272 64.0373 260.151 64.014 260.02 63.986ZM273.22 64.07C272.455 64.07 271.783 63.9113 271.204 63.594C270.625 63.2673 270.173 62.824 269.846 62.264C269.519 61.6947 269.356 61.046 269.356 60.318C269.356 59.59 269.51 58.946 269.818 58.386C270.135 57.826 270.565 57.3873 271.106 57.07C271.657 56.7433 272.273 56.58 272.954 56.58C273.645 56.58 274.256 56.7387 274.788 57.056C275.329 57.364 275.754 57.8027 276.062 58.372C276.37 58.932 276.524 59.5807 276.524 60.318C276.524 60.3647 276.519 60.416 276.51 60.472C276.51 60.5187 276.51 60.57 276.51 60.626H270.112V59.884H275.978L275.586 60.178C275.586 59.646 275.469 59.1747 275.236 58.764C275.012 58.344 274.704 58.0173 274.312 57.784C273.92 57.5507 273.467 57.434 272.954 57.434C272.45 57.434 271.997 57.5507 271.596 57.784C271.195 58.0173 270.882 58.344 270.658 58.764C270.434 59.184 270.322 59.6647 270.322 60.206V60.36C270.322 60.92 270.443 61.4147 270.686 61.844C270.938 62.264 271.283 62.5953 271.722 62.838C272.17 63.0713 272.679 63.188 273.248 63.188C273.696 63.188 274.111 63.1087 274.494 62.95C274.886 62.7913 275.222 62.5487 275.502 62.222L276.062 62.866C275.735 63.258 275.325 63.5567 274.83 63.762C274.345 63.9673 273.808 64.07 273.22 64.07ZM278.584 64V56.65H283.792V57.518H279.326L279.578 57.266V64H278.584ZM289.653 64V62.376L289.611 62.11V59.394C289.611 58.7687 289.434 58.288 289.079 57.952C288.734 57.616 288.216 57.448 287.525 57.448C287.049 57.448 286.596 57.5273 286.167 57.686C285.738 57.8447 285.374 58.0547 285.075 58.316L284.627 57.574C285 57.2567 285.448 57.014 285.971 56.846C286.494 56.6687 287.044 56.58 287.623 56.58C288.575 56.58 289.308 56.818 289.821 57.294C290.344 57.7607 290.605 58.4747 290.605 59.436V64H289.653ZM287.119 64.07C286.568 64.07 286.088 63.9813 285.677 63.804C285.276 63.6173 284.968 63.3653 284.753 63.048C284.538 62.7213 284.431 62.348 284.431 61.928C284.431 61.5453 284.52 61.2 284.697 60.892C284.884 60.5747 285.182 60.3227 285.593 60.136C286.013 59.94 286.573 59.842 287.273 59.842H289.807V60.584H287.301C286.592 60.584 286.097 60.71 285.817 60.962C285.546 61.214 285.411 61.5267 285.411 61.9C285.411 62.32 285.574 62.656 285.901 62.908C286.228 63.16 286.685 63.286 287.273 63.286C287.833 63.286 288.314 63.16 288.715 62.908C289.126 62.6467 289.424 62.2733 289.611 61.788L289.835 62.474C289.648 62.9593 289.322 63.3467 288.855 63.636C288.398 63.9253 287.819 64.07 287.119 64.07ZM293.111 64V56.65H294.119L297.451 62.292H297.031L300.419 56.65H301.343V64H300.433V57.784L300.615 57.868L297.451 63.104H297.003L293.811 57.812L294.021 57.77V64H293.111ZM304.032 64V56.65H305.026V62.488L309.94 56.65H310.822V64H309.828V58.148L304.928 64H304.032ZM318.454 64V57.252L318.706 57.518H315.668V56.65H322.234V57.518H319.196L319.448 57.252V64H318.454ZM328.095 64V62.376L328.053 62.11V59.394C328.053 58.7687 327.876 58.288 327.521 57.952C327.176 57.616 326.658 57.448 325.967 57.448C325.491 57.448 325.039 57.5273 324.609 57.686C324.18 57.8447 323.816 58.0547 323.517 58.316L323.069 57.574C323.443 57.2567 323.891 57.014 324.413 56.846C324.936 56.6687 325.487 56.58 326.065 56.58C327.017 56.58 327.75 56.818 328.263 57.294C328.786 57.7607 329.047 58.4747 329.047 59.436V64H328.095ZM325.561 64.07C325.011 64.07 324.53 63.9813 324.119 63.804C323.718 63.6173 323.41 63.3653 323.195 63.048C322.981 62.7213 322.873 62.348 322.873 61.928C322.873 61.5453 322.962 61.2 323.139 60.892C323.326 60.5747 323.625 60.3227 324.035 60.136C324.455 59.94 325.015 59.842 325.715 59.842H328.249V60.584H325.743C325.034 60.584 324.539 60.71 324.259 60.962C323.989 61.214 323.853 61.5267 323.853 61.9C323.853 62.32 324.017 62.656 324.343 62.908C324.67 63.16 325.127 63.286 325.715 63.286C326.275 63.286 326.756 63.16 327.157 62.908C327.568 62.6467 327.867 62.2733 328.053 61.788L328.277 62.474C328.091 62.9593 327.764 63.3467 327.297 63.636C326.84 63.9253 326.261 64.07 325.561 64.07ZM338.102 64.07C337.392 64.07 336.753 63.9113 336.184 63.594C335.624 63.2673 335.18 62.824 334.854 62.264C334.527 61.6947 334.364 61.046 334.364 60.318C334.364 59.5807 334.527 58.932 334.854 58.372C335.18 57.812 335.624 57.3733 336.184 57.056C336.744 56.7387 337.383 56.58 338.102 56.58C338.83 56.58 339.474 56.7387 340.034 57.056C340.603 57.3733 341.046 57.812 341.364 58.372C341.69 58.932 341.854 59.5807 341.854 60.318C341.854 61.046 341.69 61.6947 341.364 62.264C341.046 62.824 340.603 63.2673 340.034 63.594C339.464 63.9113 338.82 64.07 338.102 64.07ZM338.102 63.188C338.634 63.188 339.105 63.0713 339.516 62.838C339.926 62.5953 340.248 62.2593 340.482 61.83C340.724 61.3913 340.846 60.8873 340.846 60.318C340.846 59.7393 340.724 59.2353 340.482 58.806C340.248 58.3767 339.926 58.0453 339.516 57.812C339.105 57.5693 338.638 57.448 338.116 57.448C337.593 57.448 337.126 57.5693 336.716 57.812C336.305 58.0453 335.978 58.3767 335.736 58.806C335.493 59.2353 335.372 59.7393 335.372 60.318C335.372 60.8873 335.493 61.3913 335.736 61.83C335.978 62.2593 336.305 62.5953 336.716 62.838C337.126 63.0713 337.588 63.188 338.102 63.188ZM348.837 63.524V57.518H345.295L345.211 59.156C345.192 59.6507 345.16 60.136 345.113 60.612C345.076 61.088 345.006 61.5267 344.903 61.928C344.81 62.32 344.674 62.642 344.497 62.894C344.32 63.1367 344.091 63.2767 343.811 63.314L342.817 63.132C343.106 63.1413 343.344 63.0387 343.531 62.824C343.718 62.6 343.862 62.2967 343.965 61.914C344.068 61.5313 344.142 61.0973 344.189 60.612C344.236 60.1173 344.273 59.6133 344.301 59.1L344.399 56.65H349.831V63.524H348.837ZM342.509 65.778V63.132H350.979V65.778H350.041V64H343.447V65.778H342.509ZM352.776 64V56.65H353.77V59.898H358.404V56.65H359.398V64H358.404V60.752H353.77V64H352.776ZM365.107 64.07C364.398 64.07 363.759 63.9113 363.189 63.594C362.629 63.2673 362.186 62.824 361.859 62.264C361.533 61.6947 361.369 61.046 361.369 60.318C361.369 59.5807 361.533 58.932 361.859 58.372C362.186 57.812 362.629 57.3733 363.189 57.056C363.749 56.7387 364.389 56.58 365.107 56.58C365.835 56.58 366.479 56.7387 367.039 57.056C367.609 57.3733 368.052 57.812 368.369 58.372C368.696 58.932 368.859 59.5807 368.859 60.318C368.859 61.046 368.696 61.6947 368.369 62.264C368.052 62.824 367.609 63.2673 367.039 63.594C366.47 63.9113 365.826 64.07 365.107 64.07ZM365.107 63.188C365.639 63.188 366.111 63.0713 366.521 62.838C366.932 62.5953 367.254 62.2593 367.487 61.83C367.73 61.3913 367.851 60.8873 367.851 60.318C367.851 59.7393 367.73 59.2353 367.487 58.806C367.254 58.3767 366.932 58.0453 366.521 57.812C366.111 57.5693 365.644 57.448 365.121 57.448C364.599 57.448 364.132 57.5693 363.721 57.812C363.311 58.0453 362.984 58.3767 362.741 58.806C362.499 59.2353 362.377 59.7393 362.377 60.318C362.377 60.8873 362.499 61.3913 362.741 61.83C362.984 62.2593 363.311 62.5953 363.721 62.838C364.132 63.0713 364.594 63.188 365.107 63.188ZM375.843 63.524V57.518H372.301L372.217 59.156C372.198 59.6507 372.165 60.136 372.119 60.612C372.081 61.088 372.011 61.5267 371.909 61.928C371.815 62.32 371.68 62.642 371.503 62.894C371.325 63.1367 371.097 63.2767 370.817 63.314L369.823 63.132C370.112 63.1413 370.35 63.0387 370.537 62.824C370.723 62.6 370.868 62.2967 370.971 61.914C371.073 61.5313 371.148 61.0973 371.195 60.612C371.241 60.1173 371.279 59.6133 371.307 59.1L371.405 56.65H376.837V63.524H375.843ZM369.515 65.778V63.132H377.985V65.778H377.047V64H370.453V65.778H369.515ZM379.908 66.786C379.563 66.786 379.231 66.73 378.914 66.618C378.606 66.506 378.34 66.338 378.116 66.114L378.578 65.372C378.765 65.5493 378.965 65.6847 379.18 65.778C379.404 65.8807 379.651 65.932 379.922 65.932C380.249 65.932 380.529 65.8387 380.762 65.652C381.005 65.4747 381.233 65.1573 381.448 64.7L381.924 63.622L382.036 63.468L385.06 56.65H386.04L382.358 64.882C382.153 65.358 381.924 65.736 381.672 66.016C381.429 66.296 381.163 66.492 380.874 66.604C380.585 66.7253 380.263 66.786 379.908 66.786ZM381.868 64.21L378.48 56.65H379.516L382.512 63.398L381.868 64.21ZM387.449 64V56.65H388.457L391.789 62.292H391.369L394.757 56.65H395.681V64H394.771V57.784L394.953 57.868L391.789 63.104H391.341L388.149 57.812L388.359 57.77V64H387.449ZM398.369 64V56.65H399.363V63.132H403.857V56.65H404.851V64H398.369ZM405.103 65.778V63.916L405.355 64H403.857V63.132H406.041V65.778H405.103ZM412.545 64V61.354L412.727 61.564H410.235C409.293 61.564 408.555 61.3587 408.023 60.948C407.491 60.5373 407.225 59.94 407.225 59.156C407.225 58.316 407.51 57.6907 408.079 57.28C408.649 56.86 409.409 56.65 410.361 56.65H413.455V64H412.545ZM407.169 64L409.185 61.172H410.221L408.247 64H407.169ZM412.545 61.06V57.224L412.727 57.518H410.389C409.708 57.518 409.176 57.6487 408.793 57.91C408.42 58.1713 408.233 58.596 408.233 59.184C408.233 60.276 408.929 60.822 410.319 60.822H412.727L412.545 61.06ZM416.15 64V56.65H417.158L420.49 62.292H420.07L423.458 56.65H424.382V64H423.472V57.784L423.654 57.868L420.49 63.104H420.042L416.85 57.812L417.06 57.77V64H416.15ZM427.07 64V56.65H428.064V62.488L432.978 56.65H433.86V64H432.866V58.148L427.966 64H427.07Z" fill="white"/>
<g filter="url(#filter0_d_2_19)">
<path d="M493 12C472.826 12 458 27.126 458 46.8968C458 66.6676 472.826 81.7936 493 81.7936C513.174 81.7936 528 66.6676 528 46.8968C528 27.126 513.165 12 493 12ZM512.367 66.7708C509.827 69.3045 506.801 71.3001 503.472 72.6382C500.143 73.9764 496.578 74.6296 492.991 74.559C489.403 74.6296 485.838 73.9764 482.509 72.6382C479.18 71.3001 476.155 69.3045 473.614 66.7708C468.725 61.7319 466.032 54.6944 466.032 46.8968C466.032 39.0992 468.725 32.0335 473.623 27.0134C476.164 24.4797 479.189 22.4841 482.519 21.146C485.848 19.8078 489.413 19.1546 493 19.2252C496.586 19.1558 500.149 19.8097 503.476 21.1478C506.804 22.4859 509.828 24.4808 512.367 27.0134C517.265 32.0335 519.93 39.0992 519.93 46.8968C519.93 54.6944 517.265 61.7319 512.367 66.7708Z" fill="#B1B3B3"/>
<path fill-rule="evenodd" clip-rule="evenodd" d="M477.029 52.7134C477.734 53.695 478.362 54.7304 478.905 55.8099C480.1 55.5816 481.269 55.2359 482.396 54.7778C481.639 55.8412 480.732 56.7893 479.703 57.5928C480.156 58.8575 480.391 60.1902 480.397 61.5338C479.771 60.562 478.969 59.7156 478.033 59.0378C476.956 59.9266 475.774 60.6798 474.514 61.2804C475.179 60.2257 475.763 59.1215 476.259 57.9775C475.198 57.4231 474.093 56.9555 472.956 56.5794C473.96 56.4855 475.696 56.4011 476.813 56.1759C477.095 55.0573 477.171 53.8968 477.038 52.7509L477.029 52.7134Z" fill="#B1B3B3"/>
<path fill-rule="evenodd" clip-rule="evenodd" d="M473.465 38.7789C474.174 39.7586 474.801 40.7942 475.342 41.8754C476.53 41.6451 477.693 41.2994 478.814 40.8432C478.059 41.9082 477.151 42.8566 476.121 43.6582C476.58 44.9251 476.818 46.2613 476.825 47.6086C476.197 46.6381 475.395 45.7919 474.46 45.1127C473.383 46.0008 472.201 46.754 470.941 47.3553C471.606 46.3036 472.19 45.2025 472.687 44.0617C471.626 43.502 470.522 43.0312 469.384 42.6542C470.378 42.5604 472.124 42.4853 473.24 42.2507C473.525 41.1326 473.602 39.9716 473.465 38.8258V38.7789Z" fill="#B1B3B3"/>
<path fill-rule="evenodd" clip-rule="evenodd" d="M481.102 26.2259C481.81 27.2061 482.437 28.2416 482.979 29.3225C484.167 29.0929 485.33 28.7472 486.451 28.2903C485.695 29.3545 484.787 30.3028 483.758 31.1053C484.212 32.3698 484.447 33.7027 484.452 35.0463C483.824 34.0758 483.023 33.2296 482.088 32.5503C481.011 33.4395 479.829 34.1927 478.569 34.793C479.235 33.7422 479.819 32.641 480.314 31.4994C479.254 30.9393 478.149 30.4685 477.011 30.0919C478.015 29.9981 479.751 29.9136 480.868 29.6884C481.153 28.5703 481.229 27.4093 481.093 26.2635L481.102 26.2259Z" fill="#B1B3B3"/>
<path fill-rule="evenodd" clip-rule="evenodd" d="M495.881 22.844C496.585 23.8267 497.212 24.8619 497.758 25.9405C498.946 25.7157 500.109 25.3731 501.229 24.9177C500.473 25.9814 499.565 26.9296 498.536 27.7327C498.991 28.997 499.226 30.33 499.231 31.6737C498.605 30.7016 497.803 29.855 496.866 29.1777C495.789 30.0658 494.607 30.819 493.347 31.4204C494.013 30.3692 494.597 29.2681 495.093 28.1268C494.03 27.5494 492.922 27.0598 491.78 26.663C492.784 26.5692 494.52 26.4941 495.637 26.2689C495.916 25.1498 495.989 23.9892 495.853 22.844H495.881Z" fill="#B1B3B3"/>
<path fill-rule="evenodd" clip-rule="evenodd" d="M506.981 30.8596C507.689 31.8396 508.316 32.8751 508.858 33.9561C510.049 33.7272 511.215 33.3815 512.339 32.9239C511.582 33.9874 510.675 34.9356 509.646 35.7389C510.102 37.0032 510.34 38.3359 510.35 39.68C509.722 38.7094 508.92 37.8632 507.985 37.184C506.908 38.0729 505.727 38.8261 504.466 39.4266C505.133 38.3762 505.717 37.275 506.211 36.133C505.151 35.5764 504.046 35.1087 502.909 34.7349C503.903 34.6411 505.648 34.566 506.765 34.3314C507.048 33.213 507.124 32.0524 506.99 30.9065L506.981 30.8596Z" fill="#B1B3B3"/>
<path fill-rule="evenodd" clip-rule="evenodd" d="M508.669 45.8451C509.378 46.8243 510.006 47.86 510.546 48.9416C511.737 48.7174 512.903 48.3748 514.027 47.9188C513.264 48.9666 512.354 49.8989 511.325 50.6869C511.782 51.9541 512.02 53.2901 512.028 54.6373C511.399 53.6626 510.594 52.8131 509.654 52.132C508.579 53.0221 507.397 53.7754 506.136 54.3746C506.8 53.3228 507.384 52.2218 507.881 51.081C506.82 50.5221 505.716 50.0513 504.578 49.6735C505.573 49.5797 507.318 49.5046 508.425 49.27C508.715 48.1528 508.797 46.9921 508.669 45.8451Z" fill="#B1B3B3"/>
<path fill-rule="evenodd" clip-rule="evenodd" d="M492.145 48.6694C494.65 51.6533 497.541 57.1895 499.905 61.4214C504.24 60.8021 509.289 59.0193 514.224 57.1895C512 60.5863 507.75 64.9214 503.114 68.6091C504.026 71.5183 504.79 74.4715 505.404 77.4576C504.023 78.013 502.606 78.4738 501.163 78.837C499.668 77.2513 498.014 75.8237 496.227 74.5769C494.566 75.8718 492.014 77.8142 489.274 79.6439C487.736 79.4727 486.212 79.1937 484.714 78.8088C486.281 76.0241 487.7 73.1581 488.964 70.223C484.589 67.9306 480.035 65.9945 475.349 64.4335C479.468 64.0394 486.609 63.7297 491.244 62.8008C492.502 58.6346 492.614 52.9858 492.183 48.6694H492.145Z" fill="#B1B3B3"/>
</g>
</g>
<defs>
<filter id="filter0_d_2_19" x="450" y="6" width="90" height="89.7936" filterUnits="userSpaceOnUse" color-interpolation-filters="sRGB">
<feFlood flood-opacity="0" result="BackgroundImageFix"/>
<feColorMatrix in="SourceAlpha" type="matrix" values="0 0 0 0 0 0 0 0 0 0 0 0 0 0 0 0 0 0 127 0" result="hardAlpha"/>
<feOffset dx="2" dy="4"/>
<feGaussianBlur stdDeviation="5"/>
<feComposite in2="hardAlpha" operator="out"/>
<feColorMatrix type="matrix" values="0 0 0 0 0 0 0 0 0 0 0 0 0 0 0 0 0 0 0.47 0"/>
<feBlend mode="normal" in2="BackgroundImageFix" result="effect1_dropShadow_2_19"/>
<feBlend mode="normal" in="SourceGraphic" in2="effect1_dropShadow_2_19" result="shape"/>
</filter>
<linearGradient id="paint0_linear_2_19" x1="527.059" y1="93" x2="507.241" y2="-102.775" gradientUnits="userSpaceOnUse">
<stop stop-color="#0D0D0D"/>
<stop offset="1" stop-color="#272121"/>
</linearGradient>
<linearGradient id="paint1_linear_2_19" x1="527.059" y1="93.4884" x2="484.26" y2="-192.501" gradientUnits="userSpaceOnUse">
<stop stop-color="#2C2A2A"/>
<stop offset="1" stop-color="#2E2525" stop-opacity="0"/>
</linearGradient>
<linearGradient id="paint2_linear_2_19" x1="412.183" y1="-13.7007" x2="557.625" y2="160.188" gradientUnits="userSpaceOnUse">
<stop stop-color="#3A3535"/>
<stop offset="1" stop-color="#636363"/>
</linearGradient>
<clipPath id="clip0_2_19">
<rect width="560" height="93" rx="5" fill="white"/>
</clipPath>
</defs>
</svg>
