<svg width="700" height="93" viewBox="0 0 700 93" fill="none" xmlns="http://www.w3.org/2000/svg">
<g clip-path="url(#clip0_2_3)">
<rect width="700" height="93" rx="5" fill="white"/>
<rect width="700" height="93" rx="5" fill="url(#paint0_linear_2_3)"/>
<path fill-rule="evenodd" clip-rule="evenodd" d="M0 72.4884L13 58.4884C26 44.4884 52 16.4884 78 -7.51164C104 -32.5116 130 -53.5116 156 -39.5116C181 -25.5116 207 23.4884 233 34.4884C259 44.4884 285 16.4884 311 20.4884C337 23.4884 363 58.4884 389 44.4884C415 30.4884 441 -32.5116 467 -39.5116C493 -46.5116 519 2.48836 544 9.48836C570 16.4884 596 -18.5116 622 -11.5116C648 -4.51164 674 44.4884 687 69.4884L700 93.4884H687C674 93.4884 648 93.4884 622 93.4884C596 93.4884 570 93.4884 544 93.4884C519 93.4884 493 93.4884 467 93.4884C441 93.4884 415 93.4884 389 93.4884C363 93.4884 337 93.4884 311 93.4884C285 93.4884 259 93.4884 233 93.4884C207 93.4884 181 93.4884 156 93.4884C130 93.4884 104 93.4884 78 93.4884C52 93.4884 26 93.4884 13 93.4884H0V72.4884Z" fill="url(#paint1_linear_2_3)"/>
<circle cx="585" cy="46" r="90" fill="url(#paint2_linear_2_3)"/>
<path d="M76.6211 30.0605H79.7852C80.6315 30.0605 81.4128 30.2005 82.1289 30.4805C82.8451 30.7539 83.4668 31.151 83.9941 31.6719C84.528 32.1862 84.9414 32.8079 85.2344 33.5371C85.5273 34.2598 85.6738 35.0671 85.6738 35.959C85.6738 36.8314 85.5273 37.6257 85.2344 38.3418C84.9414 39.0514 84.528 39.6602 83.9941 40.168C83.4668 40.6758 82.8451 41.0664 82.1289 41.3398C81.4128 41.6133 80.6315 41.75 79.7852 41.75H76.6211C75.7682 41.75 74.9837 41.6133 74.2676 41.3398C73.5514 41.0664 72.9264 40.679 72.3926 40.1777C71.8587 39.6699 71.4421 39.0612 71.1426 38.3516C70.8496 37.6419 70.7031 36.8509 70.7031 35.9785C70.7031 35.0866 70.8496 34.2793 71.1426 33.5566C71.4421 32.8275 71.8587 32.2025 72.3926 31.6816C72.9264 31.1608 73.5514 30.7604 74.2676 30.4805C74.9837 30.2005 75.7682 30.0605 76.6211 30.0605ZM76.6211 32.4043C75.9961 32.4043 75.446 32.541 74.9707 32.8145C74.4954 33.0879 74.1276 33.4915 73.8672 34.0254C73.6068 34.5527 73.4766 35.2038 73.4766 35.9785C73.4766 36.5384 73.5514 37.0332 73.7012 37.4629C73.8574 37.8861 74.0755 38.2409 74.3555 38.5273C74.6354 38.8138 74.9674 39.0319 75.3516 39.1816C75.7357 39.3314 76.1589 39.4062 76.6211 39.4062H79.8047C80.4232 39.4062 80.9635 39.2728 81.4258 39.0059C81.8945 38.7389 82.2591 38.3483 82.5195 37.834C82.7799 37.3197 82.9102 36.6947 82.9102 35.959C82.9102 35.3796 82.8353 34.8685 82.6855 34.4258C82.5358 33.9831 82.3242 33.612 82.0508 33.3125C81.7773 33.013 81.4486 32.7884 81.0645 32.6387C80.6868 32.4824 80.2669 32.4043 79.8047 32.4043H76.6211ZM79.6094 28.1953V43.5859H76.7969V28.1953H79.6094ZM86.9727 37.8242V37.6191C86.9727 36.8444 87.0833 36.1315 87.3047 35.4805C87.526 34.8229 87.8483 34.2533 88.2715 33.7715C88.6947 33.2897 89.2155 32.9154 89.834 32.6484C90.4525 32.375 91.1621 32.2383 91.9629 32.2383C92.7637 32.2383 93.4766 32.375 94.1016 32.6484C94.7266 32.9154 95.2507 33.2897 95.6738 33.7715C96.1035 34.2533 96.429 34.8229 96.6504 35.4805C96.8717 36.1315 96.9824 36.8444 96.9824 37.6191V37.8242C96.9824 38.5924 96.8717 39.3053 96.6504 39.9629C96.429 40.6139 96.1035 41.1836 95.6738 41.6719C95.2507 42.1536 94.7298 42.528 94.1113 42.7949C93.4928 43.0618 92.7832 43.1953 91.9824 43.1953C91.1816 43.1953 90.4688 43.0618 89.8438 42.7949C89.2253 42.528 88.7012 42.1536 88.2715 41.6719C87.8483 41.1836 87.526 40.6139 87.3047 39.9629C87.0833 39.3053 86.9727 38.5924 86.9727 37.8242ZM89.7852 37.6191V37.8242C89.7852 38.2669 89.8242 38.6803 89.9023 39.0645C89.9805 39.4486 90.1042 39.7871 90.2734 40.0801C90.4492 40.3665 90.6771 40.5911 90.957 40.7539C91.237 40.9167 91.5788 40.998 91.9824 40.998C92.373 40.998 92.7083 40.9167 92.9883 40.7539C93.2682 40.5911 93.4928 40.3665 93.6621 40.0801C93.8314 39.7871 93.9551 39.4486 94.0332 39.0645C94.1178 38.6803 94.1602 38.2669 94.1602 37.8242V37.6191C94.1602 37.1895 94.1178 36.7858 94.0332 36.4082C93.9551 36.0241 93.8281 35.6855 93.6523 35.3926C93.4831 35.0931 93.2585 34.8587 92.9785 34.6895C92.6986 34.5202 92.36 34.4355 91.9629 34.4355C91.5658 34.4355 91.2272 34.5202 90.9473 34.6895C90.6738 34.8587 90.4492 35.0931 90.2734 35.3926C90.1042 35.6855 89.9805 36.0241 89.9023 36.4082C89.8242 36.7858 89.7852 37.1895 89.7852 37.6191ZM101.523 34.4648V47.0625H98.7109V32.4336H101.318L101.523 34.4648ZM108.213 37.5996V37.8047C108.213 38.5729 108.122 39.2858 107.939 39.9434C107.764 40.6009 107.503 41.1738 107.158 41.6621C106.813 42.1439 106.383 42.5215 105.869 42.7949C105.361 43.0618 104.775 43.1953 104.111 43.1953C103.467 43.1953 102.907 43.0651 102.432 42.8047C101.956 42.5443 101.556 42.1797 101.23 41.7109C100.911 41.2357 100.654 40.6855 100.459 40.0605C100.264 39.4355 100.114 38.765 100.01 38.0488V37.5117C100.114 36.7435 100.264 36.0404 100.459 35.4023C100.654 34.7578 100.911 34.2012 101.23 33.7324C101.556 33.2572 101.953 32.8893 102.422 32.6289C102.897 32.3685 103.454 32.2383 104.092 32.2383C104.762 32.2383 105.352 32.3652 105.859 32.6191C106.374 32.873 106.803 33.2376 107.148 33.7129C107.5 34.1882 107.764 34.7546 107.939 35.4121C108.122 36.0697 108.213 36.7988 108.213 37.5996ZM105.391 37.8047V37.5996C105.391 37.1504 105.352 36.737 105.273 36.3594C105.202 35.9753 105.085 35.64 104.922 35.3535C104.766 35.0671 104.557 34.8457 104.297 34.6895C104.043 34.5267 103.734 34.4453 103.369 34.4453C102.985 34.4453 102.656 34.5072 102.383 34.6309C102.116 34.7546 101.898 34.9336 101.729 35.168C101.559 35.4023 101.432 35.6823 101.348 36.0078C101.263 36.3333 101.211 36.7012 101.191 37.1113V38.4688C101.224 38.9505 101.315 39.3835 101.465 39.7676C101.615 40.1452 101.846 40.4447 102.158 40.666C102.471 40.8874 102.881 40.998 103.389 40.998C103.76 40.998 104.072 40.9167 104.326 40.7539C104.58 40.5846 104.785 40.3535 104.941 40.0605C105.104 39.7676 105.218 39.429 105.283 39.0449C105.355 38.6608 105.391 38.2474 105.391 37.8047ZM112.979 41.8086L115.781 32.4336H118.799L114.551 44.5918C114.46 44.8587 114.336 45.1452 114.18 45.4512C114.03 45.7572 113.825 46.0469 113.564 46.3203C113.311 46.6003 112.988 46.8281 112.598 47.0039C112.214 47.1797 111.742 47.2676 111.182 47.2676C110.915 47.2676 110.697 47.2513 110.527 47.2188C110.358 47.1862 110.156 47.1406 109.922 47.082V45.0215C109.993 45.0215 110.068 45.0215 110.146 45.0215C110.225 45.028 110.299 45.0312 110.371 45.0312C110.742 45.0312 111.045 44.9889 111.279 44.9043C111.514 44.8197 111.702 44.6895 111.846 44.5137C111.989 44.3444 112.103 44.123 112.188 43.8496L112.979 41.8086ZM111.807 32.4336L114.102 40.0898L114.502 43.0684L112.588 43.2734L108.789 32.4336H111.807ZM126.348 39.7676L129.121 32.4336H131.416L127.295 43H125.4L121.299 32.4336H123.594L126.348 39.7676ZM122.92 32.4336V43H120.107V32.4336H122.92ZM129.844 43V32.4336H132.656V43H129.844ZM135.254 41.6426C135.254 41.2259 135.397 40.8776 135.684 40.5977C135.977 40.3177 136.364 40.1777 136.846 40.1777C137.327 40.1777 137.712 40.3177 137.998 40.5977C138.291 40.8776 138.438 41.2259 138.438 41.6426C138.438 42.0592 138.291 42.4076 137.998 42.6875C137.712 42.9674 137.327 43.1074 136.846 43.1074C136.364 43.1074 135.977 42.9674 135.684 42.6875C135.397 42.4076 135.254 42.0592 135.254 41.6426ZM152.773 35.5586V36.2324C152.773 37.3132 152.627 38.2832 152.334 39.1426C152.041 40.002 151.628 40.7344 151.094 41.3398C150.56 41.9388 149.922 42.3978 149.18 42.7168C148.444 43.0358 147.627 43.1953 146.729 43.1953C145.837 43.1953 145.02 43.0358 144.277 42.7168C143.542 42.3978 142.904 41.9388 142.363 41.3398C141.823 40.7344 141.403 40.002 141.104 39.1426C140.811 38.2832 140.664 37.3132 140.664 36.2324V35.5586C140.664 34.4714 140.811 33.5013 141.104 32.6484C141.396 31.7891 141.81 31.0566 142.344 30.4512C142.884 29.8457 143.522 29.3835 144.258 29.0645C145 28.7454 145.817 28.5859 146.709 28.5859C147.607 28.5859 148.424 28.7454 149.16 29.0645C149.902 29.3835 150.54 29.8457 151.074 30.4512C151.615 31.0566 152.031 31.7891 152.324 32.6484C152.624 33.5013 152.773 34.4714 152.773 35.5586ZM149.814 36.2324V35.5391C149.814 34.7839 149.746 34.1198 149.609 33.5469C149.473 32.974 149.271 32.4922 149.004 32.1016C148.737 31.7109 148.411 31.418 148.027 31.2227C147.643 31.0208 147.204 30.9199 146.709 30.9199C146.214 30.9199 145.775 31.0208 145.391 31.2227C145.013 31.418 144.691 31.7109 144.424 32.1016C144.163 32.4922 143.965 32.974 143.828 33.5469C143.691 34.1198 143.623 34.7839 143.623 35.5391V36.2324C143.623 36.9811 143.691 37.6452 143.828 38.2246C143.965 38.7975 144.167 39.2826 144.434 39.6797C144.701 40.0703 145.026 40.3665 145.41 40.5684C145.794 40.7702 146.234 40.8711 146.729 40.8711C147.223 40.8711 147.663 40.7702 148.047 40.5684C148.431 40.3665 148.753 40.0703 149.014 39.6797C149.274 39.2826 149.473 38.7975 149.609 38.2246C149.746 37.6452 149.814 36.9811 149.814 36.2324ZM163.125 38.2832H166.045C165.986 39.2402 165.723 40.0898 165.254 40.832C164.792 41.5742 164.144 42.1536 163.311 42.5703C162.484 42.987 161.488 43.1953 160.322 43.1953C159.411 43.1953 158.594 43.0391 157.871 42.7266C157.148 42.4076 156.53 41.9518 156.016 41.3594C155.508 40.7669 155.12 40.0508 154.854 39.2109C154.587 38.3711 154.453 37.4303 154.453 36.3887V35.4023C154.453 34.3607 154.59 33.4199 154.863 32.5801C155.143 31.7337 155.54 31.0143 156.055 30.4219C156.576 29.8294 157.197 29.3737 157.92 29.0547C158.643 28.7357 159.45 28.5762 160.342 28.5762C161.527 28.5762 162.526 28.791 163.34 29.2207C164.16 29.6504 164.795 30.2428 165.244 30.998C165.7 31.7533 165.973 32.6126 166.064 33.5762H163.135C163.102 33.0033 162.988 32.5182 162.793 32.1211C162.598 31.7174 162.301 31.4147 161.904 31.2129C161.514 31.0046 160.993 30.9004 160.342 30.9004C159.854 30.9004 159.427 30.9915 159.062 31.1738C158.698 31.3561 158.392 31.6328 158.145 32.0039C157.897 32.375 157.712 32.8438 157.588 33.4102C157.471 33.9701 157.412 34.6276 157.412 35.3828V36.3887C157.412 37.1243 157.467 37.7721 157.578 38.332C157.689 38.8854 157.858 39.3542 158.086 39.7383C158.32 40.1159 158.62 40.4023 158.984 40.5977C159.355 40.7865 159.801 40.8809 160.322 40.8809C160.934 40.8809 161.439 40.7832 161.836 40.5879C162.233 40.3926 162.536 40.1029 162.744 39.7188C162.959 39.3346 163.086 38.8561 163.125 38.2832ZM173.535 36.7598H169.883L169.863 34.748H172.93C173.47 34.748 173.913 34.6797 174.258 34.543C174.603 34.3997 174.86 34.1947 175.029 33.9277C175.205 33.6543 175.293 33.3223 175.293 32.9316C175.293 32.4889 175.208 32.1309 175.039 31.8574C174.876 31.584 174.619 31.3854 174.268 31.2617C173.923 31.138 173.477 31.0762 172.93 31.0762H170.898V43H167.969V28.7812H172.93C173.757 28.7812 174.495 28.8594 175.146 29.0156C175.804 29.1719 176.361 29.4095 176.816 29.7285C177.272 30.0475 177.62 30.4512 177.861 30.9395C178.102 31.4212 178.223 31.9941 178.223 32.6582C178.223 33.2441 178.089 33.7845 177.822 34.2793C177.562 34.7741 177.148 35.1777 176.582 35.4902C176.022 35.8027 175.29 35.9753 174.385 36.0078L173.535 36.7598ZM173.408 43H169.082L170.225 40.7148H173.408C173.923 40.7148 174.342 40.6335 174.668 40.4707C174.993 40.3014 175.234 40.0736 175.391 39.7871C175.547 39.5007 175.625 39.1719 175.625 38.8008C175.625 38.3841 175.553 38.0228 175.41 37.7168C175.273 37.4108 175.052 37.1764 174.746 37.0137C174.44 36.8444 174.036 36.7598 173.535 36.7598H170.713L170.732 34.748H174.248L174.922 35.5391C175.788 35.526 176.484 35.679 177.012 35.998C177.546 36.3105 177.933 36.7174 178.174 37.2188C178.421 37.7201 178.545 38.2572 178.545 38.8301C178.545 39.7415 178.346 40.5098 177.949 41.1348C177.552 41.7533 176.969 42.2188 176.201 42.5312C175.439 42.8438 174.508 43 173.408 43ZM183.857 28.7812V43H180.938V28.7812H183.857ZM192.666 28.7812V43H189.746V28.7812H192.666ZM197.041 28.7812V31.0762H185.439V28.7812H197.041ZM203.438 31.2129L199.57 43H196.455L201.738 28.7812H203.721L203.438 31.2129ZM206.65 43L202.773 31.2129L202.461 28.7812H204.463L209.775 43H206.65ZM206.475 37.707V40.002H198.965V37.707H206.475ZM211.055 41.6426C211.055 41.2259 211.198 40.8776 211.484 40.5977C211.777 40.3177 212.165 40.1777 212.646 40.1777C213.128 40.1777 213.512 40.3177 213.799 40.5977C214.092 40.8776 214.238 41.2259 214.238 41.6426C214.238 42.0592 214.092 42.4076 213.799 42.6875C213.512 42.9674 213.128 43.1074 212.646 43.1074C212.165 43.1074 211.777 42.9674 211.484 42.6875C211.198 42.4076 211.055 42.0592 211.055 41.6426ZM224.746 28.7812H227.666V38.1758C227.666 39.2695 227.432 40.1908 226.963 40.9395C226.501 41.6882 225.859 42.2513 225.039 42.6289C224.225 43.0065 223.288 43.1953 222.227 43.1953C221.165 43.1953 220.221 43.0065 219.395 42.6289C218.574 42.2513 217.93 41.6882 217.461 40.9395C216.999 40.1908 216.768 39.2695 216.768 38.1758V28.7812H219.697V38.1758C219.697 38.8138 219.798 39.3346 220 39.7383C220.202 40.1419 220.492 40.4382 220.869 40.627C221.253 40.8158 221.706 40.9102 222.227 40.9102C222.76 40.9102 223.213 40.8158 223.584 40.627C223.962 40.4382 224.248 40.1419 224.443 39.7383C224.645 39.3346 224.746 38.8138 224.746 38.1758V28.7812ZM235.645 31.2129L231.777 43H228.662L233.945 28.7812H235.928L235.645 31.2129ZM238.857 43L234.98 31.2129L234.668 28.7812H236.67L241.982 43H238.857ZM238.682 37.707V40.002H231.172V37.707H238.682Z" fill="white"/>
<path d="M78.358 65L74.592 60.114L75.432 59.61L79.548 65H78.358ZM71.652 65V55.2H72.66V65H71.652ZM72.352 60.506V59.596H75.418V60.506H72.352ZM75.516 60.212L74.564 60.044L78.218 55.2H79.338L75.516 60.212ZM83.7042 65.07C82.9949 65.07 82.3556 64.9113 81.7862 64.594C81.2262 64.2673 80.7829 63.824 80.4562 63.264C80.1296 62.6947 79.9662 62.046 79.9662 61.318C79.9662 60.5807 80.1296 59.932 80.4562 59.372C80.7829 58.812 81.2262 58.3733 81.7862 58.056C82.3462 57.7387 82.9856 57.58 83.7042 57.58C84.4322 57.58 85.0762 57.7387 85.6362 58.056C86.2056 58.3733 86.6489 58.812 86.9662 59.372C87.2929 59.932 87.4563 60.5807 87.4563 61.318C87.4563 62.046 87.2929 62.6947 86.9662 63.264C86.6489 63.824 86.2056 64.2673 85.6362 64.594C85.0669 64.9113 84.4229 65.07 83.7042 65.07ZM83.7042 64.188C84.2362 64.188 84.7076 64.0713 85.1182 63.838C85.5289 63.5953 85.8509 63.2593 86.0842 62.83C86.3269 62.3913 86.4482 61.8873 86.4482 61.318C86.4482 60.7393 86.3269 60.2353 86.0842 59.806C85.8509 59.3767 85.5289 59.0453 85.1182 58.812C84.7076 58.5693 84.2409 58.448 83.7182 58.448C83.1956 58.448 82.7289 58.5693 82.3182 58.812C81.9076 59.0453 81.5809 59.3767 81.3382 59.806C81.0956 60.2353 80.9742 60.7393 80.9742 61.318C80.9742 61.8873 81.0956 62.3913 81.3382 62.83C81.5809 63.2593 81.9076 63.5953 82.3182 63.838C82.7289 64.0713 83.1909 64.188 83.7042 64.188ZM89.4406 65V57.65H90.4346V60.898H95.0686V57.65H96.0626V65H95.0686V61.752H90.4346V65H89.4406ZM101.828 65.07C101.1 65.07 100.447 64.9113 99.8679 64.594C99.2986 64.2673 98.8506 63.824 98.5239 63.264C98.1972 62.6947 98.0339 62.046 98.0339 61.318C98.0339 60.5807 98.1972 59.932 98.5239 59.372C98.8506 58.812 99.2986 58.3733 99.8679 58.056C100.447 57.7387 101.1 57.58 101.828 57.58C102.453 57.58 103.018 57.7013 103.522 57.944C104.026 58.1867 104.423 58.5507 104.712 59.036L103.97 59.54C103.718 59.1667 103.405 58.8913 103.032 58.714C102.659 58.5367 102.253 58.448 101.814 58.448C101.291 58.448 100.82 58.5693 100.4 58.812C99.9799 59.0453 99.6486 59.3767 99.4059 59.806C99.1632 60.2353 99.0419 60.7393 99.0419 61.318C99.0419 61.8967 99.1632 62.4007 99.4059 62.83C99.6486 63.2593 99.9799 63.5953 100.4 63.838C100.82 64.0713 101.291 64.188 101.814 64.188C102.253 64.188 102.659 64.0993 103.032 63.922C103.405 63.7447 103.718 63.474 103.97 63.11L104.712 63.614C104.423 64.09 104.026 64.454 103.522 64.706C103.018 64.9487 102.453 65.07 101.828 65.07ZM106.513 67.786C106.168 67.786 105.837 67.73 105.519 67.618C105.211 67.506 104.945 67.338 104.721 67.114L105.183 66.372C105.37 66.5493 105.571 66.6847 105.785 66.778C106.009 66.8807 106.257 66.932 106.527 66.932C106.854 66.932 107.134 66.8387 107.367 66.652C107.61 66.4747 107.839 66.1573 108.053 65.7L108.529 64.622L108.641 64.468L111.665 57.65H112.645L108.963 65.882C108.758 66.358 108.529 66.736 108.277 67.016C108.035 67.296 107.769 67.492 107.479 67.604C107.19 67.7253 106.868 67.786 106.513 67.786ZM108.473 65.21L105.085 57.65H106.121L109.117 64.398L108.473 65.21ZM112.395 64.986L112.465 64.132C112.531 64.1413 112.591 64.1553 112.647 64.174C112.713 64.1833 112.769 64.188 112.815 64.188C113.114 64.188 113.352 64.076 113.529 63.852C113.716 63.628 113.856 63.3293 113.949 62.956C114.043 62.5827 114.108 62.1627 114.145 61.696C114.183 61.22 114.215 60.744 114.243 60.268L114.369 57.65H119.759V65H118.765V58.224L119.017 58.518H115.013L115.251 58.21L115.139 60.338C115.111 60.9727 115.06 61.5793 114.985 62.158C114.92 62.7367 114.813 63.2453 114.663 63.684C114.523 64.1227 114.327 64.468 114.075 64.72C113.823 64.9627 113.501 65.084 113.109 65.084C112.997 65.084 112.881 65.0747 112.759 65.056C112.647 65.0373 112.526 65.014 112.395 64.986ZM125.609 60.24C126.533 60.2493 127.233 60.4547 127.709 60.856C128.194 61.2573 128.437 61.836 128.437 62.592C128.437 63.376 128.176 63.978 127.653 64.398C127.14 64.818 126.393 65.0233 125.413 65.014L122.445 65V57.65H123.439V60.212L125.609 60.24ZM125.357 64.258C126.038 64.2673 126.552 64.132 126.897 63.852C127.252 63.5627 127.429 63.1427 127.429 62.592C127.429 62.0413 127.256 61.64 126.911 61.388C126.566 61.1267 126.048 60.9913 125.357 60.982L123.439 60.954V64.23L125.357 64.258ZM130.855 65V58.252L131.107 58.518H128.069V57.65H134.635V58.518H131.597L131.849 58.252V65H130.855ZM136.059 67.786C135.713 67.786 135.382 67.73 135.065 67.618C134.757 67.506 134.491 67.338 134.267 67.114L134.729 66.372C134.915 66.5493 135.116 66.6847 135.331 66.778C135.555 66.8807 135.802 66.932 136.073 66.932C136.399 66.932 136.679 66.8387 136.913 66.652C137.155 66.4747 137.384 66.1573 137.599 65.7L138.075 64.622L138.187 64.468L141.211 57.65H142.191L138.509 65.882C138.303 66.358 138.075 66.736 137.823 67.016C137.58 67.296 137.314 67.492 137.025 67.604C136.735 67.7253 136.413 67.786 136.059 67.786ZM138.019 65.21L134.631 57.65H135.667L138.663 64.398L138.019 65.21ZM143.599 65V57.65H144.593V63.488L149.507 57.65H150.389V65H149.395V59.148L144.495 65H143.599ZM146.931 56.586C146.315 56.586 145.816 56.432 145.433 56.124C145.06 55.8067 144.864 55.354 144.845 54.766H145.559C145.569 55.1393 145.699 55.4333 145.951 55.648C146.203 55.8627 146.53 55.97 146.931 55.97C147.333 55.97 147.659 55.8627 147.911 55.648C148.173 55.4333 148.308 55.1393 148.317 54.766H149.031C149.022 55.354 148.826 55.8067 148.443 56.124C148.061 56.432 147.557 56.586 146.931 56.586ZM156.178 65.07C155.45 65.07 154.797 64.9113 154.218 64.594C153.649 64.2673 153.201 63.824 152.874 63.264C152.547 62.6947 152.384 62.046 152.384 61.318C152.384 60.5807 152.547 59.932 152.874 59.372C153.201 58.812 153.649 58.3733 154.218 58.056C154.797 57.7387 155.45 57.58 156.178 57.58C156.803 57.58 157.368 57.7013 157.872 57.944C158.376 58.1867 158.773 58.5507 159.062 59.036L158.32 59.54C158.068 59.1667 157.755 58.8913 157.382 58.714C157.009 58.5367 156.603 58.448 156.164 58.448C155.641 58.448 155.17 58.5693 154.75 58.812C154.33 59.0453 153.999 59.3767 153.756 59.806C153.513 60.2353 153.392 60.7393 153.392 61.318C153.392 61.8967 153.513 62.4007 153.756 62.83C153.999 63.2593 154.33 63.5953 154.75 63.838C155.17 64.0713 155.641 64.188 156.164 64.188C156.603 64.188 157.009 64.0993 157.382 63.922C157.755 63.7447 158.068 63.474 158.32 63.11L159.062 63.614C158.773 64.09 158.376 64.454 157.872 64.706C157.368 64.9487 156.803 65.07 156.178 65.07ZM165.347 65V62.354L165.529 62.564H163.037C162.094 62.564 161.357 62.3587 160.825 61.948C160.293 61.5373 160.027 60.94 160.027 60.156C160.027 59.316 160.311 58.6907 160.881 58.28C161.45 57.86 162.211 57.65 163.163 57.65H166.257V65H165.347ZM159.971 65L161.987 62.172H163.023L161.049 65H159.971ZM165.347 62.06V58.224L165.529 58.518H163.191C162.509 58.518 161.977 58.6487 161.595 58.91C161.221 59.1713 161.035 59.596 161.035 60.184C161.035 61.276 161.73 61.822 163.121 61.822H165.529L165.347 62.06ZM173.875 65V58.252L174.127 58.518H171.089V57.65H177.655V58.518H174.617L174.869 58.252V65H173.875ZM183.516 65V63.376L183.474 63.11V60.394C183.474 59.7687 183.297 59.288 182.942 58.952C182.597 58.616 182.079 58.448 181.388 58.448C180.912 58.448 180.459 58.5273 180.03 58.686C179.601 58.8447 179.237 59.0547 178.938 59.316L178.49 58.574C178.863 58.2567 179.311 58.014 179.834 57.846C180.357 57.6687 180.907 57.58 181.486 57.58C182.438 57.58 183.171 57.818 183.684 58.294C184.207 58.7607 184.468 59.4747 184.468 60.436V65H183.516ZM180.982 65.07C180.431 65.07 179.951 64.9813 179.54 64.804C179.139 64.6173 178.831 64.3653 178.616 64.048C178.401 63.7213 178.294 63.348 178.294 62.928C178.294 62.5453 178.383 62.2 178.56 61.892C178.747 61.5747 179.045 61.3227 179.456 61.136C179.876 60.94 180.436 60.842 181.136 60.842H183.67V61.584H181.164C180.455 61.584 179.96 61.71 179.68 61.962C179.409 62.214 179.274 62.5267 179.274 62.9C179.274 63.32 179.437 63.656 179.764 63.908C180.091 64.16 180.548 64.286 181.136 64.286C181.696 64.286 182.177 64.16 182.578 63.908C182.989 63.6467 183.287 63.2733 183.474 62.788L183.698 63.474C183.511 63.9593 183.185 64.3467 182.718 64.636C182.261 64.9253 181.682 65.07 180.982 65.07ZM193.578 65.07C192.85 65.07 192.197 64.9113 191.618 64.594C191.049 64.2673 190.601 63.824 190.274 63.264C189.948 62.6947 189.784 62.046 189.784 61.318C189.784 60.5807 189.948 59.932 190.274 59.372C190.601 58.812 191.049 58.3733 191.618 58.056C192.197 57.7387 192.85 57.58 193.578 57.58C194.204 57.58 194.768 57.7013 195.272 57.944C195.776 58.1867 196.173 58.5507 196.462 59.036L195.72 59.54C195.468 59.1667 195.156 58.8913 194.782 58.714C194.409 58.5367 194.003 58.448 193.564 58.448C193.042 58.448 192.57 58.5693 192.15 58.812C191.73 59.0453 191.399 59.3767 191.156 59.806C190.914 60.2353 190.792 60.7393 190.792 61.318C190.792 61.8967 190.914 62.4007 191.156 62.83C191.399 63.2593 191.73 63.5953 192.15 63.838C192.57 64.0713 193.042 64.188 193.564 64.188C194.003 64.188 194.409 64.0993 194.782 63.922C195.156 63.7447 195.468 63.474 195.72 63.11L196.462 63.614C196.173 64.09 195.776 64.454 195.272 64.706C194.768 64.9487 194.204 65.07 193.578 65.07ZM198.247 65V57.65H204.855V65H203.861V58.252L204.113 58.518H198.989L199.241 58.252V65H198.247ZM207.54 65V57.65H208.534V65H207.54ZM208.044 56.026C207.839 56.026 207.666 55.956 207.526 55.816C207.386 55.676 207.316 55.508 207.316 55.312C207.316 55.116 207.386 54.9527 207.526 54.822C207.666 54.682 207.839 54.612 208.044 54.612C208.25 54.612 208.422 54.6773 208.562 54.808C208.702 54.9387 208.772 55.102 208.772 55.298C208.772 55.5033 208.702 55.676 208.562 55.816C208.432 55.956 208.259 56.026 208.044 56.026ZM209.885 64.986L209.955 64.132C210.02 64.1413 210.081 64.1553 210.137 64.174C210.202 64.1833 210.258 64.188 210.305 64.188C210.603 64.188 210.841 64.076 211.019 63.852C211.205 63.628 211.345 63.3293 211.439 62.956C211.532 62.5827 211.597 62.1627 211.635 61.696C211.672 61.22 211.705 60.744 211.733 60.268L211.859 57.65H217.249V65H216.255V58.224L216.507 58.518H212.503L212.741 58.21L212.629 60.338C212.601 60.9727 212.549 61.5793 212.475 62.158C212.409 62.7367 212.302 63.2453 212.153 63.684C212.013 64.1227 211.817 64.468 211.565 64.72C211.313 64.9627 210.991 65.084 210.599 65.084C210.487 65.084 210.37 65.0747 210.249 65.056C210.137 65.0373 210.015 65.014 209.885 64.986ZM225.324 65L222.3 61.36L223.126 60.87L226.5 65H225.324ZM219.934 65V57.65H220.928V65H219.934ZM220.62 61.724V60.87H222.986V61.724H220.62ZM223.21 61.43L222.286 61.29L225.212 57.65H226.29L223.21 61.43ZM227.631 67.786C227.286 67.786 226.955 67.73 226.637 67.618C226.329 67.506 226.063 67.338 225.839 67.114L226.301 66.372C226.488 66.5493 226.689 66.6847 226.903 66.778C227.127 66.8807 227.375 66.932 227.645 66.932C227.972 66.932 228.252 66.8387 228.485 66.652C228.728 66.4747 228.957 66.1573 229.171 65.7L229.647 64.622L229.759 64.468L232.783 57.65H233.763L230.081 65.882C229.876 66.358 229.647 66.736 229.395 67.016C229.153 67.296 228.887 67.492 228.597 67.604C228.308 67.7253 227.986 67.786 227.631 67.786ZM229.591 65.21L226.203 57.65H227.239L230.235 64.398L229.591 65.21ZM235.172 65V57.65H236.166V63.488L241.08 57.65H241.962V65H240.968V59.148L236.068 65H235.172ZM238.504 56.586C237.888 56.586 237.389 56.432 237.006 56.124C236.633 55.8067 236.437 55.354 236.418 54.766H237.132C237.141 55.1393 237.272 55.4333 237.524 55.648C237.776 55.8627 238.103 55.97 238.504 55.97C238.905 55.97 239.232 55.8627 239.484 55.648C239.745 55.4333 239.881 55.1393 239.89 54.766H240.604C240.595 55.354 240.399 55.8067 240.016 56.124C239.633 56.432 239.129 56.586 238.504 56.586ZM247.751 65.07C247.023 65.07 246.369 64.9113 245.791 64.594C245.221 64.2673 244.773 63.824 244.447 63.264C244.12 62.6947 243.957 62.046 243.957 61.318C243.957 60.5807 244.12 59.932 244.447 59.372C244.773 58.812 245.221 58.3733 245.791 58.056C246.369 57.7387 247.023 57.58 247.751 57.58C248.376 57.58 248.941 57.7013 249.445 57.944C249.949 58.1867 250.345 58.5507 250.635 59.036L249.893 59.54C249.641 59.1667 249.328 58.8913 248.955 58.714C248.581 58.5367 248.175 58.448 247.737 58.448C247.214 58.448 246.743 58.5693 246.323 58.812C245.903 59.0453 245.571 59.3767 245.329 59.806C245.086 60.2353 244.965 60.7393 244.965 61.318C244.965 61.8967 245.086 62.4007 245.329 62.83C245.571 63.2593 245.903 63.5953 246.323 63.838C246.743 64.0713 247.214 64.188 247.737 64.188C248.175 64.188 248.581 64.0993 248.955 63.922C249.328 63.7447 249.641 63.474 249.893 63.11L250.635 63.614C250.345 64.09 249.949 64.454 249.445 64.706C248.941 64.9487 248.376 65.07 247.751 65.07ZM256.919 65V62.354L257.101 62.564H254.609C253.666 62.564 252.929 62.3587 252.397 61.948C251.865 61.5373 251.599 60.94 251.599 60.156C251.599 59.316 251.884 58.6907 252.453 58.28C253.022 57.86 253.783 57.65 254.735 57.65H257.829V65H256.919ZM251.543 65L253.559 62.172H254.595L252.621 65H251.543ZM256.919 62.06V58.224L257.101 58.518H254.763C254.082 58.518 253.55 58.6487 253.167 58.91C252.794 59.1713 252.607 59.596 252.607 60.184C252.607 61.276 253.302 61.822 254.693 61.822H257.101L256.919 62.06ZM266.021 65.084C265.489 65.084 264.962 65.0093 264.439 64.86C263.917 64.7107 263.455 64.482 263.053 64.174L263.375 63.432C263.73 63.6933 264.141 63.894 264.607 64.034C265.074 64.1647 265.536 64.23 265.993 64.23C266.451 64.2207 266.847 64.1553 267.183 64.034C267.519 63.9127 267.781 63.7447 267.967 63.53C268.154 63.3153 268.247 63.0727 268.247 62.802C268.247 62.41 268.07 62.1067 267.715 61.892C267.361 61.668 266.875 61.556 266.259 61.556H264.999V60.828H266.189C266.553 60.828 266.875 60.7813 267.155 60.688C267.435 60.5947 267.65 60.4593 267.799 60.282C267.958 60.1047 268.037 59.8947 268.037 59.652C268.037 59.3907 267.944 59.1667 267.757 58.98C267.58 58.7933 267.333 58.6533 267.015 58.56C266.698 58.4667 266.339 58.42 265.937 58.42C265.573 58.4293 265.195 58.4853 264.803 58.588C264.411 58.6813 264.024 58.826 263.641 59.022L263.361 58.252C263.791 58.028 264.215 57.86 264.635 57.748C265.065 57.6267 265.494 57.566 265.923 57.566C266.511 57.5473 267.039 57.6173 267.505 57.776C267.981 57.9347 268.359 58.1633 268.639 58.462C268.919 58.7513 269.059 59.1013 269.059 59.512C269.059 59.876 268.947 60.1933 268.723 60.464C268.499 60.7347 268.201 60.9447 267.827 61.094C267.454 61.2433 267.029 61.318 266.553 61.318L266.595 61.052C267.435 61.052 268.089 61.2153 268.555 61.542C269.031 61.8687 269.269 62.312 269.269 62.872C269.269 63.3107 269.125 63.698 268.835 64.034C268.546 64.3607 268.154 64.6173 267.659 64.804C267.174 64.9907 266.628 65.084 266.021 65.084ZM280.3 65L277.276 61.36L278.102 60.87L281.476 65H280.3ZM274.91 65V57.65H275.904V65H274.91ZM275.596 61.724V60.87H277.962V61.724H275.596ZM278.186 61.43L277.262 61.29L280.188 57.65H281.266L278.186 61.43ZM285.669 65.07C284.96 65.07 284.32 64.9113 283.751 64.594C283.191 64.2673 282.748 63.824 282.421 63.264C282.094 62.6947 281.931 62.046 281.931 61.318C281.931 60.5807 282.094 59.932 282.421 59.372C282.748 58.812 283.191 58.3733 283.751 58.056C284.311 57.7387 284.95 57.58 285.669 57.58C286.397 57.58 287.041 57.7387 287.601 58.056C288.17 58.3733 288.614 58.812 288.931 59.372C289.258 59.932 289.421 60.5807 289.421 61.318C289.421 62.046 289.258 62.6947 288.931 63.264C288.614 63.824 288.17 64.2673 287.601 64.594C287.032 64.9113 286.388 65.07 285.669 65.07ZM285.669 64.188C286.201 64.188 286.672 64.0713 287.083 63.838C287.494 63.5953 287.816 63.2593 288.049 62.83C288.292 62.3913 288.413 61.8873 288.413 61.318C288.413 60.7393 288.292 60.2353 288.049 59.806C287.816 59.3767 287.494 59.0453 287.083 58.812C286.672 58.5693 286.206 58.448 285.683 58.448C285.16 58.448 284.694 58.5693 284.283 58.812C283.872 59.0453 283.546 59.3767 283.303 59.806C283.06 60.2353 282.939 60.7393 282.939 61.318C282.939 61.8873 283.06 62.3913 283.303 62.83C283.546 63.2593 283.872 63.5953 284.283 63.838C284.694 64.0713 285.156 64.188 285.669 64.188ZM290.02 64.986L290.09 64.132C290.156 64.1413 290.216 64.1553 290.272 64.174C290.338 64.1833 290.394 64.188 290.44 64.188C290.739 64.188 290.977 64.076 291.154 63.852C291.341 63.628 291.481 63.3293 291.574 62.956C291.668 62.5827 291.733 62.1627 291.77 61.696C291.808 61.22 291.84 60.744 291.868 60.268L291.994 57.65H297.384V65H296.39V58.224L296.642 58.518H292.638L292.876 58.21L292.764 60.338C292.736 60.9727 292.685 61.5793 292.61 62.158C292.545 62.7367 292.438 63.2453 292.288 63.684C292.148 64.1227 291.952 64.468 291.7 64.72C291.448 64.9627 291.126 65.084 290.734 65.084C290.622 65.084 290.506 65.0747 290.384 65.056C290.272 65.0373 290.151 65.014 290.02 64.986ZM303.22 65.07C302.455 65.07 301.783 64.9113 301.204 64.594C300.625 64.2673 300.173 63.824 299.846 63.264C299.519 62.6947 299.356 62.046 299.356 61.318C299.356 60.59 299.51 59.946 299.818 59.386C300.135 58.826 300.565 58.3873 301.106 58.07C301.657 57.7433 302.273 57.58 302.954 57.58C303.645 57.58 304.256 57.7387 304.788 58.056C305.329 58.364 305.754 58.8027 306.062 59.372C306.37 59.932 306.524 60.5807 306.524 61.318C306.524 61.3647 306.519 61.416 306.51 61.472C306.51 61.5187 306.51 61.57 306.51 61.626H300.112V60.884H305.978L305.586 61.178C305.586 60.646 305.469 60.1747 305.236 59.764C305.012 59.344 304.704 59.0173 304.312 58.784C303.92 58.5507 303.467 58.434 302.954 58.434C302.45 58.434 301.997 58.5507 301.596 58.784C301.195 59.0173 300.882 59.344 300.658 59.764C300.434 60.184 300.322 60.6647 300.322 61.206V61.36C300.322 61.92 300.443 62.4147 300.686 62.844C300.938 63.264 301.283 63.5953 301.722 63.838C302.17 64.0713 302.679 64.188 303.248 64.188C303.696 64.188 304.111 64.1087 304.494 63.95C304.886 63.7913 305.222 63.5487 305.502 63.222L306.062 63.866C305.735 64.258 305.325 64.5567 304.83 64.762C304.345 64.9673 303.808 65.07 303.22 65.07ZM308.584 65V57.65H313.792V58.518H309.326L309.578 58.266V65H308.584ZM319.653 65V63.376L319.611 63.11V60.394C319.611 59.7687 319.434 59.288 319.079 58.952C318.734 58.616 318.216 58.448 317.525 58.448C317.049 58.448 316.596 58.5273 316.167 58.686C315.738 58.8447 315.374 59.0547 315.075 59.316L314.627 58.574C315 58.2567 315.448 58.014 315.971 57.846C316.494 57.6687 317.044 57.58 317.623 57.58C318.575 57.58 319.308 57.818 319.821 58.294C320.344 58.7607 320.605 59.4747 320.605 60.436V65H319.653ZM317.119 65.07C316.568 65.07 316.088 64.9813 315.677 64.804C315.276 64.6173 314.968 64.3653 314.753 64.048C314.538 63.7213 314.431 63.348 314.431 62.928C314.431 62.5453 314.52 62.2 314.697 61.892C314.884 61.5747 315.182 61.3227 315.593 61.136C316.013 60.94 316.573 60.842 317.273 60.842H319.807V61.584H317.301C316.592 61.584 316.097 61.71 315.817 61.962C315.546 62.214 315.411 62.5267 315.411 62.9C315.411 63.32 315.574 63.656 315.901 63.908C316.228 64.16 316.685 64.286 317.273 64.286C317.833 64.286 318.314 64.16 318.715 63.908C319.126 63.6467 319.424 63.2733 319.611 62.788L319.835 63.474C319.648 63.9593 319.322 64.3467 318.855 64.636C318.398 64.9253 317.819 65.07 317.119 65.07ZM323.111 65V57.65H324.119L327.451 63.292H327.031L330.419 57.65H331.343V65H330.433V58.784L330.615 58.868L327.451 64.104H327.003L323.811 58.812L324.021 58.77V65H323.111ZM334.032 65V57.65H335.026V63.488L339.94 57.65H340.822V65H339.828V59.148L334.928 65H334.032ZM348.454 65V58.252L348.706 58.518H345.668V57.65H352.234V58.518H349.196L349.448 58.252V65H348.454ZM358.095 65V63.376L358.053 63.11V60.394C358.053 59.7687 357.876 59.288 357.521 58.952C357.176 58.616 356.658 58.448 355.967 58.448C355.491 58.448 355.039 58.5273 354.609 58.686C354.18 58.8447 353.816 59.0547 353.517 59.316L353.069 58.574C353.443 58.2567 353.891 58.014 354.413 57.846C354.936 57.6687 355.487 57.58 356.065 57.58C357.017 57.58 357.75 57.818 358.263 58.294C358.786 58.7607 359.047 59.4747 359.047 60.436V65H358.095ZM355.561 65.07C355.011 65.07 354.53 64.9813 354.119 64.804C353.718 64.6173 353.41 64.3653 353.195 64.048C352.981 63.7213 352.873 63.348 352.873 62.928C352.873 62.5453 352.962 62.2 353.139 61.892C353.326 61.5747 353.625 61.3227 354.035 61.136C354.455 60.94 355.015 60.842 355.715 60.842H358.249V61.584H355.743C355.034 61.584 354.539 61.71 354.259 61.962C353.989 62.214 353.853 62.5267 353.853 62.9C353.853 63.32 354.017 63.656 354.343 63.908C354.67 64.16 355.127 64.286 355.715 64.286C356.275 64.286 356.756 64.16 357.157 63.908C357.568 63.6467 357.867 63.2733 358.053 62.788L358.277 63.474C358.091 63.9593 357.764 64.3467 357.297 64.636C356.84 64.9253 356.261 65.07 355.561 65.07ZM368.102 65.07C367.392 65.07 366.753 64.9113 366.184 64.594C365.624 64.2673 365.18 63.824 364.854 63.264C364.527 62.6947 364.364 62.046 364.364 61.318C364.364 60.5807 364.527 59.932 364.854 59.372C365.18 58.812 365.624 58.3733 366.184 58.056C366.744 57.7387 367.383 57.58 368.102 57.58C368.83 57.58 369.474 57.7387 370.034 58.056C370.603 58.3733 371.046 58.812 371.364 59.372C371.69 59.932 371.854 60.5807 371.854 61.318C371.854 62.046 371.69 62.6947 371.364 63.264C371.046 63.824 370.603 64.2673 370.034 64.594C369.464 64.9113 368.82 65.07 368.102 65.07ZM368.102 64.188C368.634 64.188 369.105 64.0713 369.516 63.838C369.926 63.5953 370.248 63.2593 370.482 62.83C370.724 62.3913 370.846 61.8873 370.846 61.318C370.846 60.7393 370.724 60.2353 370.482 59.806C370.248 59.3767 369.926 59.0453 369.516 58.812C369.105 58.5693 368.638 58.448 368.116 58.448C367.593 58.448 367.126 58.5693 366.716 58.812C366.305 59.0453 365.978 59.3767 365.736 59.806C365.493 60.2353 365.372 60.7393 365.372 61.318C365.372 61.8873 365.493 62.3913 365.736 62.83C365.978 63.2593 366.305 63.5953 366.716 63.838C367.126 64.0713 367.588 64.188 368.102 64.188ZM378.837 64.524V58.518H375.295L375.211 60.156C375.192 60.6507 375.16 61.136 375.113 61.612C375.076 62.088 375.006 62.5267 374.903 62.928C374.81 63.32 374.674 63.642 374.497 63.894C374.32 64.1367 374.091 64.2767 373.811 64.314L372.817 64.132C373.106 64.1413 373.344 64.0387 373.531 63.824C373.718 63.6 373.862 63.2967 373.965 62.914C374.068 62.5313 374.142 62.0973 374.189 61.612C374.236 61.1173 374.273 60.6133 374.301 60.1L374.399 57.65H379.831V64.524H378.837ZM372.509 66.778V64.132H380.979V66.778H380.041V65H373.447V66.778H372.509ZM382.776 65V57.65H383.77V60.898H388.404V57.65H389.398V65H388.404V61.752H383.77V65H382.776ZM395.107 65.07C394.398 65.07 393.759 64.9113 393.189 64.594C392.629 64.2673 392.186 63.824 391.859 63.264C391.533 62.6947 391.369 62.046 391.369 61.318C391.369 60.5807 391.533 59.932 391.859 59.372C392.186 58.812 392.629 58.3733 393.189 58.056C393.749 57.7387 394.389 57.58 395.107 57.58C395.835 57.58 396.479 57.7387 397.039 58.056C397.609 58.3733 398.052 58.812 398.369 59.372C398.696 59.932 398.859 60.5807 398.859 61.318C398.859 62.046 398.696 62.6947 398.369 63.264C398.052 63.824 397.609 64.2673 397.039 64.594C396.47 64.9113 395.826 65.07 395.107 65.07ZM395.107 64.188C395.639 64.188 396.111 64.0713 396.521 63.838C396.932 63.5953 397.254 63.2593 397.487 62.83C397.73 62.3913 397.851 61.8873 397.851 61.318C397.851 60.7393 397.73 60.2353 397.487 59.806C397.254 59.3767 396.932 59.0453 396.521 58.812C396.111 58.5693 395.644 58.448 395.121 58.448C394.599 58.448 394.132 58.5693 393.721 58.812C393.311 59.0453 392.984 59.3767 392.741 59.806C392.499 60.2353 392.377 60.7393 392.377 61.318C392.377 61.8873 392.499 62.3913 392.741 62.83C392.984 63.2593 393.311 63.5953 393.721 63.838C394.132 64.0713 394.594 64.188 395.107 64.188ZM405.843 64.524V58.518H402.301L402.217 60.156C402.198 60.6507 402.165 61.136 402.119 61.612C402.081 62.088 402.011 62.5267 401.909 62.928C401.815 63.32 401.68 63.642 401.503 63.894C401.325 64.1367 401.097 64.2767 400.817 64.314L399.823 64.132C400.112 64.1413 400.35 64.0387 400.537 63.824C400.723 63.6 400.868 63.2967 400.971 62.914C401.073 62.5313 401.148 62.0973 401.195 61.612C401.241 61.1173 401.279 60.6133 401.307 60.1L401.405 57.65H406.837V64.524H405.843ZM399.515 66.778V64.132H407.985V66.778H407.047V65H400.453V66.778H399.515ZM409.908 67.786C409.563 67.786 409.231 67.73 408.914 67.618C408.606 67.506 408.34 67.338 408.116 67.114L408.578 66.372C408.765 66.5493 408.965 66.6847 409.18 66.778C409.404 66.8807 409.651 66.932 409.922 66.932C410.249 66.932 410.529 66.8387 410.762 66.652C411.005 66.4747 411.233 66.1573 411.448 65.7L411.924 64.622L412.036 64.468L415.06 57.65H416.04L412.358 65.882C412.153 66.358 411.924 66.736 411.672 67.016C411.429 67.296 411.163 67.492 410.874 67.604C410.585 67.7253 410.263 67.786 409.908 67.786ZM411.868 65.21L408.48 57.65H409.516L412.512 64.398L411.868 65.21ZM417.449 65V57.65H418.457L421.789 63.292H421.369L424.757 57.65H425.681V65H424.771V58.784L424.953 58.868L421.789 64.104H421.341L418.149 58.812L418.359 58.77V65H417.449ZM428.369 65V57.65H429.363V64.132H433.857V57.65H434.851V65H428.369ZM435.103 66.778V64.916L435.355 65H433.857V64.132H436.041V66.778H435.103ZM442.545 65V62.354L442.727 62.564H440.235C439.293 62.564 438.555 62.3587 438.023 61.948C437.491 61.5373 437.225 60.94 437.225 60.156C437.225 59.316 437.51 58.6907 438.079 58.28C438.649 57.86 439.409 57.65 440.361 57.65H443.455V65H442.545ZM437.169 65L439.185 62.172H440.221L438.247 65H437.169ZM442.545 62.06V58.224L442.727 58.518H440.389C439.708 58.518 439.176 58.6487 438.793 58.91C438.42 59.1713 438.233 59.596 438.233 60.184C438.233 61.276 438.929 61.822 440.319 61.822H442.727L442.545 62.06ZM446.15 65V57.65H447.158L450.49 63.292H450.07L453.458 57.65H454.382V65H453.472V58.784L453.654 58.868L450.49 64.104H450.042L446.85 58.812L447.06 58.77V65H446.15ZM457.07 65V57.65H458.064V63.488L462.978 57.65H463.86V65H462.866V59.148L457.966 65H457.07Z" fill="white"/>
<g filter="url(#filter0_d_2_3)">
<path d="M585 11C564.826 11 550 26.126 550 45.8968C550 65.6676 564.826 80.7936 585 80.7936C605.174 80.7936 620 65.6676 620 45.8968C620 26.126 605.165 11 585 11ZM604.367 65.7708C601.827 68.3045 598.801 70.3001 595.472 71.6382C592.143 72.9764 588.578 73.6296 584.991 73.559C581.403 73.6296 577.838 72.9764 574.509 71.6382C571.18 70.3001 568.155 68.3045 565.614 65.7708C560.725 60.7319 558.032 53.6944 558.032 45.8968C558.032 38.0992 560.725 31.0335 565.623 26.0134C568.164 23.4797 571.189 21.4841 574.519 20.146C577.848 18.8078 581.413 18.1546 585 18.2252C588.586 18.1558 592.149 18.8097 595.476 20.1478C598.804 21.4859 601.828 23.4808 604.367 26.0134C609.265 31.0335 611.93 38.0992 611.93 45.8968C611.93 53.6944 609.265 60.7319 604.367 65.7708Z" fill="#B1B3B3"/>
<path fill-rule="evenodd" clip-rule="evenodd" d="M569.029 51.7134C569.734 52.695 570.362 53.7304 570.905 54.8099C572.1 54.5816 573.269 54.2359 574.396 53.7778C573.639 54.8412 572.732 55.7893 571.703 56.5928C572.156 57.8575 572.391 59.1902 572.397 60.5338C571.771 59.562 570.969 58.7156 570.033 58.0378C568.956 58.9266 567.774 59.6798 566.514 60.2804C567.179 59.2257 567.763 58.1215 568.259 56.9775C567.198 56.4231 566.093 55.9555 564.956 55.5794C565.96 55.4855 567.696 55.4011 568.813 55.1759C569.095 54.0573 569.171 52.8968 569.038 51.7509L569.029 51.7134Z" fill="#B1B3B3"/>
<path fill-rule="evenodd" clip-rule="evenodd" d="M565.465 37.7789C566.174 38.7586 566.801 39.7942 567.342 40.8754C568.53 40.6451 569.693 40.2994 570.814 39.8432C570.059 40.9082 569.151 41.8566 568.121 42.6582C568.58 43.9251 568.818 45.2613 568.825 46.6086C568.197 45.6381 567.395 44.7919 566.46 44.1127C565.383 45.0008 564.201 45.754 562.941 46.3553C563.606 45.3036 564.19 44.2025 564.687 43.0617C563.626 42.502 562.522 42.0312 561.384 41.6542C562.378 41.5604 564.124 41.4853 565.24 41.2507C565.525 40.1326 565.602 38.9716 565.465 37.8258V37.7789Z" fill="#B1B3B3"/>
<path fill-rule="evenodd" clip-rule="evenodd" d="M573.102 25.2259C573.81 26.2061 574.437 27.2416 574.979 28.3225C576.167 28.0929 577.33 27.7472 578.451 27.2903C577.695 28.3545 576.787 29.3028 575.758 30.1053C576.212 31.3698 576.447 32.7027 576.452 34.0463C575.824 33.0758 575.023 32.2296 574.088 31.5503C573.011 32.4395 571.829 33.1927 570.569 33.793C571.235 32.7422 571.819 31.641 572.314 30.4994C571.254 29.9393 570.149 29.4685 569.011 29.0919C570.015 28.9981 571.751 28.9136 572.868 28.6884C573.153 27.5703 573.229 26.4093 573.093 25.2635L573.102 25.2259Z" fill="#B1B3B3"/>
<path fill-rule="evenodd" clip-rule="evenodd" d="M587.881 21.844C588.585 22.8267 589.212 23.8619 589.758 24.9405C590.946 24.7157 592.109 24.3731 593.229 23.9177C592.473 24.9814 591.565 25.9296 590.536 26.7327C590.991 27.997 591.226 29.33 591.231 30.6737C590.605 29.7016 589.803 28.855 588.866 28.1777C587.789 29.0658 586.607 29.819 585.347 30.4204C586.013 29.3692 586.597 28.2681 587.093 27.1268C586.03 26.5494 584.922 26.0598 583.78 25.663C584.784 25.5692 586.52 25.4941 587.637 25.2689C587.916 24.1498 587.989 22.9892 587.853 21.844H587.881Z" fill="#B1B3B3"/>
<path fill-rule="evenodd" clip-rule="evenodd" d="M598.981 29.8596C599.689 30.8396 600.316 31.8751 600.858 32.9561C602.049 32.7272 603.215 32.3815 604.339 31.9239C603.582 32.9874 602.675 33.9356 601.646 34.7389C602.102 36.0032 602.34 37.3359 602.35 38.68C601.722 37.7094 600.92 36.8632 599.985 36.184C598.908 37.0729 597.727 37.8261 596.466 38.4266C597.133 37.3762 597.717 36.275 598.211 35.133C597.151 34.5764 596.046 34.1087 594.909 33.7349C595.903 33.6411 597.648 33.566 598.765 33.3314C599.048 32.213 599.124 31.0524 598.99 29.9065L598.981 29.8596Z" fill="#B1B3B3"/>
<path fill-rule="evenodd" clip-rule="evenodd" d="M600.669 44.8451C601.378 45.8243 602.006 46.86 602.546 47.9416C603.737 47.7174 604.903 47.3748 606.027 46.9188C605.264 47.9666 604.354 48.8989 603.325 49.6869C603.782 50.9541 604.02 52.2901 604.028 53.6373C603.399 52.6626 602.594 51.8131 601.654 51.132C600.579 52.0221 599.397 52.7754 598.136 53.3746C598.8 52.3228 599.384 51.2218 599.881 50.081C598.82 49.5221 597.716 49.0513 596.578 48.6735C597.573 48.5797 599.318 48.5046 600.425 48.27C600.715 47.1528 600.797 45.9921 600.669 44.8451Z" fill="#B1B3B3"/>
<path fill-rule="evenodd" clip-rule="evenodd" d="M584.145 47.6694C586.65 50.6533 589.541 56.1895 591.905 60.4214C596.24 59.8021 601.289 58.0193 606.224 56.1895C604 59.5863 599.75 63.9214 595.114 67.6091C596.026 70.5183 596.79 73.4715 597.404 76.4576C596.023 77.013 594.606 77.4738 593.163 77.837C591.668 76.2513 590.014 74.8237 588.227 73.5769C586.566 74.8718 584.014 76.8142 581.274 78.6439C579.736 78.4727 578.212 78.1937 576.714 77.8088C578.281 75.0241 579.7 72.1581 580.964 69.223C576.589 66.9306 572.035 64.9945 567.349 63.4335C571.468 63.0394 578.609 62.7297 583.244 61.8008C584.502 57.6346 584.614 51.9858 584.183 47.6694H584.145Z" fill="#B1B3B3"/>
</g>
</g>
<defs>
<filter id="filter0_d_2_3" x="542" y="5" width="90" height="89.7936" filterUnits="userSpaceOnUse" color-interpolation-filters="sRGB">
<feFlood flood-opacity="0" result="BackgroundImageFix"/>
<feColorMatrix in="SourceAlpha" type="matrix" values="0 0 0 0 0 0 0 0 0 0 0 0 0 0 0 0 0 0 127 0" result="hardAlpha"/>
<feOffset dx="2" dy="4"/>
<feGaussianBlur stdDeviation="5"/>
<feComposite in2="hardAlpha" operator="out"/>
<feColorMatrix type="matrix" values="0 0 0 0 0 0 0 0 0 0 0 0 0 0 0 0 0 0 0.47 0"/>
<feBlend mode="normal" in2="BackgroundImageFix" result="effect1_dropShadow_2_3"/>
<feBlend mode="normal" in="SourceGraphic" in2="effect1_dropShadow_2_3" result="shape"/>
</filter>
<linearGradient id="paint0_linear_2_3" x1="527.059" y1="93" x2="507.241" y2="-102.775" gradientUnits="userSpaceOnUse">
<stop stop-color="#0D0D0D"/>
<stop offset="1" stop-color="#272121"/>
</linearGradient>
<linearGradient id="paint1_linear_2_3" x1="527.059" y1="93.4884" x2="484.26" y2="-192.501" gradientUnits="userSpaceOnUse">
<stop stop-color="#2C2A2A"/>
<stop offset="1" stop-color="#2E2525" stop-opacity="0"/>
</linearGradient>
<linearGradient id="paint2_linear_2_3" x1="499.183" y1="-13.7007" x2="644.625" y2="160.188" gradientUnits="userSpaceOnUse">
<stop stop-color="#3A3535"/>
<stop offset="1" stop-color="#636363"/>
</linearGradient>
<clipPath id="clip0_2_3">
<rect width="700" height="93" rx="5" fill="white"/>
</clipPath>
</defs>
</svg>
