<?xml version="1.0" encoding="utf-8"?>
<!-- Generator: Adobe Illustrator 17.0.0, SVG Export Plug-In . SVG Version: 6.00 Build 0)  -->
<!DOCTYPE svg PUBLIC "-//W3C//DTD SVG 1.1//EN" "http://www.w3.org/Graphics/SVG/1.1/DTD/svg11.dtd">
<svg version="1.1" id="Layer_1" xmlns="http://www.w3.org/2000/svg" xmlns:xlink="http://www.w3.org/1999/xlink" x="0px" y="0px"
	 width="178.41px" height="31.616px" viewBox="0 0 178.41 31.616" enable-background="new 0 0 178.41 31.616" xml:space="preserve">
<g>
	<g>
		<rect x="22.971" y="23.405" fill="#FFFFFF" width="7.303" height="7.303"/>
		<rect x="11.424" y="23.405" fill="#FFFFFF" width="7.301" height="7.303"/>
		<rect x="0" y="23.405" fill="#FFFFFF" width="7.303" height="7.303"/>
		<rect x="22.939" y="11.81" fill="#FFFFFF" width="7.303" height="7.302"/>
		<rect x="11.633" y="0.419" fill="#FFFFFF" width="7.303" height="7.302"/>
		<rect x="11.633" y="11.843" fill="#FFFFFF" width="7.303" height="7.303"/>
	</g>
	<polygon fill="#FFFFFF" points="50.007,7.843 50.007,0.756 35.834,0.756 35.834,7.843 42.92,7.843 42.92,23.729 35.834,23.729 
		35.834,30.816 57.092,30.816 57.092,23.729 50.006,23.729 50.006,7.843 	"/>
	<rect x="50.007" y="0.756" fill="#FFFFFF" width="7.085" height="7.086"/>
	<path fill="#FFFFFF" d="M163.809,0.771h-12.925v24.212h7.086V6.611h4.938c3.007,0,7.86,0.945,7.86,9.277
		c0,6.183-2.749,9.103-8.289,9.103h-4.509v5.841h5.196c4.853,0,15.244-0.859,15.244-15.073
		C178.41,1.115,166.688,0.771,163.809,0.771z"/>
	<polygon fill="#FFFFFF" points="157.97,24.983 150.884,24.983 150.884,30.832 157.97,30.832 157.97,24.991 	"/>
	<path fill="#FFFFFF" d="M69.449,11.962h7.219c2.48,0,11.367,0.216,11.367,9.785c0,6.109-4.445,9.016-11.367,9.016H62.397V0.854
		h23.245v5.811H69.449V11.962z M69.449,24.952h5.725c2.778,0,5.256-0.555,5.256-3.375c0-3.586-3.417-3.803-5.126-3.803H69.45
		L69.449,24.952L69.449,24.952z"/>
	<path fill="#FFFFFF" d="M118.381,20.208c-0.473,4.489-2.99,11.408-13.588,11.408c-7.648,0-14.654-3.503-14.654-15.253
		C90.139,0.599,101.675,0,104.537,0c10.597,0,13.289,6.621,13.5,11.024h-6.919c-0.644-4.998-4.615-5.214-6.239-5.214
		c-1.58,0-7.136,0.3-7.136,10.297c0,5.641,2.563,9.7,7.349,9.7c4.613,0,5.982-3.376,6.281-5.599H118.381z"/>
	<path fill="#FFFFFF" d="M144.443,12.73v5.512h-14.611v6.71h17.006v5.81h-24.057V0.854h23.627v5.811h-16.576v6.066h14.611V12.73z"/>
</g>
</svg>
