<svg width="20" height="20" viewBox="0 0 20 20" fill="none" xmlns="http://www.w3.org/2000/svg">
    <path d="M17.8143 15.6845C17.2799 15.1762 16.7685 14.646 16.3904 14.2429C16.0029 13.8491 15.7695 13.5627 15.7695 13.5627L12.8529 12.17C13.9779 10.8856 14.6654 9.21162 14.6654 7.37516C14.6654 3.35537 11.3945 0.0834961 7.3737 0.0834961C3.35286 0.0834961 0.0820312 3.35537 0.0820312 7.37516C0.0820312 11.395 3.35286 14.6668 7.3737 14.6668C9.21016 14.6668 10.8841 13.9793 12.1685 12.8554L13.5612 15.772C13.5612 15.772 13.8477 16.0054 14.2414 16.3929C14.6445 16.771 15.1747 17.2825 15.6831 17.8168C16.1977 18.3439 16.7122 18.871 17.0977 19.2668C17.4747 19.671 17.7268 19.9397 17.7268 19.9397L19.9362 17.7304C19.9362 17.7304 19.6674 17.4783 19.2633 17.1012C18.8685 16.7137 18.3414 16.1991 17.8143 15.6845ZM7.3737 12.5835C4.50182 12.5835 2.16536 10.247 2.16536 7.37516C2.16536 4.50329 4.50182 2.16683 7.3737 2.16683C10.2456 2.16683 12.582 4.50329 12.582 7.37516C12.582 10.247 10.2456 12.5835 7.3737 12.5835Z" fill="#222222"/>
</svg>