<?xml version="1.0" encoding="utf-8"?>
<!-- Generator: Adobe Illustrator 17.0.0, SVG Export Plug-In . SVG Version: 6.00 Build 0)  -->
<!DOCTYPE svg PUBLIC "-//W3C//DTD SVG 1.1//EN" "http://www.w3.org/Graphics/SVG/1.1/DTD/svg11.dtd">
<svg version="1.1" id="Layer_1" xmlns="http://www.w3.org/2000/svg" xmlns:xlink="http://www.w3.org/1999/xlink" x="0px" y="0px"
	 width="418.257px" height="152.438px" viewBox="0 0 418.257 152.438" enable-background="new 0 0 418.257 152.438"
	 xml:space="preserve">
<path fill="#FFFFFF" d="M11.313,86.034v24.945l49.661-49.811V36.22L11.313,86.034z M59.242,0L15.73,43.646v24.943l43.512-43.646V0z"
	/>
<path fill="#FFFFFF" d="M78.205,84.862c2.693,1.59,6.903,2.973,11.251,2.973c5.38,0,8.413-2.558,8.413-6.364
	c0-3.532-2.343-5.608-8.207-7.751c-7.727-2.771-12.629-6.854-12.629-13.567c0-7.687,6.348-13.426,16.491-13.426
	c5.036,0,8.694,1.11,11.109,2.352l-2.002,6.856c-1.724-0.903-4.968-2.221-9.312-2.221c-5.383,0-7.661,2.839-7.661,5.608
	c0,3.6,2.693,5.26,8.903,7.685c8.07,3.043,11.938,7.124,11.938,13.838c0,7.543-5.661,14.052-17.598,14.052
	c-4.966,0-10.073-1.381-12.624-2.98L78.205,84.862z M129.056,59.669c10.004,0,16.697,7.056,16.697,17.297
	c0,12.389-8.695,17.931-17.247,17.931c-9.456,0-16.839-6.51-16.839-17.374C111.667,66.449,118.914,59.669,129.056,59.669
	 M128.848,65.825c-6.003,0-8.417,5.884-8.417,11.489c0,6.507,3.243,11.419,8.351,11.419c4.827,0,8.207-4.705,8.207-11.557
	C136.989,71.916,134.644,65.825,128.848,65.825 M176.248,86.794c-1.657,0.699-3.797,1.317-6.693,1.317
	c-5.798,0-10.281-3.948-10.281-10.865c-0.072-6.163,3.795-10.936,10.281-10.936c3.035,0,5.036,0.626,6.412,1.315l1.522-6.435
	c-1.931-0.827-5.107-1.52-8.213-1.52c-11.797,0-18.695,7.819-18.695,17.923c0,10.449,6.83,17.236,17.318,17.236
	c4.207,0,7.725-0.903,9.519-1.733L176.248,86.794z M192.181,94.137h-8.485v-33.71h8.485V94.137z M187.973,46.378
	c2.898,0,4.69,2.005,4.76,4.638c0,2.49-1.862,4.57-4.83,4.57c-2.827,0-4.692-2.08-4.692-4.57
	C183.211,48.383,185.142,46.378,187.973,46.378 M227.436,86.033c0,3.05,0.138,6.022,0.553,8.104h-7.661l-0.618-3.741h-0.203
	c-2.002,2.627-5.522,4.501-9.937,4.501c-6.766,0-10.558-4.912-10.558-10.036c0-8.448,7.517-12.809,19.938-12.736v-0.551
	c0-2.22-0.897-5.883-6.831-5.883c-3.312,0-6.761,1.034-9.038,2.49l-1.657-5.538c2.486-1.525,6.833-2.974,12.142-2.974
	c10.768,0,13.87,6.853,13.87,14.26V86.033z M219.161,77.662c-6.005-0.07-11.733,1.177-11.733,6.297c0,3.322,2.142,4.847,4.828,4.847
	c3.449,0,5.866-2.22,6.694-4.644c0.211-0.614,0.211-1.24,0.211-1.866V77.662z M236.405,94.137h8.484V44.992h-8.484V94.137z
	 M254.478,48.178c2.687-0.555,7.594-1.037,12.42-1.037c6.205,0,10.145,0.832,13.246,2.972c2.9,1.732,4.832,4.78,4.832,8.798
	c0,4.283-2.691,8.162-7.729,10.033v0.211c4.899,1.24,9.384,5.116,9.384,11.482c0,4.16-1.791,7.404-4.416,9.69
	c-3.314,2.834-8.762,4.294-17.322,4.294c-4.686,0-8.21-0.35-10.415-0.63V48.178z M262.897,66.587h4.347
	c5.932,0,9.173-2.769,9.173-6.713c0-4.428-3.314-6.435-8.689-6.435c-2.485,0-3.936,0.137-4.831,0.351V66.587z M262.897,87.973
	c1.102,0.211,2.553,0.211,4.489,0.211c5.445,0,10.344-2.009,10.344-7.75c0-5.472-4.76-7.686-10.624-7.686h-4.209V87.973z
	 M309.117,59.669c10.007,0,16.701,7.056,16.701,17.297c0,12.389-8.696,17.931-17.25,17.931c-9.454,0-16.833-6.51-16.833-17.374
	C291.735,66.449,298.98,59.669,309.117,59.669 M308.913,65.825c-6,0-8.414,5.884-8.414,11.489c0,6.507,3.239,11.419,8.349,11.419
	c4.826,0,8.211-4.705,8.211-11.557C317.059,71.916,314.708,65.825,308.913,65.825 M348.031,59.669c10.007,0,16.7,7.056,16.7,17.297
	c0,12.389-8.693,17.931-17.253,17.931c-9.454,0-16.833-6.51-16.833-17.374C330.645,66.449,337.89,59.669,348.031,59.669
	 M347.828,65.825c-6.006,0-8.422,5.884-8.422,11.489c0,6.507,3.248,11.419,8.349,11.419c4.834,0,8.214-4.705,8.214-11.557
	C355.969,71.916,353.618,65.825,347.828,65.825 M369.626,92.47c2.48,1.382,6.14,2.358,10.21,2.358
	c8.901,0,13.663-4.432,13.663-10.592c-0.074-4.985-2.833-8.099-8.971-10.242c-4.28-1.594-5.867-2.562-5.867-4.707
	c0-2.078,1.655-3.596,4.692-3.596c2.968,0,5.73,1.104,7.104,1.933l1.728-5.949c-2-1.108-5.245-2.006-8.968-2.006
	c-7.795,0-12.695,4.566-12.695,10.515c0,4.015,2.69,7.618,9.246,9.831c4.139,1.525,5.517,2.631,5.517,4.912
	c0,2.212-1.653,3.806-5.382,3.806c-3.036,0-6.691-1.313-8.553-2.493L369.626,92.47z M401.842,54.133v6.295h-4.755v6.367h4.755
	v15.851c0,4.428,0.828,7.539,2.689,9.483c1.589,1.723,4.143,2.768,7.318,2.768c2.621,0,4.9-0.418,6.14-0.906l-0.142-6.433
	c-0.964,0.277-1.789,0.346-3.31,0.346c-3.241,0-4.342-2.074-4.342-6.23V66.795h8.062v-6.367h-8.062v-8.651L401.842,54.133z"/>
<path fill-rule="evenodd" clip-rule="evenodd" fill="#FFFFFF" d="M51.139,40.546L0,91.844V66.895l51.139-51.293V40.546z
	 M51.139,102.412L1.272,152.438v-24.941l49.867-50.024V102.412z"/>
</svg>
