<svg xmlns="http://www.w3.org/2000/svg" viewBox="0 0 395.64 389.43"><defs><style>.cls-1{fill:#fff;}.cls-2{fill:#2ea2db;}.cls-3{fill:#f16051;}.cls-4{fill:#193651;}</style></defs><title>Asset 11history-ochikue-rishennya</title><g id="Layer_2" data-name="Layer 2"><g id="Layer_1-2" data-name="Layer 1"><rect class="cls-1" x="6.21" y="71.11" width="328.86" height="257.81"/><rect class="cls-2" x="97.68" y="95.81" width="29.03" height="29.03"/><rect class="cls-2" x="155.8" y="95.81" width="29.03" height="29.03"/><rect class="cls-2" x="213.92" y="95.81" width="29.03" height="29.03"/><rect class="cls-2" x="272.03" y="95.81" width="29.03" height="29.03"/><rect class="cls-2" x="40.21" y="149.59" width="29.03" height="29.03"/><rect class="cls-2" x="97.68" y="149.59" width="29.03" height="29.03"/><rect class="cls-2" x="155.8" y="149.59" width="29.03" height="29.03"/><rect class="cls-2" x="40.21" y="203.96" width="29.03" height="29.03"/><rect class="cls-2" x="97.68" y="203.96" width="29.03" height="29.03"/><rect class="cls-2" x="40.21" y="257.75" width="29.03" height="29.03"/><rect class="cls-2" x="97.68" y="257.75" width="29.03" height="29.03"/><rect class="cls-3" x="6.21" y="20.36" width="328.86" height="50.68"/><path class="cls-1" d="M264,383.29a125.48,125.48,0,0,1,0-251c69.24.65,125.48,56.89,125.48,125.48A125.6,125.6,0,0,1,264,383.29Z"/><circle class="cls-2" cx="263.95" cy="257.75" r="43.89"/><circle class="cls-2" cx="263.95" cy="257.75" r="43.89"/><circle class="cls-2" cx="263.95" cy="257.75" r="43.89"/><path class="cls-4" d="M341.27,151.47V14.22H293V0H280.69V14.22H234.93V0H222.58V14.22H176.81V0H164.46V14.22H118.69V0H106.34V14.22H60.57V0H48.23V14.22H0V335.06H157.61c24.11,32.78,62.45,54.37,106.34,54.37A131.4,131.4,0,0,0,395.64,257.75C395.64,214.5,374,175.58,341.27,151.47ZM12.35,26.57H48.23V40.15H60.57V26.57h45.77V40.15h12.35V26.57h45.77V40.15h12.35V26.57h45.77V40.15h12.35V26.57h45.77V40.15H293V26.57h35.88V64.91H12.35Zm0,296.08V77.25H328.86V144A129,129,0,0,0,264,126.71a131.08,131.08,0,0,0-131,131c0,23.47,6.21,45.77,17.33,64.26H12.35ZM145.26,264h13V251.6h-13c1.23-28.44,13-53.79,30.32-73.57l9.24,9.24,8.66-8.66L184.82,170a116.57,116.57,0,0,1,73.57-30.32v13.58h12.35V139c28.44,1.23,53.79,13,73.57,30.32l-9.24,9.24,8.66,8.66L353,178a115.93,115.93,0,0,1,30.32,73h-13v12.35h13A115.87,115.87,0,0,1,353,336.87l-9.24-9.24-9.24,9.24,9.24,9.24a116.57,116.57,0,0,1-73.57,30.32v-13H257.81V377c-22.88-.65-51.33-9.89-74.21-29.67l9.89-9.89-8-9.24-10.54,10.54C158.9,320.84,147.14,296.08,145.26,264Z"/><path class="cls-4" d="M288.06,251.6a26,26,0,0,0-17.91-17.91V184.24H257.81V233.7c-10.54,2.46-18.55,12.35-18.55,24.11A24.84,24.84,0,0,0,264,282.57c11.77,0,21.66-8,24.11-18.55h64.32V251.6Z"/><rect class="cls-4" x="230.59" y="326.4" width="12.35" height="12.35"/><rect class="cls-4" x="257.81" y="326.4" width="12.35" height="12.35"/><rect class="cls-4" x="284.96" y="326.4" width="12.35" height="12.35"/><circle class="cls-2" cx="263.95" cy="257.75" r="8.66"/></g></g></svg>