<svg xmlns="http://www.w3.org/2000/svg" viewBox="0 0 64 64"><defs><style>.cls-1{fill:#fff;}.cls-2{fill:#193651;}.cls-3{fill:#8cc793;}.cls-4{fill:#3fb9ec;}.cls-5{fill:#d3d7da;}</style></defs><title>Asset 7history-podacha</title><g id="Layer_2" data-name="Layer 2"><g id="Layer_9" data-name="Layer 9"><polygon class="cls-1" points="61.59 53.9 57.6 63 53.59 53.9 61.59 53.9"/><rect class="cls-1" x="53.61" y="29.08" width="7.9" height="24.82"/><path class="cls-2" d="M51.2,0V5.59H46.8V30.3h2V7.6h2.39v22.7H52.6V54a.64.64,0,0,0,0,.15.35.35,0,0,0,.08.15l4,9.1a1,1,0,0,0,.9.6.87.87,0,0,0,.9-.6l4-9.1a.25.25,0,0,1,.05-.15.5.5,0,0,0,.05-.15V30.3H64V0Zm6.4,60.5-2.41-5.61H60Zm3-7.59H54.7V30.3h5.9Z"/><rect class="cls-3" x="53.29" y="2.09" width="8.62" height="26.11"/><polygon class="cls-1" points="14.7 1 1 14.7 1 63 43.4 63 43.4 1 14.7 1"/><rect class="cls-4" x="9.2" y="22.2" width="26.1" height="11.9"/><rect class="cls-2" x="14.1" y="27.2" width="16.2" height="2"/><path class="cls-5" d="M14.7,14.7V1.2c0-.1-.1-.1-.2-.1L1.2,14.5c-.1.1,0,.2.1.2Z"/><path class="cls-2" d="M14.3,0,0,14.3V64H44.4V0Zm-.6,3.4V13.7H3.4ZM42.41,62H2V15.7H15.7V2h26.7V62Z"/><rect class="cls-2" x="8" y="41.2" width="28.3" height="2"/><rect class="cls-2" x="8" y="47" width="28.3" height="2"/><rect class="cls-2" x="8" y="52.9" width="28.3" height="2"/><rect class="cls-2" x="23.21" y="7.9" width="2" height="2"/><rect class="cls-2" x="28.5" y="7.9" width="2" height="2"/><rect class="cls-2" x="33.7" y="7.9" width="2" height="2"/></g></g></svg>