<svg xmlns="http://www.w3.org/2000/svg" viewBox="0 0 64 64"><defs><style>.cls-1,.cls-6,.cls-7{fill:#fff;}.cls-2{fill:#193651;}.cls-3{fill:#4fbf9f;}.cls-4{fill:#d3d7da;}.cls-5{fill:#f16051;}.cls-6,.cls-7{stroke:#193651;stroke-miterlimit:10;}.cls-6{stroke-width:5.33px;}.cls-7{stroke-width:2px;}</style></defs><title>Asset 4GBK-peremozhci</title><g id="Layer_2" data-name="Layer 2"><g id="rejected"><polygon class="cls-1" points="22 1 1 1 1 44.8 33.7 44.8 33.7 12.7 22 1"/><path class="cls-2" d="M34.7,45.8H0V0H22.4L34.7,12.3ZM2,43.8H32.7V13.1L21.61,2H2Z"/><rect class="cls-2" x="5.7" y="14.5" width="2" height="2"/><rect class="cls-2" x="10.5" y="14.5" width="2" height="2"/><rect class="cls-2" x="15.4" y="14.5" width="2" height="2"/><polygon class="cls-3" points="21.96 0.97 21.96 12.73 33.72 12.73 21.96 0.97"/><rect class="cls-2" x="5.7" y="7.1" width="11.7" height="2"/><rect class="cls-2" x="5.7" y="21.9" width="21.7" height="2"/><rect class="cls-2" x="5.7" y="29.3" width="21.7" height="2"/><rect class="cls-2" x="5.7" y="36.7" width="21.7" height="2"/><polygon class="cls-1" points="51.3 19.2 30.3 19.2 30.3 63 63 63 63 30.9 51.3 19.2"/><path class="cls-2" d="M64,64H29.3V18.2H51.7L64,30.4ZM31.3,62H62V31.3L50.9,20.2H31.3Z"/><polygon class="cls-4" points="34.3 59 34.3 23.2 49.7 23.2 59 32.5 59 59 34.3 59"/><polygon class="cls-5" points="49.7 32.5 59 32.5 49.7 23.2 49.7 32.5"/><path class="cls-2" d="M51.7,18.2h-17V12.3L22.4,0H0V45.8H29.3V64H64V30.4ZM2,43.8V2h19.6l11.1,11.1v5.1h-3.3V43.8ZM62,62H31.3V20.2H50.9L62,31.3V62Z"/><path class="cls-6" d="M39.1,43.1"/><path class="cls-7" d="M55.4,51.67,50,46.2l5.48-5.48a2.32,2.32,0,0,0,0-3.32h0a2.32,2.32,0,0,0-3.32,0l-5.48,5.48-5.48-5.43a2.35,2.35,0,0,0-3.32,3.32l5.48,5.43L37.9,51.67a2.32,2.32,0,0,0,0,3.32h0a2.32,2.32,0,0,0,3.32,0l5.43-5.48L52.13,55a2.32,2.32,0,0,0,3.32,0A2.36,2.36,0,0,0,55.4,51.67Z"/></g></g></svg>