<svg xmlns="http://www.w3.org/2000/svg" viewBox="0 0 394.34 367.19"><defs><style>.cls-1{fill:#fff;}.cls-2{fill:#193651;}.cls-3{fill:#fdbf5e;}.cls-4{fill:#d3d7da;}</style></defs><title>Asset 10history-na-golosuvanni</title><g id="Layer_2" data-name="Layer 2"><g id="Layer_1-2" data-name="Layer 1"><rect class="cls-1" x="6.14" y="6.21" width="299.83" height="354.84"/><path class="cls-2" d="M312.18,367.19H0V0H312.18ZM12.35,354.84H299.83V12.35H12.35Z"/><rect class="cls-3" x="30.9" y="30.9" width="250.38" height="305.39"/><polygon class="cls-1" points="250.18 168.73 61.8 168.73 61.8 224.39 250.18 224.39 250.96 224.39 250.96 168.73 250.18 168.73"/><path class="cls-2" d="M55.6,162.59v68H257.1v-68Zm63.09,55.6H68V174.93h50.68Zm63,0H131V174.93h50.68Zm63,0H194.07V174.93h50.68Z"/><rect class="cls-1" x="55.6" y="52.56" width="69.24" height="12.35"/><rect class="cls-1" x="55.6" y="87.14" width="200.92" height="12.35"/><rect class="cls-1" x="55.6" y="121.15" width="200.92" height="12.35"/><rect class="cls-2" x="109.38" y="302.29" width="12.35" height="12.35"/><rect class="cls-2" x="150.17" y="302.29" width="12.35" height="12.35"/><rect class="cls-2" x="190.97" y="302.29" width="12.35" height="12.35"/><circle class="cls-4" cx="317.09" cy="294.27" r="60.57"/><polygon class="cls-2" points="319.55 317.74 289.29 281.28 299.18 273.26 320.19 299.18 385.1 228.72 394.34 236.74 319.55 317.74"/></g></g></svg>