<?xml version="1.0" encoding="utf-8"?>
<!-- Generator: Adobe Illustrator 22.0.1, SVG Export Plug-In . SVG Version: 6.00 Build 0)  -->
<svg version="1.1" id="Layer_1" xmlns="http://www.w3.org/2000/svg" xmlns:xlink="http://www.w3.org/1999/xlink" x="0px" y="0px"
	 viewBox="0 0 134.9 17" style="enable-background:new 0 0 134.9 17;" xml:space="preserve">
<style type="text/css">
	.st0{fill:#FFFFFF;}
</style>
<g>
	<path class="st0" d="M116.8,3.4l-0.3,0.1l-0.3,0.2L116,3.9l-0.2,0.2l-0.2,0.2l-0.2,0.3l-0.2,0.3l-0.1,0.3L115,5.5l-0.1,0.3
		l-0.1,0.7v9.8l0,0.1l0.1,0.1l0.1,0.1l0.2,0h2.5l0.1,0l0.1,0l0.1,0l0-0.1l0-0.1l0-0.1V6.9l3.2,6.9l0.3,0.6l0.4,0.6l0.4,0.5l0.2,0.2
		l0.2,0.2l0.4,0.4l0.5,0.3l0.3,0.1l0.3,0.1l0.3,0.1l0.3,0l0.3,0l0.3,0l0.3-0.1l0.3-0.1l0.1-0.1l0.1-0.1l0.2-0.1l0.2-0.2l0-0.1l0.1,0
		l0.1-0.1l0.2-0.2l0.1-0.1l0-0.1l0.1,0l0.2-0.3l0.2-0.2l0.3-0.6l0.3-0.7l3.2-7.1v9.5l0,0.1l0.1,0.1l0.1,0.1l0.2,0h2.5l0.1,0l0.1,0
		l0.1,0l0-0.1l0-0.1l0-0.1V6.9l0-0.4l0-0.4l-0.1-0.4l-0.1-0.3l-0.3-0.6l-0.2-0.3l-0.2-0.2l-0.2-0.3l-0.2-0.2l-0.3-0.2l-0.3-0.1
		l-0.3-0.1l-0.3-0.1l-0.4-0.1h-0.4l-0.6,0l-0.5,0.1l-0.3,0.1l-0.2,0.1l-0.4,0.3L129,4.2l-0.4,0.4l-0.3,0.5l-0.2,0.6l-3.3,7.9
		l-3.1-7.5l-0.3-0.6l-0.2-0.3L121.2,5l-0.4-0.5l-0.2-0.2L120.4,4l-0.5-0.4l-0.3-0.1l-0.2-0.1L119,3.3l-0.3-0.1l-0.3,0h-0.3l-0.7,0.1
		L116.8,3.4L116.8,3.4z"/>
	<path class="st0" d="M24,3.3l-0.1-0.1l-0.1,0h-3l-0.2,0l-0.1,0.1l-0.1,0.1l0,0.2v12.8l0,0.1l0.1,0.1l0.1,0.1l0.2,0h3l0.1,0l0.1,0
		l0.1,0l0-0.1l0-0.1l0-0.1V3.6l0-0.2L24,3.3L24,3.3z"/>
	<path class="st0" d="M29.1,3.6l-0.5,0.1l-0.4,0.2l-0.4,0.2l-0.4,0.3l-0.4,0.3L26.9,5l-0.3,0.3l-0.2,0.4l-0.2,0.4L26,6.5L25.9,7
		l0,0.5l0,0.4L26,8.3l0.1,0.4l0.2,0.4l0.2,0.4l0.2,0.4l0.3,0.3l0.3,0.3l0.3,0.2L28,11l0.4,0.2l0.4,0.2l0.4,0.1l0.4,0.1l0.4,0.1
		l0.5,0h11.8l0.3,0l0.1,0.1l0.1,0.1l0.2,0.2l0,0.1l0,0.2l0,0.1v0.1l-0.1,0.1l0,0.1L42.9,13l-0.1,0l0,0l0,0l-0.1,0.1l-0.1,0l-0.1,0
		H27.2l-0.2,0l-0.1,0.1l-0.1,0.1l0,0.2v2.6l0,0.1l0.1,0.1l0.1,0.1l0.2,0h14.9l0.4,0l0.2,0l0,0h0.1h0.1l0.4-0.1l0.4-0.1l0.1-0.1
		l0.1,0l0.2-0.1l0.4-0.2l0.2-0.1l0.1-0.1l0.1,0l0.3-0.2l0.3-0.3l0.1-0.2l0.1-0.1l0.1-0.1l0-0.1l0.1-0.1l0.1-0.2l0-0.1l0.1-0.1
		l0.1-0.2l0.1-0.4l0.1-0.2v-0.1l0,0l0-0.1v-0.1v-0.1l0,0l0-0.2v-0.1v-0.1l0,0l0-0.2l0-0.4l-0.1-0.4l-0.1-0.4l-0.1-0.4l-0.2-0.4
		l-0.2-0.4l-0.2-0.3l-0.3-0.3L45,9.2L44.6,9l-0.4-0.2l-0.4-0.2l-0.5-0.2L43,8.3l-0.5-0.1l-0.5,0H30.4l-0.2,0l-0.1,0L30,8.1L29.8,8
		l-0.1-0.2l-0.1-0.2v0l0-0.1V7.4V7.4l0-0.3l0.2-0.2l0.2-0.2l0.3,0h14.9l0.1,0l0.1,0l0.1,0l0-0.1l0-0.1l0-0.1V3.7l0-0.2l-0.1-0.1
		l-0.1-0.1l-0.1,0H31l-0.9,0.1L29.1,3.6L29.1,3.6z"/>
	<path class="st0" d="M52.3,3.6l0-0.2l-0.1-0.1L52,3.2l-0.1,0h-3l-0.2,0l-0.1,0.1l-0.1,0.1l0,0.2v12.8l0,0.1l0.1,0.1l0.1,0.1l0.2,0
		h3l0.1,0l0.1,0l0.1,0l0-0.1l0-0.1l0-0.1L52.3,3.6L52.3,3.6z"/>
	<path class="st0" d="M73.2,3.3L73,3.2l-0.1,0H59.2h-0.6L58,3.3l-0.5,0.1L57,3.5l-0.5,0.1l-0.4,0.2l-0.4,0.2l-0.3,0.3l-0.3,0.3
		l-0.3,0.4l-0.2,0.4l-0.2,0.5l-0.1,0.5L54.2,7l-0.1,0.6l0,0.6v4.5l0,0.4l0.1,0.4l0.1,0.4l0.2,0.4l0.2,0.3l0.2,0.3l0.2,0.3l0.3,0.3
		l0.3,0.2l0.4,0.2l0.4,0.2l0.4,0.2l0.4,0.1l0.4,0.1l0.4,0.1l0.4,0h14.4l0.1,0l0.1,0l0.1,0l0-0.1l0-0.1l0-0.1v-2.6l0-0.2l-0.1-0.1
		L73,13.3l-0.1,0H58.4l-0.2,0l-0.1,0l-0.1-0.1L57.8,13l-0.1-0.1l-0.1-0.1l0-0.1v-0.1V7.4l0-0.3l0.2-0.2L58,6.6l0.2-0.1l0.2,0h14.5
		l0.1,0l0.1,0l0.1,0l0-0.1l0-0.1l0-0.1V3.6l0-0.2L73.2,3.3L73.2,3.3z"/>
	<path class="st0" d="M3.9,3.6L3.8,3.5L3.6,3.3L3.5,3.2l-0.2,0H0.2l-0.1,0L0,3.3l0,0.2l5.3,10.1l0.3,0.6L6,14.9l0.4,0.5l0.2,0.2
		l0.2,0.2l0.5,0.4l0.2,0.1l0.3,0.1l0.3,0.1l0.3,0.1l0.3,0l0.4,0v0h0h0h0.1h0.2l0.3,0l0.1,0v0h0h0h0.1l0.3-0.1l0.2-0.1l0.2-0.1
		l0.1-0.1l0.1-0.1l0.1-0.1l0.1-0.1l0.2-0.2l0.2-0.2l0.4-0.4l0-0.1l0-0.1l0.1-0.1l0.2-0.2l0.3-0.6l4.6-8.6l1-1.9l0-0.2l0-0.1
		l-0.1-0.1l-0.1,0h-3l-0.2,0l-0.2,0.1l-0.2,0.1l-0.1,0.2l-5.3,9.7L3.9,3.6L3.9,3.6z"/>
	<path class="st0" d="M99.4,3.6l0.9-0.1l1,0l1.9,0.1l0.5,0.1l0.5,0.1l0.4,0.1l0.4,0.1l0.3,0.1l0.3,0.1l0.6,0.4l0.6,0.5l0.2,0.3
		l0.4,0.6l0.1,0.3l0.1,0.4V7l0,0.2l0,0v0.2l-0.1,0.1v0.1l0,0.2l-0.2,0.4L107,8.8L106.7,9l-0.1,0.1l-0.4,0.3l2.3,2.7l0.9-0.6l1.5-1.2
		l0.6-0.6l0.6-0.9l0.1-0.3l0-0.2l0-0.1l0.1-0.6V7.5l-0.1-0.3l-0.2-0.5L112,6.1l-0.4-0.5l-0.5-0.5l-0.6-0.4L110,4.4l-0.3-0.2
		l-0.3-0.1l-0.6-0.3l-0.6-0.2l-0.7-0.2l-0.4-0.1l-0.4-0.1L105.9,3l-0.5-0.1l-0.5-0.1l-1.1-0.1l-1.1-0.1l-1.2-0.1l-1.2,0l-4.6,0.1
		L99.4,3.6L99.4,3.6z"/>
	<path class="st0" d="M102.5,14.6l1.6-0.5l-5.7-2.3l-5.1,0.6h-7.1l-1.8-0.2L83,11.7l-0.3-0.1l-0.4-0.3l-0.1-0.1l-0.3-0.5l-0.1-0.5
		l-0.1-0.4l0.1-0.7l0.4-0.7l0.4-0.4l0.8-0.6l0.4-0.2L84.3,7l0.5-0.3l0.5-0.2l1-0.4l0.5-0.2l0.5-0.1l0.5-0.1l0.5-0.1l1-0.2l-1.1-1.7
		l-1.5,0.3l-5,1.6l-2.1,1l-2.3,1.4l-1,0.9L75.9,9l-0.6,0.9l-0.1,0.3l-0.1,0.9l0,0.3l0.2,0.8l0.3,0.5l0.5,0.7l0.2,0.2l1,0.8l1.4,0.7
		l2.3,0.8l3.8,0.6l4.5,0.2l4.6-0.3l5.6-1l2.7-0.8L102.5,14.6L102.5,14.6z"/>
	<path class="st0" d="M92.2,8.7L92.2,8.7l8.8-3.8L86.5,0L92.2,8.7L92.2,8.7z"/>
	<path class="st0" d="M92.6,9L92.6,9l18.6,7.2l-9.8-11L92.6,9L92.6,9z"/>
</g>
</svg>
